<svg height="124.09333" viewBox="0 0 532.88 124.09333" width="532.88" xmlns="http://www.w3.org/2000/svg" xmlns:xlink="http://www.w3.org/1999/xlink"><clipPath id="a"><path d="m0 0h925.711v930.711h-925.711z"/></clipPath><g transform="matrix(.13333333 0 0 -.13333333 0 124.09333)"><g clip-path="url(#a)"><g fill="#fff"><path d="m39.3086 280.906c-25.2734 57.172-39.3086 120.422-39.3086 186.949 0-66.527 14.0352-129.777 39.3086-186.949m367.1324 646.403c18.493 2.246 37.317 3.402 56.414 3.402h.375c-.125 0-.25 0-.375 0-19.097 0-37.921-1.156-56.414-3.402"/><path d="m921.879 558.379-5.149.668c-14.562 72.883-46.242 139.598-90.671 195.754l5.367 1.047c44.426-56.774 76.047-124.012 90.453-197.469"/><path d="m462.855 0c-98.597 0-190.019 30.5703-265.449 82.6523 27.914-19.2656 58.02-35.5507 89.875-48.4648l.231 5.1797c54.086-22.1602 113.277-34.3672 175.343-34.3672 5.321 0 10.629.08984 15.907.26563l.656-4.847661c-5.508-.191406-11.008-.417969-16.563-.417969"/><path d="m9.3125 582.965c12.5586 49.637 33.1211 96.051 60.1172 137.937l4.9609-1.293c-26.7461-41.183-47.1211-86.882-59.7265-135.711z"/><path d="m197.406 82.6602c-.152.1093-.312.2148-.465.3242l.735 5.457c.156-.1055.316-.2187.469-.3242l-.739-5.4649"/><path d="m287.281 34.1875c-31.855 12.9141-61.961 29.1992-89.875 48.4727l.739 5.457c27.714-19.3555 57.671-35.7656 89.367-48.75z"/></g><path d="m478.762 5.26953-70.785 523.78947 18.261 14.277s9.422 6.379 9.422 19.961-.273 37.703-.273 37.703l-26.891 3.883-.223 20.195 508.457-66.031c5.891-29.488 8.981-59.973 8.981-91.192 0-250.308-198.684-454.2066-446.949-462.58547m-281.086 83.17577c-68.875 48.2267-124.0041 114.7187-158.3674 192.4607-25.2734 57.172-39.3086 120.422-39.3086 186.953 0 40.063 5.09766 78.961 14.668 116.039l242.27 42.133-.235-21.148-26.89-3.883s-.278-24.121-.278-37.703 9.426-19.961 9.426-19.961l18.258-14.277zm59.765 583.4097-183.0504 47.754c72.8324 112.161 192.9184 190.793 332.0504 207.7 18.493 2.246 37.317 3.402 56.414 3.402h.375c147.086-.117 278.125-68.852 362.825-175.91l-418.317-81.488-.074 6.968 16.356 14.696s13.371 10.375-.278 18.015c-13.859 7.766-76.234 66.535-76.234 66.535s-8.504 8.707-14.332 9.317l-.004.109-.317-.055-.32.055v-.109c-1.555-.164-3.301-.903-5.023-1.899.027.102.054.211.086.313-4.942-2.668-9.907-7.731-9.907-7.731s-62.375-58.769-76.234-66.535c-13.652-7.64-.277-18.015-.277-18.015l16.355-14.696z" fill="#2a6485"/><path d="m916.73 559.047c-14.566 72.883-46.246 139.598-90.675 195.754h.004c44.429-56.156 76.109-122.871 90.671-195.754" fill="#fff"/><path d="m916.73 559.047-508.457 66.031-.535 48.235 418.317 81.488c44.429-56.156 76.109-122.871 90.675-195.754" fill="#e5e8ed"/><path d="m462.855 5c-62.066 0-121.257 12.207-175.343 34.3672l21.953 496.1168c0 14.461-12.856 19.282-12.856 32.133v33.738l9.641 6.426v81.938s-4.82 8.035-4.82 17.676c0 6.964 16.773 45.804 26.082 79.55 1.722.996 3.468 1.735 5.023 1.899v.109l.32-.055.317.055.004-.109c5.828-.61 14.332-9.317 14.332-9.317s62.375-58.769 76.234-66.535c13.649-7.64.278-18.015.278-18.015l-16.356-14.696.074-6.968.535-48.235.223-20.195 26.891-3.883s.273-24.121.273-37.703-9.422-19.961-9.422-19.961l-18.261-14.277 70.785-523.78947v-.0039c-5.278-.17579-10.586-.26563-15.907-.26563" fill="#fff"/><path d="m14.6641 583.898c12.6054 48.829 32.9804 94.528 59.7265 135.711-26.7461-41.183-47.1211-86.882-59.7226-135.711z" fill="#fff"/><path d="m14.668 583.898c12.6015 48.829 32.9765 94.528 59.7226 135.711l183.0504-47.754-.503-45.824z" fill="#e5e8ed"/><path d="m198.145 88.1172c-.153.1055-.313.2187-.469.3242v.0039c.156-.1094.316-.2187.469-.3281z" fill="#aab2ba"/><path d="m198.145 88.1172c-.153.1094-.313.2187-.469.3281l59.543 440.6137-18.258 14.277s-9.426 6.379-9.426 19.961.278 37.703.278 37.703l26.89 3.883.235 21.148.511.09-.234-21.238-26.891-3.883s-.277-24.121-.277-37.703 9.426-19.961 9.426-19.961l18.257-14.277zm59.808 583.6058-.512.132.094 8.426-16.355 14.696s-13.375 10.375.277 18.015c13.859 7.766 76.234 66.535 76.234 66.535s4.965 5.063 9.907 7.731c-.032-.102-.059-.211-.086-.313-4.739-2.738-9.309-7.418-9.309-7.418s-62.375-58.769-76.234-66.535c-13.653-7.64-.278-18.015-.278-18.015l16.356-14.696z" fill="#285d78"/><path d="m287.512 39.3672c-31.696 12.9844-61.653 29.3945-89.367 48.75l59.585 440.9418-18.257 14.277s-9.426 6.379-9.426 19.961.277 37.703.277 37.703l26.891 3.883.234 21.238 5.422.942v43.378l-4.918 1.282.094 8.558-16.356 14.696s-13.375 10.375.278 18.015c13.859 7.766 76.234 66.535 76.234 66.535s4.57 4.68 9.309 7.418c-9.309-33.746-26.082-72.586-26.082-79.55 0-9.641 4.82-17.676 4.82-17.676v-81.938l-9.641-6.426v-33.738c0-12.851 12.856-17.672 12.856-32.133z" fill="#aab2ba"/><path d="m256.938 626.031.503 45.824.512-.132-.504-45.602z" fill="#9aa7b1"/><path d="m257.449 626.121.504 45.602 4.918-1.282v-43.378z" fill="#aab2ba"/></g><g fill="#2a6485"><path d="m1148.19 280.262c.42 1.676 2.1 2.937 3.78 2.937h3.36c1.47 0 3.15-1.047 3.57-2.312l41.57-115.688h1.05l40.94 115.688c.42 1.265 2.1 2.312 3.57 2.312h3.36c1.68 0 3.36-1.261 3.78-2.937l27.09-141.098c.63-2.937-.63-5.035-3.78-5.035h-8.4c-1.68 0-3.36 1.465-3.78 2.937l-18.69 108.133h-.84l-38.63-110.855c-.42-1.274-2.31-2.317-3.57-2.317h-3.78c-1.26 0-3.15 1.043-3.57 2.317l-39.05 110.855h-.84l-18.27-108.133c-.21-1.472-2.1-2.937-3.78-2.937h-8.39c-3.15 0-4.41 2.098-3.78 5.035z"/><path d="m1548.44 146.727c33.39 0 60.89 27.293 60.89 60.679 0 33.379-27.5 61.098-60.89 61.098-33.38 0-60.68-27.719-60.68-61.098 0-33.386 27.3-60.679 60.68-60.679zm0 136.472c41.99 0 75.59-33.801 75.59-75.793s-33.6-75.379-75.59-75.379-75.37 33.387-75.37 75.379 33.38 75.793 75.37 75.793"/><path d="m1827.34 279.422c0 2.098 1.89 3.777 3.98 3.777h5.26l94.68-118h.43v111.914c0 2.09 1.68 3.989 3.99 3.989h7.34c2.11 0 3.99-1.899 3.99-3.989v-141.304c0-2.102-1.88-3.782-3.99-3.782h-3.77l-96.38 120.301h-.2v-114.219c0-2.086-1.68-3.98-4-3.98h-7.35c-2.09 0-3.98 1.894-3.98 3.98z"/><path d="m2161.02 277.113c0 2.09 1.88 3.989 3.99 3.989h8.4c2.09 0 3.99-1.899 3.99-3.989v-139.004c0-2.086-1.9-3.98-3.99-3.98h-8.4c-2.11 0-3.99 1.894-3.99 3.98z"/><path d="m2412.18 267.035h-36.54c-2.31 0-3.99 1.887-3.99 3.988v6.09c0 2.09 1.68 3.989 3.99 3.989h89.02c2.32 0 4-1.899 4-3.989v-6.09c0-2.101-1.68-3.988-4-3.988h-36.52v-128.926c0-2.086-1.9-3.98-4-3.98h-7.97c-2.1 0-3.99 1.894-3.99 3.98z"/><path d="m2725.07 146.727c33.38 0 60.89 27.293 60.89 60.679 0 33.379-27.51 61.098-60.89 61.098s-60.68-27.719-60.68-61.098c0-33.386 27.3-60.679 60.68-60.679zm0 136.472c41.99 0 75.59-33.801 75.59-75.793s-33.6-75.379-75.59-75.379-75.37 33.387-75.37 75.379 33.38 75.793 75.37 75.793"/><path d="m3061.28 205.516c16.17 0 30.24 13.433 30.24 30.652 0 15.957-14.07 29.602-30.24 29.602h-40.74v-60.254zm-57.32 71.597c0 2.09 1.68 3.989 3.98 3.989h54.39c25.19 0 45.77-19.739 45.77-44.731 0-19.312-12.81-35.476-31.08-42.832l28.77-53.316c1.47-2.739 0-6.094-3.57-6.094h-10.7c-1.9 0-2.95 1.055-3.36 1.894l-27.93 55.633h-40.1v-53.547c0-2.086-1.89-3.98-3.99-3.98h-8.2c-2.3 0-3.98 1.894-3.98 3.98z"/><path d="m3313.92 277.113c0 2.09 1.89 3.989 3.98 3.989h8.4c2.11 0 4-1.899 4-3.989v-139.004c0-2.086-1.89-3.98-4-3.98h-8.4c-2.09 0-3.98 1.894-3.98 3.98z"/><path d="m3544.29 279.422c0 2.098 1.89 3.777 3.98 3.777h5.26l94.69-118h.43v111.914c0 2.09 1.68 3.989 3.98 3.989h7.34c2.11 0 4-1.899 4-3.989v-141.304c0-2.102-1.89-3.782-4-3.782h-3.77l-96.37 120.301h-.21v-114.219c0-2.086-1.68-3.98-3.99-3.98h-7.36c-2.09 0-3.98 1.894-3.98 3.98z"/><path d="m3943.07 283.199c21.2 0 36.53-7.351 50.81-19.519 1.68-1.684 1.89-4.2.21-5.879-1.89-1.899-4.19-3.996-5.87-5.879-1.9-2.109-3.16-1.899-5.47.203-10.71 9.441-25.82 16.379-39.89 16.379-33.18 0-58.37-27.719-58.37-60.258 0-32.344 25.19-60.683 58.37-60.683 23.09 0 37.8 8.82 37.8 8.82v29.394h-24.15c-2.32 0-4 1.68-4 3.782v7.769c0 2.309 1.68 3.985 4 3.985h36.32c2.1 0 3.78-1.891 3.78-3.985v-48.086c0-1.054-.84-2.73-1.68-3.355 0 0-21.42-13.86-51.86-13.86-41.99 0-75.79 33.387-75.79 75.379s33.8 75.793 75.79 75.793"/><path d="m1052 731.98c-2.09 7.309 2.09 12.532 9.4 12.532h48.05c4.18 0 8.36-3.657 9.4-7.309l54.32-208.402h2.09l83.05 215.187c1.04 3.137 3.66 5.75 8.88 5.75h9.4c5.22 0 7.83-2.613 8.88-5.75l83.57-215.187h2.09l53.27 208.402c1.05 3.652 5.22 7.309 9.4 7.309h48.05c7.32 0 11.5-5.223 9.41-12.532l-98.72-350.988c-1.04-4.179-5.22-7.312-9.4-7.312h-8.36c-4.7 0-7.83 2.605-8.88 5.742l-93.49 236.605h-2.61l-92.45-236.605c-1.57-3.137-3.66-5.742-8.88-5.742h-8.35c-4.18 0-8.36 3.133-9.41 7.312z"/><path d="m1688.83 503.746-52.23 114.906h-1.57l-51.19-114.906zm-225.64-111.258 162.44 351.516c1.56 3.137 4.17 5.746 8.88 5.746h5.22c5.22 0 7.31-2.609 8.88-5.746l160.87-351.516c3.13-6.785-1.05-13.57-8.88-13.57h-45.44c-7.84 0-11.49 3.133-15.15 10.437l-25.59 56.418h-156.17l-25.59-56.418c-2.09-5.214-6.8-10.437-15.15-10.437h-45.45c-7.83 0-12.01 6.785-8.87 13.57"/><path d="m1891.54 681.836h-79.91c-5.75 0-9.92 4.703-9.92 9.922v42.832c0 5.223 4.17 9.922 9.92 9.922h228.25c5.75 0 9.93-4.699 9.93-9.922v-42.832c0-5.219-4.18-9.922-9.93-9.922h-79.92v-293.012c0-5.222-4.7-9.922-9.92-9.922h-48.57c-5.23 0-9.93 4.7-9.93 9.922z"/><path d="m2268.78 749.738c52.76 0 90.89-16.715 126.4-48.574 4.71-4.18 4.71-10.449.53-14.625l-31.87-32.906c-3.65-4.18-8.88-4.18-13.06 0-21.93 19.32-51.18 30.816-80.43 30.816-66.85 0-116.47-55.886-116.47-121.699 0-65.289 50.14-120.652 116.99-120.652 31.34 0 57.98 12.019 79.91 29.769 4.18 3.656 9.93 3.133 13.06 0l32.38-33.426c4.18-3.648 3.14-10.449-.51-14.097-35.52-34.477-80.44-50.664-126.93-50.664-104.46 0-188.55 83.039-188.55 187.504 0 104.461 84.09 188.554 188.55 188.554"/><path d="m2467.7 734.59c0 5.223 4.7 9.922 9.92 9.922h48.58c5.75 0 9.93-4.699 9.93-9.922v-138.41h170.26v138.41c0 5.223 4.18 9.922 9.93 9.922h48.05c5.23 0 9.92-4.699 9.92-9.922v-345.766c0-5.222-4.69-9.922-9.92-9.922h-48.05c-5.75 0-9.93 4.7-9.93 9.922v144.156h-170.26v-144.156c0-5.222-4.18-9.922-9.93-9.922h-48.58c-5.22 0-9.92 4.7-9.92 9.922z"/><path d="m2899.38 741.898c.53 4.18 3.66 7.84 9.41 7.84h8.36c4.18 0 7.31-2.09 8.87-5.226l114.92-246.528h1.56l114.91 246.528c1.56 3.136 4.18 5.226 8.88 5.226h8.36c5.74 0 8.87-3.66 9.39-7.84l61.64-350.984c1.56-7.312-2.62-12.012-9.4-12.012h-47.53c-4.71 0-8.88 4.18-9.93 7.832l-30.81 197.954h-1.57l-91.4-205.266c-1.05-3.137-4.18-5.742-8.88-5.742h-9.4c-4.71 0-7.32 2.605-8.88 5.742l-92.45 205.266h-1.58l-30.29-197.954c-.52-3.652-4.7-7.832-9.39-7.832h-47.02c-6.78 0-10.96 4.7-9.92 12.012z"/><path d="m3509.71 503.73-52.23 114.911h-1.57l-51.18-114.911zm-225.63-111.253 162.44 351.511c1.56 3.137 4.18 5.75 8.87 5.75h5.23c5.22 0 7.3-2.613 8.88-5.75l160.86-351.511c3.14-6.789-1.04-13.575-8.87-13.575h-45.44c-7.83 0-11.5 3.133-15.15 10.442l-25.59 56.414h-156.18l-25.59-56.414c-2.09-5.215-6.79-10.442-15.15-10.442h-45.44c-7.83 0-12.01 6.786-8.87 13.575"/><path d="m3677.85 740.332c0 5.227 4.7 9.406 9.93 9.406h13.05l217.29-230.859h.52v215.711c0 5.223 4.18 9.922 9.93 9.922h48.04c5.23 0 9.93-4.699 9.93-9.922v-351.508c0-5.227-4.7-9.402-9.93-9.402h-12.53l-218.32 239.734h-.52v-224.59c0-5.222-4.18-9.922-9.93-9.922h-47.53c-5.23 0-9.93 4.7-9.93 9.922z"/></g></g></svg>