<svg id="Artwork" xmlns="http://www.w3.org/2000/svg" viewBox="0 0 611.39 63.21"><defs><style>.cls-1{fill:#495057;}</style></defs><path class="cls-1" d="M51.48,46.37a34.85,34.85,0,0,1-4.38,9c-2.64,3.85-5.37,7.69-9.68,7.77S31.83,60.62,27,60.62s-6.36,2.43-10.36,2.59c-4.16.16-7.33-4.17-10-8C1.22,47.36-2.93,33,2.65,23.36a15.46,15.46,0,0,1,13.07-7.93c4.09-.07,7.94,2.75,10.44,2.75s7.17-3.4,12.1-2.9a14.78,14.78,0,0,1,11.56,6.27c-.3.19-6.91,4-6.83,12a13.94,13.94,0,0,0,8.49,12.79M35,10.09A13.88,13.88,0,0,0,38.32,0,14.13,14.13,0,0,0,29,4.79c-2.05,2.36-3.84,6.15-3.36,9.77C29.2,14.84,32.82,12.76,35,10.09Z"/><path class="cls-1" d="M68.85,39c0-7.81,4.41-12.73,11.3-12.73,5.59,0,9.81,3.43,10.46,8.57H86.82a6.57,6.57,0,0,0-6.67-5.22c-4.48,0-7.38,3.67-7.38,9.38s2.87,9.4,7.4,9.4c3.43,0,5.88-1.76,6.65-4.74h3.81c-.94,5.1-4.81,8.09-10.48,8.09C73.23,51.75,68.85,46.86,68.85,39Z"/><path class="cls-1" d="M109.4,46.06c-.51,3.28-3.62,5.62-7.74,5.62-5.28,0-8.48-3.57-8.48-9.25S96.43,33,101.5,33s8.1,3.52,8.1,9v1.26H96.91v.22c0,3.13,1.88,5.2,4.83,5.2a4.09,4.09,0,0,0,4.16-2.63ZM96.92,40.69h9c-.08-2.75-1.83-4.68-4.41-4.68S97.11,38,96.92,40.69Z"/><path class="cls-1" d="M112.81,33.36h3.52v3.06h.08a4.34,4.34,0,0,1,4.33-3.35,6.86,6.86,0,0,1,1.26.13v3.44a5.25,5.25,0,0,0-1.66-.21c-2.37,0-3.84,1.59-3.84,4.14V51.34h-3.69Z"/><path class="cls-1" d="M129.43,29.1v4.26h3.42v2.92h-3.42v9.91c0,1.56.68,2.26,2.19,2.26a8.21,8.21,0,0,0,1.21-.09v2.93a10.36,10.36,0,0,1-2.05.17c-3.64,0-5.06-1.39-5.06-4.86V36.28H123.1V33.36h2.62V29.1Z"/><path class="cls-1" d="M136.05,28.61a2.14,2.14,0,1,1,2.14,2.12A2.13,2.13,0,0,1,136.05,28.61Zm.29,4.75H140v18h-3.69Z"/><path class="cls-1" d="M145.23,36.28h-2.47V33.39h2.47V31.63c0-3.48,1.65-5.12,5.3-5.12a12.77,12.77,0,0,1,2.07.17v2.73a7.59,7.59,0,0,0-1.35-.1,2.09,2.09,0,0,0-2.36,2.39v1.69h3.64v2.89h-3.59V51.34h-3.71Z"/><path class="cls-1" d="M155.34,28.61a2.14,2.14,0,0,1,4.27,0,2.14,2.14,0,0,1-4.27,0Zm.29,4.75h3.69v18h-3.69Z"/><path class="cls-1" d="M179,46.06c-.52,3.28-3.63,5.62-7.75,5.62-5.28,0-8.47-3.57-8.47-9.25s3.24-9.4,8.32-9.4,8.1,3.52,8.1,9v1.26h-12.7v.22c0,3.13,1.88,5.2,4.84,5.2a4.07,4.07,0,0,0,4.15-2.63Zm-12.48-5.37h9c-.09-2.75-1.83-4.68-4.41-4.68S166.75,38,166.56,40.69Z"/><path class="cls-1" d="M181.29,42.35c0-5.68,3-9.28,7.52-9.28a6.13,6.13,0,0,1,5.64,3.28h.07V26.68h3.71V51.34h-3.59V48.28h-.07a6.22,6.22,0,0,1-5.72,3.36C184.3,51.64,181.29,48,181.29,42.35Zm3.78,0c0,3.79,1.83,6.17,4.75,6.17s4.73-2.41,4.73-6.17-1.89-6.17-4.73-6.17S185.07,38.57,185.07,42.35Z"/><path class="cls-1" d="M212.89,44.57c.34,2.44,2.67,3.91,6,3.91,3.13,0,5.36-1.6,5.36-3.81,0-1.91-1.3-3.11-4.59-3.83l-2.69-.56c-4.94-1-7.17-3.33-7.17-6.89,0-4.22,3.7-7.12,8.95-7.12s8.8,2.95,8.92,7.26h-3.71c-.24-2.48-2.27-4-5.26-4s-5,1.4-5,3.66c0,1.79,1.27,3,4.46,3.67l2.7.57c5.16,1.09,7.28,3.16,7.28,6.75,0,4.64-3.65,7.57-9.4,7.57-5.57,0-9.28-2.79-9.52-7.18Z"/><path class="cls-1" d="M246.49,51.34H243V48.29h-.08a5.63,5.63,0,0,1-5.57,3.37c-3.92,0-6.31-2.54-6.31-6.66V33.36h3.69V44.28c0,2.73,1.3,4.2,3.85,4.2s4.27-1.84,4.27-4.65V33.36h3.69Z"/><path class="cls-1" d="M267.42,42.35c0,5.69-3,9.29-7.51,9.29a6.11,6.11,0,0,1-5.65-3.26h-.09v8.9h-3.69V33.36h3.57v3.09h.07a6.22,6.22,0,0,1,5.72-3.38C264.41,33.07,267.42,36.66,267.42,42.35Zm-3.8,0c0-3.76-1.83-6.17-4.75-6.17s-4.72,2.46-4.72,6.17,1.88,6.17,4.72,6.17S263.62,46.12,263.62,42.35Z"/><path class="cls-1" d="M287.54,42.35c0,5.69-3,9.29-7.5,9.29a6.13,6.13,0,0,1-5.66-3.26h-.09v8.9H270.6V33.36h3.57v3.09h.07A6.23,6.23,0,0,1,280,33.07C284.53,33.07,287.54,36.66,287.54,42.35Zm-3.8,0c0-3.76-1.82-6.17-4.75-6.17s-4.71,2.46-4.71,6.17,1.88,6.17,4.71,6.17S283.74,46.12,283.74,42.35Z"/><path class="cls-1" d="M289.57,42.35c0-5.78,3.4-9.32,8.53-9.32s8.53,3.54,8.53,9.32-3.39,9.33-8.53,9.33S289.57,48.14,289.57,42.35Zm13.3,0c0-4-1.88-6.27-4.77-6.27s-4.77,2.29-4.77,6.27,1.88,6.29,4.77,6.29S302.87,46.35,302.87,42.35Z"/><path class="cls-1" d="M309.48,33.36H313v3.06h.09a4.33,4.33,0,0,1,4.32-3.35,7.09,7.09,0,0,1,1.27.13v3.44a5.25,5.25,0,0,0-1.66-.21c-2.38,0-3.85,1.59-3.85,4.14V51.34h-3.69Z"/><path class="cls-1" d="M326.1,29.1v4.26h3.42v2.92H326.1v9.91c0,1.56.69,2.26,2.19,2.26a8.21,8.21,0,0,0,1.21-.09v2.93a10.36,10.36,0,0,1-2.05.17c-3.64,0-5.06-1.39-5.06-4.86V36.28h-2.61V33.36h2.61V29.1Z"/><path class="cls-1" d="M350,26.68a7.73,7.73,0,0,1,8.11,8.1,7.82,7.82,0,0,1-8.23,8.13h-5.3v8.43h-3.83V26.68Zm-5.42,13H349c3.33,0,5.23-1.8,5.23-4.91s-1.9-4.88-5.21-4.88h-4.41Z"/><path class="cls-1" d="M360.52,33.36h3.53v3.06h.08a4.33,4.33,0,0,1,4.32-3.35,7,7,0,0,1,1.27.13v3.44a5.25,5.25,0,0,0-1.66-.21c-2.37,0-3.84,1.59-3.84,4.14V51.34h-3.7Z"/><path class="cls-1" d="M371.17,42.35c0-5.78,3.4-9.32,8.53-9.32s8.53,3.54,8.53,9.32-3.39,9.33-8.53,9.33S371.17,48.14,371.17,42.35Zm13.3,0c0-4-1.88-6.27-4.77-6.27s-4.77,2.29-4.77,6.27,1.88,6.29,4.77,6.29S384.47,46.35,384.47,42.35Z"/><path class="cls-1" d="M392.19,36.28h-2.48V33.39h2.48V31.63c0-3.48,1.64-5.12,5.3-5.12a12.77,12.77,0,0,1,2.07.17v2.73a7.67,7.67,0,0,0-1.35-.1,2.09,2.09,0,0,0-2.36,2.39v1.69h3.64v2.89H395.9V51.34h-3.71Z"/><path class="cls-1" d="M417.32,46.06c-.51,3.28-3.62,5.62-7.74,5.62-5.28,0-8.48-3.57-8.48-9.25s3.25-9.4,8.32-9.4,8.1,3.52,8.1,9v1.26H404.83v.22c0,3.13,1.88,5.2,4.83,5.2a4.08,4.08,0,0,0,4.16-2.63Zm-12.48-5.37h9C413.75,37.94,412,36,409.42,36S405,38,404.84,40.69Z"/><path class="cls-1" d="M427.31,33c4.18,0,6.9,2.33,7,5.64h-3.47c-.2-1.74-1.48-2.83-3.55-2.83s-3.33,1-3.33,2.41c0,1.12.82,1.89,2.76,2.34l2.93.66c3.67.86,5.07,2.29,5.07,4.89,0,3.28-3.06,5.54-7.3,5.54-4.49,0-7.19-2.21-7.53-5.62h3.66c.34,1.88,1.62,2.8,3.87,2.8s3.59-.92,3.59-2.39c0-1.17-.66-1.85-2.63-2.29l-2.92-.69c-3.42-.78-5.11-2.42-5.11-5C420.37,35.24,423.17,33,427.31,33Z"/><path class="cls-1" d="M444.59,33c4.19,0,6.91,2.33,7,5.64h-3.47c-.21-1.74-1.49-2.83-3.56-2.83s-3.33,1-3.33,2.41c0,1.12.82,1.89,2.77,2.34l2.92.66c3.68.86,5.08,2.29,5.08,4.89,0,3.28-3.06,5.54-7.3,5.54-4.49,0-7.19-2.21-7.54-5.62h3.66c.34,1.88,1.63,2.8,3.88,2.8s3.59-.92,3.59-2.39c0-1.17-.67-1.85-2.63-2.29l-2.92-.69c-3.42-.78-5.11-2.42-5.11-5C437.66,35.24,440.46,33,444.59,33Z"/><path class="cls-1" d="M455.06,28.61a2.14,2.14,0,1,1,2.14,2.12A2.13,2.13,0,0,1,455.06,28.61Zm.29,4.75H459v18h-3.69Z"/><path class="cls-1" d="M462.05,42.35c0-5.78,3.4-9.32,8.53-9.32s8.53,3.54,8.53,9.32-3.39,9.33-8.53,9.33S462.05,48.14,462.05,42.35Zm13.3,0c0-4-1.88-6.27-4.77-6.27s-4.77,2.29-4.77,6.27,1.88,6.29,4.77,6.29S475.35,46.35,475.35,42.35Z"/><path class="cls-1" d="M482,33.36h3.52v3h.09a5.84,5.84,0,0,1,5.66-3.32c4,0,6.23,2.53,6.23,6.65V51.34h-3.71V40.42c0-2.7-1.26-4.19-3.82-4.19s-4.28,1.84-4.28,4.63V51.34H482Z"/><path class="cls-1" d="M500.65,46.23c0-3.15,2.41-5.08,6.68-5.32l4.92-.29V39.24c0-2-1.35-3.2-3.6-3.2s-3.47,1-3.8,2.63h-3.48c.2-3.24,3-5.64,7.41-5.64s7.15,2.31,7.15,5.92V51.34h-3.54v-3h-.09a6.41,6.41,0,0,1-5.67,3.26C503.11,51.64,500.65,49.46,500.65,46.23Zm11.6-1.63V43.18l-4.42.28c-2.21.15-3.46,1.13-3.46,2.66s1.3,2.6,3.28,2.6A4.31,4.31,0,0,0,512.25,44.6Z"/><path class="cls-1" d="M520,26.68h3.69V51.34H520Z"/><path class="cls-1" d="M541.59,30.47h-.09l-6.44,4.44V31.29l6.49-4.61h3.78V51.34h-3.74Z"/><path class="cls-1" d="M550.31,39c0-7.81,3.55-12.77,9.45-12.77s9.41,4.94,9.41,12.75-3.48,12.84-9.41,12.84S550.31,46.84,550.31,39Zm15,0c0-5.9-2-9.55-5.55-9.55s-5.57,3.67-5.57,9.55,2,9.61,5.57,9.61S565.31,45,565.31,39Z"/><path class="cls-1" d="M571.62,49.29a2.24,2.24,0,1,1,2.24,2.23A2.22,2.22,0,0,1,571.62,49.29Z"/><path class="cls-1" d="M584.33,30.47h-.08l-6.45,4.44V31.29l6.5-4.61h3.77V51.34h-3.74Z"/><path class="cls-1" d="M593.6,44.48h3.65c.28,2.45,2.36,4.12,5.11,4.12a5.23,5.23,0,1,0,0-10.46,5.47,5.47,0,0,0-5,2.75H594l1.22-14.21H610v3.23h-11.6l-.75,7.81h.08a6.51,6.51,0,0,1,5.59-2.6,7.85,7.85,0,0,1,8.12,8.13c0,5-3.73,8.55-9.06,8.55C597.41,51.8,593.82,48.79,593.6,44.48Z"/></svg>