<?xml version="1.0" encoding="utf-8"?>
<!-- Generator: Adobe Illustrator 25.4.1, SVG Export Plug-In . SVG Version: 6.00 Build 0)  -->
<svg version="1.1" id="Artwork" xmlns="http://www.w3.org/2000/svg" xmlns:xlink="http://www.w3.org/1999/xlink" x="0px" y="0px"
	 viewBox="0 0 560.71 63.21" style="enable-background:new 0 0 560.71 63.21;" xml:space="preserve">
<g>
	<g id="XMLID_7_">
		<g id="XMLID_8_" fill="#495057">
			<path id="XMLID_9_" d="M51.48,46.37c-0.08,0.22-1.33,4.54-4.38,8.99c-2.63,3.85-5.37,7.69-9.68,7.77
				c-4.23,0.08-5.59-2.51-10.43-2.51c-4.84,0-6.36,2.43-10.36,2.59c-4.16,0.16-7.33-4.16-9.98-8c-5.43-7.85-9.57-22.18-4-31.85
				c2.76-4.81,7.71-7.85,13.08-7.93c4.09-0.08,7.94,2.74,10.43,2.74c2.5,0,7.18-3.39,12.1-2.9c2.06,0.09,7.84,0.83,11.56,6.27
				c-0.3,0.19-6.91,4.03-6.83,12.03C43.07,43.15,51.38,46.33,51.48,46.37 M35.03,10.09C37.24,7.42,38.73,3.7,38.32,0
				c-3.18,0.12-7.03,2.12-9.31,4.79c-2.05,2.37-3.84,6.15-3.35,9.77C29.2,14.84,32.82,12.76,35.03,10.09z"/>
		</g>
	</g>
	<g fill="#495057">
		<path d="M68.85,39c0-7.81,4.41-12.73,11.3-12.73c5.59,0,9.81,3.44,10.46,8.58h-3.79c-0.68-3.16-3.32-5.23-6.67-5.23
			c-4.48,0-7.38,3.67-7.38,9.38c0,5.76,2.87,9.4,7.4,9.4c3.44,0,5.88-1.76,6.65-4.73h3.81c-0.94,5.09-4.8,8.08-10.48,8.08
			C73.23,51.75,68.85,46.86,68.85,39z"/>
		<path d="M109.4,46.06c-0.51,3.28-3.62,5.62-7.74,5.62c-5.28,0-8.48-3.57-8.48-9.25c0-5.64,3.25-9.4,8.32-9.4
			c4.99,0,8.1,3.52,8.1,8.97v1.26h-12.7v0.22c0,3.13,1.88,5.2,4.84,5.2c2.1,0,3.66-1.06,4.15-2.63H109.4z M96.92,40.69h8.99
			c-0.09-2.75-1.83-4.68-4.41-4.68C98.92,36.01,97.11,37.97,96.92,40.69z"/>
		<path d="M112.81,33.36h3.52v3.06h0.08c0.6-2.1,2.2-3.35,4.32-3.35c0.53,0,0.99,0.09,1.27,0.14v3.44
			c-0.29-0.12-0.94-0.21-1.66-0.21c-2.38,0-3.85,1.59-3.85,4.14v10.77h-3.69V33.36z"/>
		<path d="M129.43,29.1v4.26h3.42v2.92h-3.42v9.91c0,1.56,0.68,2.26,2.19,2.26c0.38,0,0.97-0.03,1.21-0.09v2.92
			c-0.41,0.1-1.23,0.17-2.05,0.17c-3.64,0-5.06-1.38-5.06-4.85V36.28h-2.62v-2.92h2.62V29.1H129.43z"/>
		<path d="M136.05,28.61c0-1.18,0.96-2.12,2.14-2.12s2.14,0.94,2.14,2.12c0,1.16-0.96,2.12-2.14,2.12S136.05,29.77,136.05,28.61z
			 M136.34,33.36h3.69v17.98h-3.69V33.36z"/>
		<path d="M145.23,36.28h-2.48v-2.89h2.48v-1.76c0-3.49,1.64-5.13,5.3-5.13c0.75,0,1.59,0.09,2.07,0.17v2.73
			c-0.36-0.07-0.85-0.1-1.35-0.1c-1.61,0-2.36,0.8-2.36,2.39v1.69h3.64v2.89h-3.59v15.06h-3.71V36.28z"/>
		<path d="M155.34,28.61c0-1.18,0.96-2.12,2.14-2.12s2.14,0.94,2.14,2.12c0,1.16-0.96,2.12-2.14,2.12S155.34,29.77,155.34,28.61z
			 M155.63,33.36h3.69v17.98h-3.69V33.36z"/>
		<path d="M179.04,46.06c-0.51,3.28-3.62,5.62-7.74,5.62c-5.28,0-8.48-3.57-8.48-9.25c0-5.64,3.25-9.4,8.32-9.4
			c4.99,0,8.1,3.52,8.1,8.97v1.26h-12.7v0.22c0,3.13,1.88,5.2,4.84,5.2c2.1,0,3.66-1.06,4.15-2.63H179.04z M166.56,40.69h8.99
			c-0.09-2.75-1.83-4.68-4.41-4.68C168.56,36.01,166.75,37.97,166.56,40.69z"/>
		<path d="M181.29,42.35c0-5.67,3.01-9.28,7.52-9.28c2.58,0,4.63,1.3,5.64,3.28h0.07v-9.67h3.71v24.66h-3.59v-3.06h-0.07
			c-1.06,2.05-3.11,3.37-5.73,3.37C184.3,51.64,181.29,48.02,181.29,42.35z M185.07,42.35c0,3.79,1.83,6.17,4.75,6.17
			c2.84,0,4.73-2.41,4.73-6.17c0-3.73-1.9-6.17-4.73-6.17C186.9,36.18,185.07,38.57,185.07,42.35z"/>
		<path d="M212.89,44.57c0.34,2.44,2.67,3.91,5.95,3.91c3.13,0,5.37-1.61,5.37-3.81c0-1.91-1.3-3.11-4.6-3.83l-2.68-0.56
			c-4.94-1.04-7.18-3.33-7.18-6.89c0-4.22,3.71-7.13,8.96-7.13c5.23,0,8.8,2.96,8.92,7.26h-3.71c-0.24-2.48-2.27-4-5.26-4
			c-2.89,0-5.01,1.4-5.01,3.66c0,1.79,1.26,2.99,4.46,3.67l2.7,0.56c5.16,1.09,7.28,3.16,7.28,6.75c0,4.65-3.66,7.57-9.4,7.57
			c-5.57,0-9.28-2.79-9.52-7.18H212.89z"/>
		<path d="M246.49,51.34h-3.54v-3.04h-0.09c-0.99,2.15-2.82,3.37-5.57,3.37c-3.91,0-6.31-2.55-6.31-6.67V33.36h3.69v10.92
			c0,2.73,1.3,4.2,3.85,4.2c2.67,0,4.27-1.85,4.27-4.65V33.36h3.69V51.34z"/>
		<path d="M267.42,42.35c0,5.69-2.99,9.3-7.5,9.3c-2.58,0-4.63-1.26-5.66-3.26h-0.09v8.9h-3.69V33.36h3.57v3.09h0.07
			c1.06-2.07,3.13-3.38,5.72-3.38C264.41,33.07,267.42,36.66,267.42,42.35z M263.62,42.35c0-3.76-1.83-6.17-4.75-6.17
			c-2.82,0-4.72,2.46-4.72,6.17c0,3.74,1.88,6.17,4.72,6.17C261.79,48.52,263.62,46.12,263.62,42.35z"/>
		<path d="M287.54,42.35c0,5.69-2.99,9.3-7.5,9.3c-2.58,0-4.63-1.26-5.66-3.26h-0.09v8.9h-3.69V33.36h3.57v3.09h0.07
			c1.06-2.07,3.13-3.38,5.72-3.38C284.53,33.07,287.54,36.66,287.54,42.35z M283.74,42.35c0-3.76-1.83-6.17-4.75-6.17
			c-2.82,0-4.72,2.46-4.72,6.17c0,3.74,1.88,6.17,4.72,6.17C281.92,48.52,283.74,46.12,283.74,42.35z"/>
		<path d="M289.57,42.35c0-5.78,3.4-9.31,8.53-9.31s8.53,3.54,8.53,9.31c0,5.79-3.38,9.33-8.53,9.33
			C292.96,51.68,289.57,48.14,289.57,42.35z M302.87,42.35c0-3.98-1.88-6.27-4.77-6.27c-2.89,0-4.77,2.29-4.77,6.27
			c0,4,1.88,6.29,4.77,6.29C301,48.64,302.87,46.35,302.87,42.35z"/>
		<path d="M309.48,33.36H313v3.06h0.08c0.6-2.1,2.2-3.35,4.32-3.35c0.53,0,0.99,0.09,1.27,0.14v3.44c-0.29-0.12-0.94-0.21-1.66-0.21
			c-2.38,0-3.85,1.59-3.85,4.14v10.77h-3.69V33.36z"/>
		<path d="M326.1,29.1v4.26h3.42v2.92h-3.42v9.91c0,1.56,0.68,2.26,2.19,2.26c0.38,0,0.97-0.03,1.21-0.09v2.92
			c-0.41,0.1-1.23,0.17-2.05,0.17c-3.64,0-5.06-1.38-5.06-4.85V36.28h-2.62v-2.92h2.62V29.1H326.1z"/>
		<path d="M350.03,26.68c4.79,0,8.12,3.3,8.12,8.1c0,4.82-3.4,8.13-8.24,8.13h-5.3v8.43h-3.83V26.68H350.03z M344.61,39.7H349
			c3.33,0,5.23-1.79,5.23-4.9s-1.9-4.89-5.21-4.89h-4.41V39.7z"/>
		<path d="M360.52,33.36h3.52v3.06h0.08c0.6-2.1,2.2-3.35,4.32-3.35c0.53,0,0.99,0.09,1.27,0.14v3.44
			c-0.29-0.12-0.94-0.21-1.66-0.21c-2.38,0-3.85,1.59-3.85,4.14v10.77h-3.69V33.36z"/>
		<path d="M371.17,42.35c0-5.78,3.4-9.31,8.53-9.31s8.53,3.54,8.53,9.31c0,5.79-3.38,9.33-8.53,9.33
			C374.55,51.68,371.17,48.14,371.17,42.35z M384.47,42.35c0-3.98-1.88-6.27-4.77-6.27c-2.89,0-4.77,2.29-4.77,6.27
			c0,4,1.88,6.29,4.77,6.29C382.6,48.64,384.47,46.35,384.47,42.35z"/>
		<path d="M392.19,36.28h-2.48v-2.89h2.48v-1.76c0-3.49,1.64-5.13,5.3-5.13c0.75,0,1.59,0.09,2.07,0.17v2.73
			c-0.36-0.07-0.85-0.1-1.35-0.1c-1.61,0-2.36,0.8-2.36,2.39v1.69h3.64v2.89h-3.59v15.06h-3.71V36.28z"/>
		<path d="M417.32,46.06c-0.51,3.28-3.62,5.62-7.74,5.62c-5.28,0-8.48-3.57-8.48-9.25c0-5.64,3.25-9.4,8.32-9.4
			c4.99,0,8.1,3.52,8.1,8.97v1.26h-12.7v0.22c0,3.13,1.88,5.2,4.84,5.2c2.1,0,3.66-1.06,4.15-2.63H417.32z M404.84,40.69h8.99
			c-0.08-2.75-1.83-4.68-4.41-4.68C406.84,36.01,405.03,37.97,404.84,40.69z"/>
		<path d="M427.31,33.03c4.19,0,6.9,2.32,7.02,5.64h-3.47c-0.21-1.74-1.49-2.84-3.55-2.84c-2,0-3.33,0.97-3.33,2.41
			c0,1.13,0.82,1.9,2.77,2.34l2.92,0.67c3.67,0.85,5.08,2.29,5.08,4.89c0,3.28-3.06,5.54-7.3,5.54c-4.49,0-7.2-2.2-7.54-5.62h3.66
			c0.34,1.88,1.62,2.8,3.88,2.8c2.22,0,3.59-0.92,3.59-2.39c0-1.16-0.67-1.85-2.63-2.29l-2.92-0.68c-3.42-0.79-5.11-2.43-5.11-5.04
			C420.37,35.24,423.17,33.03,427.31,33.03z"/>
		<path d="M444.59,33.03c4.19,0,6.9,2.32,7.02,5.64h-3.47c-0.21-1.74-1.49-2.84-3.55-2.84c-2,0-3.33,0.97-3.33,2.41
			c0,1.13,0.82,1.9,2.77,2.34l2.92,0.67c3.67,0.85,5.08,2.29,5.08,4.89c0,3.28-3.06,5.54-7.3,5.54c-4.49,0-7.2-2.2-7.54-5.62h3.66
			c0.34,1.88,1.62,2.8,3.88,2.8c2.22,0,3.59-0.92,3.59-2.39c0-1.16-0.67-1.85-2.63-2.29l-2.92-0.68c-3.42-0.79-5.11-2.43-5.11-5.04
			C437.66,35.24,440.46,33.03,444.59,33.03z"/>
		<path d="M455.06,28.61c0-1.18,0.96-2.12,2.14-2.12s2.14,0.94,2.14,2.12c0,1.16-0.96,2.12-2.14,2.12S455.06,29.77,455.06,28.61z
			 M455.35,33.36h3.69v17.98h-3.69V33.36z"/>
		<path d="M462.05,42.35c0-5.78,3.4-9.31,8.53-9.31s8.53,3.54,8.53,9.31c0,5.79-3.38,9.33-8.53,9.33
			C465.44,51.68,462.05,48.14,462.05,42.35z M475.35,42.35c0-3.98-1.88-6.27-4.77-6.27c-2.89,0-4.77,2.29-4.77,6.27
			c0,4,1.88,6.29,4.77,6.29C473.48,48.64,475.35,46.35,475.35,42.35z"/>
		<path d="M481.96,33.36h3.52v3.01h0.08c0.97-2.05,2.89-3.32,5.66-3.32c3.96,0,6.24,2.53,6.24,6.65v11.64h-3.71V40.42
			c0-2.7-1.27-4.19-3.83-4.19c-2.6,0-4.27,1.85-4.27,4.63v10.48h-3.69V33.36z"/>
		<path d="M500.65,46.23c0-3.14,2.41-5.08,6.68-5.31l4.92-0.29v-1.38c0-2-1.35-3.2-3.61-3.2c-2.14,0-3.47,1.03-3.79,2.63h-3.49
			c0.21-3.25,2.97-5.64,7.42-5.64c4.36,0,7.14,2.31,7.14,5.91v12.39h-3.54v-2.96h-0.09c-1.04,2-3.31,3.26-5.67,3.26
			C503.11,51.64,500.65,49.46,500.65,46.23z M512.25,44.6v-1.42l-4.43,0.27c-2.21,0.15-3.45,1.13-3.45,2.67c0,1.57,1.3,2.6,3.28,2.6
			C510.24,48.72,512.25,46.94,512.25,44.6z"/>
		<path d="M519.95,26.68h3.69v24.66h-3.69V26.68z"/>
		<path d="M541.59,30.47h-0.08l-6.44,4.44v-3.62l6.49-4.61h3.78v24.66h-3.74V30.47z"/>
		<path d="M556.97,30.47h-0.09l-6.44,4.44v-3.62l6.49-4.61h3.78v24.66h-3.74V30.47z"/>
	</g>
</g>
</svg>
