<svg viewBox="0 0 258.46 63.85" xmlns="http://www.w3.org/2000/svg"><g fill="#1c1c1a"><path d="m67.52 23.84c0-5.48 3.09-8.93 7.92-8.93 3.92 0 6.88 2.41 7.34 6h-2.66a4.61 4.61 0 0 0 -4.68-3.67c-3.14 0-5.18 2.58-5.18 6.58s2 6.59 5.2 6.59a4.43 4.43 0 0 0 4.66-3.32h2.67c-.66 3.57-3.37 5.67-7.35 5.67-4.85.02-7.92-3.41-7.92-8.92z"/><path d="m96 28.79c-.36 2.3-2.54 3.94-5.43 3.94-3.7 0-6-2.5-6-6.48s2.28-6.59 5.84-6.59 5.69 2.47 5.69 6.34v.89h-8.9v.11c0 2.2 1.32 3.65 3.39 3.65a2.87 2.87 0 0 0 2.91-1.85zm-8.79-3.79h6.31a3.11 3.11 0 0 0 -3.1-3.29 3.25 3.25 0 0 0 -3.21 3.29z"/><path d="m98.35 19.88h2.47v2.12h.06a3 3 0 0 1 3-2.35 4.29 4.29 0 0 1 .89.1v2.41a3.48 3.48 0 0 0 -1.16-.15 2.6 2.6 0 0 0 -2.7 2.9v7.59h-2.56z"/><path d="m110 16.9v3h2.4v2.05h-2.4v7c0 1.09.48 1.58 1.54 1.58a5.21 5.21 0 0 0 .85-.06v2.05a7.35 7.35 0 0 1 -1.44.12c-2.56 0-3.55-1-3.55-3.41v-7.3h-1.84v-2.05h1.84v-3z"/><path d="m114.66 16.55a1.5 1.5 0 1 1 1.49 1.45 1.49 1.49 0 0 1 -1.49-1.45zm.2 3.33h2.59v12.62h-2.59z"/><path d="m121.1 21.93h-1.74v-2h1.74v-1.26c0-2.44 1.15-3.59 3.71-3.59a9.17 9.17 0 0 1 1.45.12v1.91a6.23 6.23 0 0 0 -.94-.07 1.47 1.47 0 0 0 -1.66 1.68v1.19h2.56v2h-2.52v10.59h-2.6z"/><path d="m128.18 16.55a1.5 1.5 0 1 1 1.5 1.49 1.5 1.5 0 0 1 -1.5-1.49zm.21 3.33h2.61v12.62h-2.59z"/><path d="m144.81 28.79c-.36 2.3-2.54 3.94-5.43 3.94-3.71 0-5.95-2.5-5.95-6.48s2.28-6.59 5.84-6.59 5.73 2.47 5.73 6.34v.89h-8.9v.11c0 2.2 1.31 3.65 3.39 3.65a2.87 2.87 0 0 0 2.91-1.85zm-8.75-3.79h6.3a3.1 3.1 0 0 0 -3.09-3.29 3.25 3.25 0 0 0 -3.21 3.29z"/><path d="m146.39 26.19c0-4 2.11-6.51 5.28-6.51a4.29 4.29 0 0 1 4 2.3v-6.78h2.6v17.3h-2.52v-2.15a4.38 4.38 0 0 1 -4 2.36c-3.25 0-5.36-2.54-5.36-6.52zm2.65 0c0 2.66 1.28 4.33 3.33 4.33s3.32-1.69 3.32-4.33-1.33-4.33-3.32-4.33-3.37 1.68-3.37 4.33z"/><path d="m168.56 27.75c.24 1.71 1.87 2.74 4.17 2.74s3.76-1.12 3.76-2.67c0-1.34-.91-2.18-3.22-2.69l-1.88-.39c-3.47-.73-5-2.34-5-4.83 0-3 2.6-5 6.28-5s6.14 2.09 6.22 5.09h-2.6c-.17-1.73-1.6-2.8-3.69-2.8s-3.52 1-3.52 2.56c0 1.26.89 2.1 3.13 2.58l1.9.4c3.62.76 5.1 2.21 5.1 4.73 0 3.26-2.56 5.31-6.59 5.31s-6.51-2-6.68-5z"/><path d="m192.12 32.5h-2.48v-2.14h-.06a3.94 3.94 0 0 1 -3.9 2.36c-2.75 0-4.43-1.78-4.43-4.67v-8.17h2.59v7.66c0 1.92.91 2.95 2.7 2.95s3-1.29 3-3.26v-7.35h2.58z"/><path d="m206.8 26.19c0 4-2.09 6.52-5.26 6.52a4.31 4.31 0 0 1 -4-2.29h-.06v6.25h-2.59v-16.79h2.51v2.17a4.36 4.36 0 0 1 4-2.37c3.29 0 5.4 2.52 5.4 6.51zm-2.66 0c0-2.64-1.28-4.33-3.33-4.33s-3.31 1.73-3.31 4.33 1.32 4.33 3.31 4.33 3.33-1.68 3.33-4.33z"/><path d="m220.92 26.19c0 4-2.1 6.52-5.26 6.52a4.31 4.31 0 0 1 -4-2.29h-.06v6.25h-2.6v-16.79h2.51v2.17a4.38 4.38 0 0 1 4-2.37c3.3 0 5.41 2.52 5.41 6.51zm-2.66 0c0-2.64-1.28-4.33-3.33-4.33s-3.31 1.73-3.31 4.33 1.32 4.33 3.31 4.33 3.33-1.68 3.33-4.33z"/><path d="m222.35 26.19c0-4.05 2.38-6.53 6-6.53s6 2.48 6 6.53-2.37 6.54-6 6.54-6-2.48-6-6.54zm9.32 0c0-2.79-1.32-4.4-3.34-4.4s-3.33 1.61-3.33 4.4 1.32 4.41 3.35 4.41 3.32-1.6 3.32-4.41z"/><path d="m236.31 19.88h2.47v2.12h.06a3 3 0 0 1 3-2.35 4.29 4.29 0 0 1 .89.1v2.41a3.48 3.48 0 0 0 -1.13-.16 2.6 2.6 0 0 0 -2.7 2.9v7.6h-2.59z"/><path d="m248 16.9v3h2.4v2.05h-2.4v7c0 1.09.48 1.58 1.54 1.58a5.21 5.21 0 0 0 .85-.06v2.05a7.35 7.35 0 0 1 -1.44.12c-2.56 0-3.55-1-3.55-3.41v-7.3h-1.84v-2.05h1.84v-3z"/><path d="m75.13 46.23a5.43 5.43 0 0 1 5.69 5.68 5.49 5.49 0 0 1 -5.82 5.71h-3.67v5.91h-2.69v-17.3zm-3.8 9.14h3.08c2.33 0 3.67-1.26 3.67-3.44s-1.34-3.43-3.66-3.43h-3.09z"/><path d="m82.49 50.92h2.51v2.14a3 3 0 0 1 3-2.34 4.43 4.43 0 0 1 .89.09v2.41a3.83 3.83 0 0 0 -1.16-.14 2.6 2.6 0 0 0 -2.7 2.9v7.55h-2.54z"/><path d="m90 57.22c0-4 2.38-6.53 6-6.53s6 2.48 6 6.53-2.37 6.55-6 6.55-6-2.48-6-6.55zm9.33 0c0-2.79-1.32-4.4-3.35-4.4s-3.34 1.61-3.34 4.4 1.32 4.42 3.34 4.42 3.31-1.64 3.31-4.42z"/><path d="m104.7 53h-1.7v-2h1.73v-1.29c0-2.45 1.16-3.6 3.72-3.6a9.17 9.17 0 0 1 1.45.12v1.92a5.27 5.27 0 0 0 -1-.07 1.46 1.46 0 0 0 -1.65 1.68v1.18h2.55v2h-2.51v10.59h-2.59z"/><path d="m122.33 59.83c-.36 2.3-2.54 3.94-5.43 3.94-3.7 0-6-2.51-6-6.49s2.28-6.59 5.84-6.59 5.68 2.47 5.68 6.29v.89h-8.9v.13a3.3 3.3 0 0 0 3.48 3.67 2.85 2.85 0 0 0 2.91-1.84zm-8.75-3.77h6.31a3.1 3.1 0 0 0 -3.1-3.28 3.25 3.25 0 0 0 -3.21 3.28z"/><path d="m129.34 50.69c2.93 0 4.84 1.63 4.92 4h-2.43a2.23 2.23 0 0 0 -2.49-2c-1.41 0-2.34.68-2.34 1.69 0 .79.58 1.33 1.94 1.64l2.05.47c2.58.6 3.56 1.6 3.56 3.43 0 2.3-2.14 3.88-5.12 3.88-3.15 0-5-1.55-5.28-3.94h2.56c.24 1.31 1.14 2 2.72 2s2.52-.65 2.52-1.68c0-.81-.47-1.29-1.85-1.6l-2-.48c-2.39-.55-3.58-1.7-3.58-3.54-.05-2.32 1.92-3.87 4.82-3.87z"/><path d="m141.46 50.69c2.94 0 4.85 1.63 4.93 4h-2.39a2.25 2.25 0 0 0 -2.5-2c-1.4 0-2.33.68-2.33 1.69 0 .79.57 1.33 1.94 1.64l2.05.47c2.58.6 3.56 1.6 3.56 3.43 0 2.3-2.15 3.88-5.12 3.88-3.15 0-5.05-1.55-5.29-3.94h2.57c.24 1.31 1.14 2 2.72 2s2.52-.65 2.52-1.68c0-.81-.47-1.29-1.85-1.6l-2-.48c-2.4-.55-3.58-1.7-3.58-3.54-.09-2.32 1.87-3.87 4.77-3.87z"/><path d="m148.81 47.59a1.5 1.5 0 1 1 1.49 1.48 1.49 1.49 0 0 1 -1.49-1.48zm.2 3.33h2.59v12.61h-2.6z"/><path d="m153.71 57.22c0-4 2.39-6.53 6-6.53s6 2.48 6 6.53-2.37 6.55-6 6.55-6-2.48-6-6.55zm9.33 0c0-2.79-1.32-4.4-3.35-4.4s-3.34 1.61-3.34 4.4 1.32 4.42 3.34 4.42 3.31-1.64 3.31-4.42z"/><path d="m167.68 50.92h2.47v2.08h.06a4.08 4.08 0 0 1 4-2.33c2.78 0 4.38 1.78 4.38 4.67v8.16h-2.59v-7.63c0-1.89-.89-2.94-2.69-2.94a3 3 0 0 0 -3 3.25v7.35h-2.58z"/><path d="m180.78 60c0-2.21 1.69-3.56 4.69-3.73l3.45-.21v-1.06c0-1.4-.94-2.24-2.53-2.24a2.42 2.42 0 0 0 -2.66 1.85h-2.44c.14-2.28 2.08-4 5.2-4s5 1.62 5 4.15v8.69h-2.49v-1.99a4.52 4.52 0 0 1 -4 2.29c-2.49 0-4.22-1.54-4.22-3.75zm8.14-1.14v-1l-3.1.19c-1.55.11-2.42.79-2.42 1.87s.91 1.83 2.3 1.83a3 3 0 0 0 3.22-2.94z"/><path d="m194.32 46.23h2.59v17.3h-2.59z"/><path d="m209.5 48.89h-.06l-4.52 3.11v-2.53l4.56-3.24h2.65v17.3h-2.63z"/><path d="m215.62 54.86c0-5.48 2.49-9 6.63-9s6.6 3.46 6.6 8.94-2.44 9-6.6 9-6.63-3.42-6.63-8.94zm10.52 0c0-4.13-1.42-6.7-3.89-6.7s-3.91 2.58-3.91 6.7 1.4 6.74 3.91 6.74 3.89-2.54 3.89-6.74z"/><path d="m230.57 62.09a1.57 1.57 0 1 1 1.57 1.57 1.56 1.56 0 0 1 -1.57-1.57z"/><path d="m239.48 48.89h-.06l-4.51 3.11v-2.53l4.55-3.24h2.65v17.3h-2.63z"/><path d="m246 58.72h2.57a3.35 3.35 0 0 0 3.58 2.89 3.67 3.67 0 1 0 0-7.33 3.81 3.81 0 0 0 -3.51 1.93h-2.34l.85-10h10.31v2.29h-8.14l-.53 5.5h.06a4.56 4.56 0 0 1 3.92-1.83 5.5 5.5 0 0 1 5.69 5.71c0 3.54-2.61 6-6.35 6-3.45-.03-5.97-2.14-6.11-5.16z"/></g><path d="m51.43 46.33a35.2 35.2 0 0 1 -4.37 9c-2.63 3.85-5.37 7.69-9.67 7.77s-5.59-2.53-10.39-2.53-6.39 2.43-10.38 2.59c-4.16.15-7.33-4.17-10-8-5.4-7.84-9.54-22.16-3.98-31.82a15.47 15.47 0 0 1 13.07-7.92c4.08-.08 7.93 2.74 10.42 2.74s7.17-3.39 12.09-2.89a14.76 14.76 0 0 1 11.55 6.26c-.29.19-6.89 4-6.82 12a13.93 13.93 0 0 0 8.48 12.8zm-16.43-36.25a13.9 13.9 0 0 0 3.29-10.08 14.13 14.13 0 0 0 -9.29 4.79c-2 2.36-3.83 6.14-3.35 9.76 3.52.28 7.15-1.8 9.35-4.47z" fill="#020101"/></svg>