<?xml version="1.0" encoding="utf-8"?>
<!-- Generator: Adobe Illustrator 25.4.1, SVG Export Plug-In . SVG Version: 6.00 Build 0)  -->
<svg version="1.1" id="Layer_1" xmlns="http://www.w3.org/2000/svg" xmlns:xlink="http://www.w3.org/1999/xlink" x="0px" y="0px"
	 viewBox="0 0 612.33 63.21" style="enable-background:new 0 0 612.33 63.21;" xml:space="preserve">
<style type="text/css">
	.st0{fill:#495057;}
</style>
<g id="XMLID_128_">
	<g id="XMLID_130_" fill="#495057">
		<path id="XMLID_131_" class="st0" d="M51.48,46.37c-0.08,0.22-1.33,4.54-4.38,8.99c-2.63,3.85-5.37,7.69-9.68,7.77
			c-4.23,0.08-5.59-2.51-10.43-2.51c-4.84,0-6.36,2.43-10.36,2.59c-4.16,0.16-7.33-4.16-9.98-8c-5.43-7.85-9.57-22.18-4-31.85
			c2.76-4.81,7.71-7.85,13.08-7.93c4.09-0.08,7.94,2.74,10.43,2.74c2.5,0,7.18-3.39,12.1-2.9c2.06,0.09,7.84,0.83,11.56,6.27
			c-0.3,0.19-6.91,4.03-6.83,12.03C43.07,43.15,51.38,46.33,51.48,46.37 M35.03,10.09C37.24,7.42,38.73,3.7,38.32,0
			c-3.18,0.12-7.03,2.12-9.31,4.79c-2.05,2.37-3.84,6.15-3.35,9.77C29.2,14.84,32.82,12.76,35.03,10.09z"/>
	</g>
	<g fill="#495057">
		<path class="st0" d="M68.85,39c0-7.81,4.41-12.73,11.3-12.73c5.59,0,9.81,3.44,10.46,8.58h-3.79c-0.68-3.16-3.32-5.23-6.67-5.23
			c-4.48,0-7.38,3.67-7.38,9.38c0,5.76,2.87,9.4,7.4,9.4c3.44,0,5.88-1.76,6.65-4.73h3.81c-0.94,5.09-4.8,8.08-10.48,8.08
			C73.23,51.75,68.85,46.86,68.85,39z"/>
		<path class="st0" d="M109.4,46.05c-0.5,3.26-3.67,5.5-7.74,5.5c-5.23,0-8.48-3.5-8.48-9.13c0-5.64,3.26-9.3,8.32-9.3
			c4.97,0,8.1,3.42,8.1,8.87v1.26h-12.7v0.22c0,3.08,1.93,5.09,4.84,5.09c2.05,0,3.66-0.97,4.15-2.53H109.4z M96.92,40.69h8.99
			c-0.09-2.75-1.85-4.56-4.41-4.56C98.96,36.13,97.11,37.97,96.92,40.69z"/>
		<path class="st0" d="M112.81,33.36h3.52v3.06h0.09c0.56-2.03,2.2-3.25,4.32-3.25c0.53,0,0.97,0.07,1.26,0.14v3.45
			c-0.29-0.12-0.94-0.22-1.66-0.22c-2.38,0-3.85,1.61-3.85,4.14v10.66h-3.69V33.36z"/>
		<path class="st0" d="M129.43,29.1v4.26h3.42v2.92h-3.42v9.91c0,1.54,0.68,2.26,2.19,2.26c0.38,0,0.97-0.05,1.21-0.09v2.91
			c-0.41,0.1-1.23,0.17-2.05,0.17c-3.64,0-5.06-1.37-5.06-4.85V36.28h-2.61v-2.92h2.61V29.1H129.43z"/>
		<path class="st0" d="M136.05,28.62c0-1.18,0.96-2.12,2.14-2.12c1.2,0,2.15,0.94,2.15,2.12c0,1.16-0.96,2.1-2.15,2.1
			C137.01,30.72,136.05,29.78,136.05,28.62z M136.34,33.36h3.69v17.98h-3.69V33.36z"/>
		<path class="st0" d="M145.24,36.28h-2.48v-2.92h2.48v-1.62c0-3.38,1.52-4.84,5.23-4.84c0.67,0,1.26,0.05,1.86,0.15v2.79
			c-0.38-0.07-0.85-0.12-1.33-0.12c-1.47,0-2.08,0.63-2.1,2.14v1.5h3.45v2.92h-3.4v15.06h-3.71V36.28z M155.35,28.62
			c0-1.18,0.96-2.12,2.14-2.12c1.2,0,2.15,0.94,2.15,2.12c0,1.16-0.96,2.1-2.15,2.1C156.31,30.72,155.35,29.78,155.35,28.62z
			 M155.64,33.36h3.69v17.98h-3.69V33.36z"/>
		<path class="st0" d="M179.05,46.05c-0.5,3.26-3.67,5.5-7.74,5.5c-5.23,0-8.48-3.5-8.48-9.13c0-5.64,3.26-9.3,8.32-9.3
			c4.97,0,8.1,3.42,8.1,8.87v1.26h-12.7v0.22c0,3.08,1.93,5.09,4.84,5.09c2.05,0,3.66-0.97,4.15-2.53H179.05z M166.57,40.69h8.99
			c-0.09-2.75-1.85-4.56-4.41-4.56C168.61,36.13,166.76,37.97,166.57,40.69z"/>
		<path class="st0" d="M181.3,42.35c0-5.55,3.06-9.18,7.52-9.18c2.58,0,4.61,1.2,5.64,3.18h0.07v-9.67h3.71v24.66h-3.59v-3.06h-0.07
			c-1.06,2.05-3.11,3.25-5.73,3.25C184.36,51.52,181.3,47.9,181.3,42.35z M185.08,42.35c0,3.69,1.88,6.05,4.75,6.05
			c2.84,0,4.73-2.39,4.73-6.05c0-3.62-1.9-6.03-4.73-6.03C186.96,36.31,185.08,38.69,185.08,42.35z"/>
		<path class="st0" d="M212.94,44.47c0.27,2.44,2.65,4.05,5.9,4.05c3.11,0,5.35-1.61,5.35-3.81c0-1.91-1.35-3.06-4.55-3.85
			l-3.2-0.77c-4.53-1.09-6.63-3.21-6.63-6.65c0-4.26,3.71-7.18,8.97-7.18c5.21,0,8.78,2.92,8.9,7.18h-3.73
			c-0.22-2.46-2.26-3.95-5.23-3.95s-5.01,1.5-5.01,3.69c0,1.74,1.3,2.77,4.48,3.55l2.72,0.67c5.06,1.2,7.16,3.23,7.16,6.84
			c0,4.61-3.67,7.5-9.52,7.5c-5.47,0-9.16-2.82-9.4-7.28H212.94z"/>
		<path class="st0" d="M246.48,51.34h-3.54v-3.09h-0.09c-1.03,2.15-2.82,3.3-5.57,3.3c-3.91,0-6.31-2.53-6.31-6.65V33.36h3.69v10.82
			c0,2.73,1.3,4.19,3.85,4.19c2.67,0,4.27-1.85,4.27-4.65V33.36h3.69V51.34z"/>
		<path class="st0" d="M267.41,42.35c0,5.59-2.99,9.18-7.5,9.18c-2.56,0-4.6-1.15-5.66-3.14h-0.09v8.9h-3.69V33.36h3.57v2.99h0.07
			c1.03-1.93,3.21-3.18,5.73-3.18C264.4,33.17,267.41,36.77,267.41,42.35z M263.62,42.35c0-3.64-1.88-6.03-4.75-6.03
			c-2.82,0-4.72,2.44-4.72,6.03c0,3.62,1.9,6.05,4.72,6.05C261.74,48.4,263.62,46.02,263.62,42.35z"/>
		<path class="st0" d="M287.53,42.35c0,5.59-2.99,9.18-7.5,9.18c-2.56,0-4.6-1.15-5.66-3.14h-0.09v8.9h-3.69V33.36h3.57v2.99h0.07
			c1.03-1.93,3.21-3.18,5.73-3.18C284.52,33.17,287.53,36.77,287.53,42.35z M283.74,42.35c0-3.64-1.88-6.03-4.75-6.03
			c-2.82,0-4.72,2.44-4.72,6.03c0,3.62,1.9,6.05,4.72,6.05C281.86,48.4,283.74,46.02,283.74,42.35z"/>
		<path class="st0" d="M289.57,42.35c0-5.66,3.33-9.21,8.53-9.21c5.21,0,8.53,3.55,8.53,9.21c0,5.67-3.3,9.21-8.53,9.21
			S289.57,48.02,289.57,42.35z M302.86,42.35c0-3.88-1.78-6.17-4.77-6.17s-4.77,2.31-4.77,6.17c0,3.9,1.78,6.17,4.77,6.17
			S302.86,46.24,302.86,42.35z"/>
		<path class="st0" d="M309.48,33.36H313v3.06h0.09c0.56-2.03,2.2-3.25,4.32-3.25c0.53,0,0.97,0.07,1.26,0.14v3.45
			c-0.29-0.12-0.94-0.22-1.66-0.22c-2.38,0-3.85,1.61-3.85,4.14v10.66h-3.69V33.36z"/>
		<path class="st0" d="M326.1,29.1v4.26h3.42v2.92h-3.42v9.91c0,1.54,0.68,2.26,2.19,2.26c0.38,0,0.97-0.05,1.21-0.09v2.91
			c-0.41,0.1-1.23,0.17-2.05,0.17c-3.64,0-5.06-1.37-5.06-4.85V36.28h-2.61v-2.92h2.61V29.1H326.1z"/>
		<path class="st0" d="M350.02,26.67c4.79,0,8.12,3.3,8.12,8.1c0,4.82-3.4,8.13-8.24,8.13h-5.3v8.43h-3.83V26.67H350.02z
			 M344.6,39.7h4.39c3.33,0,5.23-1.79,5.23-4.9s-1.9-4.89-5.21-4.89h-4.41V39.7z"/>
		<path class="st0" d="M360.52,33.36h3.52v3.06h0.09c0.56-2.03,2.2-3.25,4.32-3.25c0.53,0,0.97,0.07,1.26,0.14v3.45
			c-0.29-0.12-0.94-0.22-1.66-0.22c-2.38,0-3.85,1.61-3.85,4.14v10.66h-3.69V33.36z"/>
		<path class="st0" d="M371.2,42.35c0-5.66,3.33-9.21,8.53-9.21c5.21,0,8.53,3.55,8.53,9.21c0,5.67-3.3,9.21-8.53,9.21
			S371.2,48.02,371.2,42.35z M384.5,42.35c0-3.88-1.78-6.17-4.77-6.17c-2.99,0-4.77,2.31-4.77,6.17c0,3.9,1.78,6.17,4.77,6.17
			C382.72,48.52,384.5,46.24,384.5,42.35z"/>
		<path class="st0" d="M392.19,36.28h-2.48v-2.92h2.48v-1.62c0-3.38,1.52-4.84,5.23-4.84c0.67,0,1.26,0.05,1.86,0.15v2.79
			c-0.38-0.07-0.85-0.12-1.33-0.12c-1.47,0-2.08,0.63-2.1,2.14v1.5h3.45v2.92h-3.4v15.06h-3.71V36.28z"/>
		<path class="st0" d="M417.3,46.05c-0.5,3.26-3.67,5.5-7.74,5.5c-5.23,0-8.48-3.5-8.48-9.13c0-5.64,3.26-9.3,8.32-9.3
			c4.97,0,8.1,3.42,8.1,8.87v1.26h-12.7v0.22c0,3.08,1.93,5.09,4.84,5.09c2.05,0,3.66-0.97,4.15-2.53H417.3z M404.82,40.69h8.99
			c-0.08-2.75-1.85-4.56-4.41-4.56C406.86,36.13,405.01,37.97,404.82,40.69z"/>
		<path class="st0" d="M427.43,33.15c3.98,0,6.84,2.2,6.92,5.38h-3.47c-0.15-1.59-1.5-2.56-3.55-2.56c-2,0-3.33,0.92-3.33,2.32
			c0,1.08,0.89,1.79,2.75,2.26l3.02,0.7c3.62,0.87,4.99,2.2,4.99,4.84c0,3.25-3.08,5.47-7.47,5.47c-4.24,0-7.09-2.17-7.37-5.45h3.66
			c0.26,1.73,1.64,2.65,3.88,2.65c2.2,0,3.59-0.91,3.59-2.34c0-1.11-0.68-1.71-2.56-2.19l-3.21-0.79c-3.25-0.79-4.89-2.44-4.89-4.94
			C420.38,35.32,423.24,33.15,427.43,33.15z"/>
		<path class="st0" d="M444.69,33.15c3.98,0,6.84,2.2,6.92,5.38h-3.47c-0.15-1.59-1.5-2.56-3.55-2.56c-2,0-3.33,0.92-3.33,2.32
			c0,1.08,0.89,1.79,2.75,2.26l3.02,0.7c3.62,0.87,4.99,2.2,4.99,4.84c0,3.25-3.08,5.47-7.47,5.47c-4.24,0-7.09-2.17-7.37-5.45h3.66
			c0.26,1.73,1.64,2.65,3.88,2.65c2.21,0,3.59-0.91,3.59-2.34c0-1.11-0.68-1.71-2.56-2.19l-3.21-0.79
			c-3.25-0.79-4.89-2.44-4.89-4.94C437.65,35.32,440.51,33.15,444.69,33.15z"/>
		<path class="st0" d="M455.08,28.62c0-1.18,0.96-2.12,2.14-2.12c1.2,0,2.15,0.94,2.15,2.12c0,1.16-0.96,2.1-2.15,2.1
			C456.03,30.72,455.08,29.78,455.08,28.62z M455.37,33.36h3.69v17.98h-3.69V33.36z"/>
		<path class="st0" d="M462.03,42.35c0-5.66,3.33-9.21,8.53-9.21c5.21,0,8.53,3.55,8.53,9.21c0,5.67-3.3,9.21-8.53,9.21
			S462.03,48.02,462.03,42.35z M475.33,42.35c0-3.88-1.78-6.17-4.77-6.17c-2.99,0-4.77,2.31-4.77,6.17c0,3.9,1.78,6.17,4.77,6.17
			C473.55,48.52,475.33,46.24,475.33,42.35z"/>
		<path class="st0" d="M481.94,33.36h3.52v3.06h0.08c1.08-2.15,2.89-3.26,5.66-3.26c3.96,0,6.24,2.55,6.24,6.67v11.52h-3.71v-10.8
			c0-2.7-1.25-4.2-3.85-4.2c-2.65,0-4.25,1.88-4.25,4.65v10.36h-3.69V33.36z"/>
		<path class="st0" d="M500.63,46.23c0-3.14,2.41-5.04,6.68-5.3l4.92-0.27v-1.37c0-2-1.32-3.13-3.55-3.13
			c-2.05,0-3.49,0.97-3.78,2.53h-3.45c0.1-3.25,3.13-5.55,7.33-5.55c4.29,0,7.13,2.34,7.13,5.88v12.32h-3.54v-2.96h-0.08
			c-1.04,2-3.32,3.26-5.67,3.26C503.09,51.64,500.63,49.46,500.63,46.23z M512.23,44.6v-1.38l-4.43,0.27
			c-2.21,0.14-3.45,1.09-3.45,2.63c0,1.57,1.3,2.6,3.28,2.6C510.22,48.72,512.23,46.94,512.23,44.6z"/>
		<path class="st0" d="M519.97,26.67h3.69v24.66h-3.69V26.67z"/>
		<path class="st0" d="M541.57,30.47h-0.09l-6.44,4.58v-3.76l6.49-4.61h3.78v24.66h-3.74V30.47z"/>
		<path class="st0" d="M550.36,38.98c0-7.81,3.54-12.77,9.42-12.77c5.9,0,9.38,4.94,9.38,12.75c0,7.86-3.47,12.83-9.38,12.83
			S550.36,46.84,550.36,38.98z M565.29,38.98c0-5.88-2.03-9.55-5.52-9.55s-5.54,3.69-5.54,9.55c0,5.95,2.02,9.6,5.54,9.6
			S565.29,44.94,565.29,38.98z"/>
		<path class="st0" d="M571.62,49.28c0-1.25,0.99-2.24,2.24-2.24c1.25,0,2.24,0.99,2.24,2.24s-0.99,2.24-2.24,2.24
			C572.61,51.52,571.62,50.53,571.62,49.28z"/>
		<path class="st0" d="M584.33,30.47h-0.08l-6.44,4.58v-3.76l6.49-4.61h3.78v24.66h-3.74V30.47z"/>
		<path class="st0" d="M605.27,46.46h-12.34v-3.35c2.12-3.98,4.92-8.41,10.48-16.44h5.54v16.58h3.38v3.21h-3.38v4.87h-3.67V46.46z
			 M596.5,43.3h8.8V29.63h-0.07c-4.27,6.17-6.77,10.01-8.73,13.59V43.3z"/>
	</g>
</g>
</svg>
