<svg height="400" viewBox="0 0 400 400" width="400" xmlns="http://www.w3.org/2000/svg"><g fill-rule="evenodd"><path d="m184.1 50.663c-.874.356-.684 6.938.2 6.933.385-.002 9.25.015 19.7.038 10.45.022 19.232.024 19.516.003.388-.028.487-.902.4-3.537l-.116-3.5-19.6-.07c-10.78-.039-19.825.021-20.1.133m-69.5 7.138c-1.32.51-5.46 2.041-9.2 3.403-3.74 1.361-8.51 3.106-10.6 3.877s-5.6 2.028-7.8 2.793c-6.028 2.098-6.1 1.818 1.6 6.23 2.86 1.639 8.328 4.806 12.151 7.038 8.239 4.81 6.806 4.67 14.671 1.432 5.79-2.383 23-9.409 26.678-10.891 2.368-.954 1.943-1.686-2.2-3.79-2.035-1.033-6.22-3.196-9.3-4.807-13.986-7.316-12.235-6.738-16-5.285m171-.247c-.55.401-4.96 2.76-9.8 5.242s-9.835 5.046-11.1 5.699c-3.527 1.819-3.263 2.2 3.4 4.913 3.135 1.277 6.42 2.636 7.3 3.022 1.917.839 15.65 6.424 18.2 7.401.99.379 1.971.842 2.18 1.029 1.001.896 3 .008 12.427-5.52 5.496-3.223 11.007-6.408 12.246-7.078 2.392-1.294 3.57-2.553 2.656-2.84-.28-.087-3.209-1.146-6.509-2.353s-8.34-3.031-11.2-4.054-5.83-2.109-6.6-2.413-3.02-1.112-5-1.797c-1.98-.684-3.913-1.415-4.295-1.624-1.081-.593-2.806-.427-3.905.373m-252.04 53.688c-.638.684-1.16 1.386-1.16 1.562 0 .175-1.35 2.586-3 5.357s-3 5.109-3 5.197-.692 1.304-1.538 2.701c-.846 1.398-2.133 3.621-2.861 4.941-.729 1.32-2.085 3.655-3.016 5.19-.93 1.534-1.603 3.019-1.495 3.3.206.537 51.7.796 53.079.267.616-.237 2.106-3.134 5.635-10.957.943-2.09 2.565-5.6 3.606-7.8 3.815-8.067 4.551-9.836 4.33-10.412-.195-.508-3.554-.588-24.822-.588h-24.597zm290.083-.694c-.556.67-.516.78 2.857 7.852 1.417 2.97 3.625 7.74 4.907 10.6 1.283 2.86 2.976 6.46 3.763 8l1.43 2.8 25.8.11c14.19.061 26.205.013 26.7-.107 1.253-.304 1.178-.589-1.242-4.734-3.204-5.487-5.242-9.039-6.467-11.269-.604-1.1-1.269-2.217-1.478-2.482s-.695-1.075-1.079-1.8c-1.672-3.159-3.429-6.234-4.408-7.718l-1.056-1.6-24.634-.103c-20.599-.086-24.708-.012-25.093.451m-261.443 59.648c-8.36 4.253-20.69 10.494-27.4 13.868-7.307 3.675-12.246 6.387-12.315 6.762-.114.62 4.104 5.27 14.681 16.179 2.989 3.083 8.195 8.528 11.57 12.1s6.379 6.495 6.675 6.495 2.912-1.44 5.814-3.2c2.901-1.76 5.346-3.2 5.433-3.2.088 0 .83-.428 1.651-.951.82-.524 5.271-3.191 9.891-5.927 4.62-2.737 11.91-7.057 16.2-9.6 4.29-2.544 10.455-6.185 13.7-8.092s5.9-3.657 5.9-3.888c0-.557-1.924-2.333-5.6-5.17-1.65-1.273-5.79-4.587-9.2-7.365-3.41-2.777-6.83-5.529-7.6-6.115-.77-.587-2.39-1.892-3.6-2.901-1.21-1.008-2.669-2.184-3.243-2.612-.573-.429-1.985-1.544-3.136-2.479-2.933-2.382-2.467-2.529-19.421 6.096m262.887-6.696c-1.987 1.527-6.96 5.477-11.558 9.181-2.129 1.716-6.179 4.964-9 7.219-10.886 8.702-12.322 9.922-12.447 10.568-.113.589 6.256 4.707 15.444 9.985.729.419 1.719 1.003 2.2 1.298.48.294 3.574 2.12 6.874 4.057 3.3 1.936 6.931 4.122 8.068 4.856 1.137.735 2.176 1.336 2.308 1.336.133 0 .912.427 1.733.948 6.096 3.877 21.217 12.652 21.8 12.652.461 0 2.959-2.528 12.486-12.638 3.297-3.499 8.448-8.882 11.447-11.962 6.922-7.11 9.238-9.755 9.051-10.337-.162-.502-2.695-1.806-34.356-17.694-22.704-11.393-21.938-11.091-24.05-9.469" fill="#fcfaf7"/><path d="m26.8.4c-.33.213-1.084.391-1.676.394s-1.188.186-1.324.406-.527.4-.87.4c-1.049 0-6.126 2.568-6.128 3.1-.001.275-.34.5-.753.5s-.975.27-1.249.6-.746.6-1.049.6-.551.27-.551.6-.27.6-.6.6-.6.27-.6.6-.24.6-.532.6c-.293 0-.774.45-1.068 1s-.775 1-1.068 1c-.292 0-.532.27-.532.6s-.27.6-.6.6-.6.27-.6.6-.27.6-.6.6-.6.251-.6.557c0 .307-.27.661-.6.788-.33.126-.6.686-.6 1.242 0 .634-.225 1.013-.6 1.013-.33 0-.6.27-.6.6s-.16.6-.357.6c-.196 0-.475.472-.619 1.048-.145.577-.525 1.31-.844 1.629s-.58.897-.58 1.285-.129.833-.286.991c-1.268 1.268-1.279 2.684-1.296 177.17-.013 122.95.108 173.667.415 175 .665 2.877 2.239 6.474 3.063 6.997.277.176.504.662.504 1.08s.239.904.53 1.08c.292.176.659.59.816.92.783 1.647 1.564 2.582 4.959 5.949 2.195 2.176 4.008 3.651 4.489 3.651.45 0 .806.265.806.6 0 .33.27.6.6.6s.6.177.6.392c0 .216.493.517 1.096.668s1.336.515 1.629.807c.293.293.879.533 1.304.533.424 0 .771.149.771.331 0 1.241 3.951 1.269 178.653 1.269 173.64 0 178.147-.032 178.147-1.247 0-.194.347-.353.771-.353.425 0 1.042-.27 1.372-.6s.978-.6 1.441-.6.945-.27 1.071-.6c.127-.33.462-.6.745-.6s.618-.27.745-.6c.126-.33.559-.6.961-.6s1.173-.532 1.713-1.183c.539-.651 1.206-1.191 1.481-1.2s.5-.176.5-.37 1.26-1.63 2.8-3.191c1.606-1.629 2.8-3.184 2.8-3.648 0-.452.265-.808.6-.808.33 0 .6-.27.6-.6s.166-.6.368-.6c.203 0 .487-.54.632-1.2s.417-1.2.605-1.2.455-.405.593-.9c.139-.495.406-1.26.594-1.7s.537-1.412.775-2.16c.61-1.916.609-348.766-.001-351.04-.593-2.21-1.654-4.6-2.043-4.6-.178 0-.323-.441-.323-.98s-.225-1.124-.5-1.3-.855-1.016-1.288-1.866c-.433-.851-1.018-1.635-1.3-1.743s-.512-.447-.512-.754c0-.306-.27-.557-.6-.557s-.6-.175-.6-.389c0-.508-3.503-4.011-4.011-4.011-.214 0-.389-.27-.389-.6s-.27-.6-.6-.6-.6-.27-.6-.6-.251-.6-.557-.6c-.307 0-.661-.27-.788-.6-.126-.33-.686-.6-1.242-.6-.557 0-1.017-.225-1.021-.5-.009-.546-5.001-3.121-6.025-3.108-.349.004-.762-.121-.92-.278-1.268-1.268-2.688-1.279-176.447-1.29-110.643-.008-172.615.127-173 .376m197.116 53.7c.087 2.635-.012 3.509-.4 3.537-.284.021-9.066.019-19.516-.003-10.45-.023-19.315-.04-19.7-.038-.884.005-1.074-6.577-.2-6.933.275-.112 9.32-.172 20.1-.133l19.6.07zm-102.13 4.378c1.768.923 5.734 2.996 8.814 4.608 3.08 1.611 7.265 3.774 9.3 4.807 4.143 2.104 4.568 2.836 2.2 3.79-3.678 1.482-20.888 8.508-26.678 10.891-7.865 3.238-6.432 3.378-14.671-1.432-3.823-2.232-9.291-5.399-12.151-7.038-7.7-4.412-7.628-4.132-1.6-6.23 2.2-.765 5.71-2.022 7.8-2.793s6.86-2.516 10.6-3.877c3.74-1.362 7.88-2.893 9.2-3.403 3.267-1.261 3.519-1.237 7.186.677m167.719-1.297c.382.209 2.315.94 4.295 1.624 1.98.685 4.23 1.493 5 1.797s3.74 1.39 6.6 2.413 7.9 2.847 11.2 4.054 6.229 2.266 6.509 2.353c.914.287-.264 1.546-2.656 2.84-1.239.67-6.75 3.855-12.246 7.078-9.427 5.528-11.426 6.416-12.427 5.52-.209-.187-1.19-.65-2.18-1.029-2.55-.977-16.283-6.562-18.2-7.401-.88-.386-4.165-1.745-7.3-3.022-6.663-2.713-6.927-3.094-3.4-4.913 1.265-.653 6.26-3.217 11.1-5.699s9.25-4.841 9.8-5.242c1.099-.8 2.824-.966 3.905-.373m-205.365 53.407c.221.576-.515 2.345-4.33 10.412-1.041 2.2-2.663 5.71-3.606 7.8-3.529 7.823-5.019 10.72-5.635 10.957-1.379.529-52.873.27-53.079-.267-.108-.281.565-1.766 1.495-3.3.931-1.535 2.287-3.87 3.016-5.19.728-1.32 2.015-3.543 2.861-4.941.846-1.397 1.538-2.613 1.538-2.701s1.35-2.426 3-5.197 3-5.182 3-5.357c0-.176.522-.878 1.16-1.562l1.161-1.242h24.597c21.268 0 24.627.08 24.822.588m290.286 1.212c.979 1.484 2.736 4.559 4.408 7.718.384.725.87 1.535 1.079 1.8s.874 1.382 1.478 2.482c1.225 2.23 3.263 5.782 6.467 11.269 2.42 4.145 2.495 4.43 1.242 4.734-.495.12-12.51.168-26.7.107l-25.8-.11-1.43-2.8c-.787-1.54-2.48-5.14-3.763-8-1.282-2.86-3.49-7.63-4.907-10.6s-2.742-5.827-2.946-6.349c-.827-2.115-1.468-2.065 25.182-1.954l24.634.103zm-292.805 52.3c1.151.935 2.563 2.05 3.136 2.479.574.428 2.033 1.604 3.243 2.612 1.21 1.009 2.83 2.314 3.6 2.901.77.586 4.19 3.338 7.6 6.115 3.41 2.778 7.55 6.092 9.2 7.365 3.676 2.837 5.6 4.613 5.6 5.17 0 .231-2.655 1.981-5.9 3.888s-9.41 5.548-13.7 8.092c-4.29 2.543-11.58 6.863-16.2 9.6-4.62 2.736-9.071 5.403-9.891 5.927-.821.523-1.563.951-1.651.951-.087 0-2.532 1.44-5.433 3.2-2.902 1.76-5.518 3.2-5.814 3.2s-3.3-2.923-6.675-6.495-8.581-9.017-11.57-12.1c-10.577-10.909-14.795-15.559-14.681-16.179.069-.375 5.008-3.087 12.315-6.762 6.71-3.374 19.04-9.615 27.4-13.868 16.954-8.625 16.488-8.478 19.421-6.096m267.516 8.869c31.661 15.888 34.194 17.192 34.356 17.694.187.582-2.129 3.227-9.051 10.337-2.999 3.08-8.15 8.463-11.447 11.962-9.527 10.11-12.025 12.638-12.486 12.638-.583 0-15.704-8.775-21.8-12.652-.821-.521-1.6-.948-1.733-.948-.132 0-1.171-.601-2.308-1.336-1.137-.734-4.768-2.92-8.068-4.856-3.3-1.937-6.394-3.763-6.874-4.057-.481-.295-1.471-.879-2.2-1.298-9.188-5.278-15.557-9.396-15.444-9.985.125-.646 1.561-1.866 12.447-10.568 2.821-2.255 6.871-5.503 9-7.219 4.598-3.704 9.571-7.654 11.558-9.181 2.112-1.622 1.346-1.924 24.05 9.469m-248.737 97.094c6.04 1.17 14.776 4.125 15.9 5.378.834.93.9 1.378.9 6.132 0 6.982.211 6.855-6.273 3.773-2.021-.96-3.926-1.746-4.234-1.746s-.695-.135-.859-.3c-.979-.979-10.022-2.482-14.988-2.492-4.157-.008-9.111.626-9.826 1.257-.209.184-.624.335-.922.335-1.745 0-7.933 3.783-10.542 6.445-8.324 8.492-10.13 21.119-4.622 32.31 1.391 2.825 5.481 7.503 7.783 8.902.816.495 1.573 1.003 1.683 1.127.415.47 4.97 2.509 6.945 3.109 1.381.419 4.286.68 8.855.796 7.034.177 7.175.159 13.8-1.779 2.361-.69 11.067-4.771 11.429-5.357.368-.596 2.071-.391 2.328.28.134.348.243 3.035.243 5.972v5.341l-1.1.776c-2.317 1.637-7.926 3.702-13.9 5.119-4.733 1.123-21.266 1.12-24.8-.004-5.454-1.735-6.974-2.384-10.55-4.507-18.129-10.762-23.797-35.828-12.15-53.73 9.405-14.456 26.015-20.796 44.9-17.137m55.934-.019c3.145.828 7.239 2.638 8.866 3.92.968.763 1.004.966 1.124 6.312.15 6.659-.24 7.768-2.193 6.237-10.702-8.392-24.365-8.521-26.842-.254-1.033 3.449 3.269 10.411 7.45 12.057 7.506 2.956 19.801 12.848 22.228 17.884 5.8 12.035.72 24.329-12.167 29.444-1.798.714-15.576.799-16.439.102-.308-.249-1.186-.587-1.95-.751-1.506-.323-7.593-3.353-9.211-4.586-.974-.742-1.005-.923-1.209-7.085-.301-9.07-.076-9.287 4.728-4.579 10.426 10.218 27.012 9.059 26.965-1.884-.023-5.35-3.167-8.615-15.484-16.078-11.853-7.183-16.559-13.157-16.59-21.063-.014-3.376 1.948-10.514 2.89-10.519.165 0 .3-.26.3-.577 0-.798 4.55-5.244 6.592-6.44 5.437-3.187 13.74-4.035 20.942-2.14m50.266.055c3.163.916 7.108 2.689 8.6 3.865.971.766 1.004.953 1.128 6.54.149 6.655-.2 7.584-2.246 5.973-13.072-10.288-31.297-6.981-26.31 4.774.849 2.001 7.83 8.349 9.182 8.349.258 0 8.645 5.067 10.846 6.552 13.882 9.37 15.353 28.259 2.846 36.556-1.635 1.085-2.177 1.37-5.246 2.765-1.926.875-16.014 1.101-17.039.273-.308-.249-1.158-.581-1.887-.737-2.005-.429-7.594-3.388-9.123-4.829l-1.351-1.274v-6.204c0-8.04.393-8.464 4.12-4.446 4.087 4.406 8.556 6.616 15.374 7.602 7.98 1.154 14.431-6.232 11.3-12.938-.941-2.015-5.46-6.701-7.454-7.731-.627-.323-1.23-.7-1.34-.838s-.83-.594-1.6-1.014-2.12-1.221-3-1.78-2.23-1.363-3-1.787c-.77-.423-1.49-.872-1.6-.996-.11-.125-1.1-.832-2.2-1.571-9.067-6.095-13.451-17.155-9.819-24.773 1.689-3.543 2.575-4.856 4.764-7.064 1.4-1.411 2.795-2.566 3.1-2.566s.555-.151.555-.336c0-2.714 14.616-4.33 21.4-2.365m145.351.001c7.112 3.481 8.218 12.505 2.13 17.383-6.663 5.34-16.663.439-16.6-8.136.053-7.303 8.029-12.4 14.47-9.247m-36.621.844c6.046 1.832 13.47 7.972 13.47 11.139 0 .296.244.894.542 1.328 1.684 2.454 1.575 15.032-.146 16.753-.218.218-.396.643-.396.944 0 1.796-5.389 7.478-8.6 9.068-5.181 2.565-7.56 3.005-18.4 3.41-3.96.147-7.245.301-7.3.341s-.103 6.958-.106 15.373c-.004 8.922-.164 15.55-.385 15.9-.585.927-9.274 1.112-10.626.226l-.983-.644v-36.963c0-34.03.053-37.015.67-37.631 1.264-1.264 27.633-.646 32.26.756m-74.504-.53c.755.404.774 1.184.78 31.9.003 17.317.157 31.723.341 32.013.267.423 3.393.519 15.734.487 9.474-.024 15.807.115 16.459.363l1.06.403v4.587c0 4.287-.058 4.628-.889 5.21-1.393.976-42.899.939-43.98-.039-1.079-.977-1.147-73.416-.069-74.607.762-.842 9.115-1.093 10.564-.317m104.663 2.791c-.677.79-.661.8.828.562 4.335-.693 7.625 3.024 5.123 5.789-.798.882-.808 1.406-.04 2.044.33.274.6.836.6 1.249 0 1.213 1.492.92 2.19-.429 2.688-5.199-5.088-13.435-8.701-9.215m-3.114 2.108c-1.852 1.442-1.81 6.633.066 8.403.743.7.759.613.759-4.1 0-2.649-.045-4.81-.1-4.803s-.381.232-.725.5m3.842 1.859c-.126.205-.037.492.199.638.609.376 2.466-.154 2.177-.622-.306-.495-2.072-.507-2.376-.016m-51.55 3.895c-.51.51-.307 20.733.213 21.253 1.697 1.697 15.7.251 19.207-1.984 4.252-2.71 5.493-10.487 2.424-15.182-1.26-1.927-4.075-3.379-7.588-3.915-3.122-.476-13.823-.606-14.256-.172m51.333 2.146c0 1.125-.198 1.688-.656 1.864-1.115.428.548 1.323 2.456 1.323 1.649 0 4.074-1.159 2.485-1.187-.411-.008-1.177-.774-1.8-1.8-1.421-2.341-2.485-2.427-2.485-.2" fill="#fbbb14"/><path d="m82 270.631c-11.838 2.555-21.433 9.206-26.738 18.533-.295.52-.872 1.542-1.281 2.27-9.046 16.106-1.468 40.186 15.619 49.63 11.129 6.151 31.267 6.035 44.512-.255 2.884-1.37 3.088-1.852 3.088-7.298 0-5.52.154-5.4-4.069-3.148-1.612.859-3.921 1.958-5.131 2.441s-2.56 1.022-3 1.197c-25.246 10.035-48.811-8.452-43.085-33.801 4.284-18.96 28.704-26.272 50.651-15.165 3.757 1.901 3.835 1.838 3.829-3.122-.009-6.297.181-6.061-6.795-8.442-8.911-3.04-20.94-4.278-27.6-2.84m59.28.188c-14.786 4.276-19.404 20.799-8.814 31.537 2.778 2.816 5.683 4.885 14.387 10.244 10.47 6.447 14.08 12.807 10.62 18.711-4.8 8.192-18.086 7.201-27.573-2.055-2.095-2.045-2.705-2.458-2.72-1.845-.316 12.21-.351 12.115 5.437 14.992 12.313 6.12 26.879 3.51 32.657-5.851 6.989-11.324 2.292-23.613-12.338-32.282-11.562-6.85-15.064-9.72-16.303-13.355-3.885-11.403 13.467-16.041 25.675-6.862 2.772 2.084 2.892 1.933 2.892-3.656 0-4.391-.069-4.827-.9-5.682-3.738-3.845-16.011-5.922-23.02-3.896m50.12-.032c-9.387 2.739-14.6 9.469-14.6 18.848 0 7.239 4.27 13.221 13.392 18.765 2.354 1.43 4.52 2.825 4.815 3.1s.664.5.82.5c2.407 0 11.251 8.359 12.308 11.633 4.374 13.544-15.546 18.001-27.758 6.21-3.275-3.162-3.355-3.108-3.497 2.392-.157 6.084.151 6.962 3.064 8.731 13.781 8.372 30.489 5.428 36.472-6.425l1.384-2.741v-5.8-5.8l-1.567-3.2c-2.314-4.726-6.408-8.614-13.642-12.956-9.393-5.638-10.715-6.534-12.879-8.724-11.569-11.711 6.111-22.011 21.207-12.354 1.164.744 2.355 1.641 2.647 1.993 1.348 1.625 1.634.827 1.634-4.564v-5.205l-2.1-1.321c-5.71-3.591-15.291-4.952-21.7-3.082m153-.122c-7.248 3.105-7.936 12.757-1.197 16.81 7.7 4.632 17.056-3.883 13.047-11.875-.497-.99-1.11-1.757-1.362-1.705-.253.053-.367-.146-.254-.441.224-.583-1.142-1.632-3.578-2.747-1.85-.847-4.734-.865-6.656-.042m-253.4.135c.137.221 1.942.4 4.036.4 2.464 0 4.292.21 5.226.6.789.33 2.009.6 2.71.6s1.624.264 2.052.587c.427.323 1.339.593 2.027.6s1.475.283 1.749.613 1.029.6 1.678.6c.648 0 1.449.27 1.779.6s1.037.6 1.572.6h.971l-.032 4.7c-.017 2.585-.122 4.475-.233 4.2s-.637-.5-1.168-.5c-.593 0-.967-.232-.967-.6 0-.4-.4-.6-1.2-.6-.66 0-1.2-.166-1.2-.368 0-.203-.585-.496-1.3-.651-.715-.156-1.655-.53-2.089-.832s-1.364-.549-2.067-.549c-.702 0-1.34-.189-1.417-.419-.077-.231-1.177-.527-2.445-.657-1.268-.131-2.401-.393-2.517-.581-.279-.451-14.054-.447-14.332.004-.118.191-1.068.443-2.111.561-1.043.117-1.962.411-2.042.653-.081.241-.677.439-1.326.439-.679 0-1.277.254-1.409.6-.132.342-.728.6-1.388.6-.722 0-1.157.209-1.157.557 0 .306-.45.669-1 .807s-1 .428-1 .644c0 .215-.27.392-.6.392s-.6-.186-.6-.413c0-.226.27-.516.6-.642.895-.344.725-.903-.2-.661-.44.115-.8.368-.8.563 0 .194-.23.353-.512.353-.553 0-4.956 4.373-6.03 5.989-.741 1.114-.856 2.011-.258 2.011.22 0 .4-.27.4-.6s.18-.6.4-.6.4.27.4.6-.168.6-.373.6-.499.405-.654.9c-.154.495-.392.99-.527 1.1-.305.248-1.354 2.532-2.022 4.4-1.694 4.742-1.8 17.409-.166 19.789.298.434.542 1.081.542 1.439 0 .357.301 1.252.668 1.988.477.957.534 1.383.2 1.495-.572.19-.62 1.548-.068 1.889.22.136.4-.123.4-.576s.09-.824.2-.824c.5 0 1.799 1.671 1.788 2.3-.012.667-.032.667-.42 0-.532-.913-1.168-.896-1.168.032 0 2.409 7.789 8.639 10.299 8.238 1.145-.183 1.675-.083 2.069.392.292.351.881.638 1.31.638.428 0 1.049.27 1.379.6s1.271.6 2.092.6c.82 0 1.716.225 1.992.5.366.366 2.586.5 8.26.5 5.675 0 7.894-.134 8.259-.5.275-.275 1.261-.5 2.191-.5.971 0 1.948-.256 2.292-.6.33-.33 1.14-.6 1.8-.6s1.47-.27 1.8-.6.978-.6 1.441-.6.945-.27 1.071-.6c.132-.342.728-.6 1.388-.6 1.298 0 1.514.552.457 1.168-1.124.654.055.493 1.439-.197 1.441-.719 1.649-1.371.437-1.371-.453 0-.712-.18-.576-.4s.577-.4.981-.4c.403 0 .837-.27.964-.6.65-1.694 1.055-.3 1.055 3.629 0 4.542-.186 5.03-2.104 5.511-.603.151-1.096.452-1.096.668 0 .215-.527.392-1.171.392-.645 0-1.411.239-1.704.532-.292.293-1.249.648-2.125.791-.877.142-1.655.442-1.73.668-.075.225-.887.417-1.803.427-.917.009-2.387.277-3.267.594-2.32.835-18.076.83-20.836-.008-1.08-.327-2.414-.603-2.964-.612-.55-.01-1.349-.282-1.776-.605-.428-.323-1.115-.587-1.529-.587s-1.022-.27-1.352-.6-.947-.6-1.372-.6c-.963 0-1.02-1.073-.071-1.334.385-.106-.089-.092-1.053.03-1.395.178-1.712.109-1.55-.336.112-.308.406-.515.653-.46.673.149.543-.579-.15-.845-.373-.143-.6.003-.6.387 0 .361-.277.563-.667.487-.874-.169-1.185-1.129-.366-1.129.981 0 .75-.516-.67-1.491-.713-.491-1.821-1.347-2.462-1.902-.64-.556-1.24-.935-1.333-.842-.238.238 1.414 1.835 1.898 1.835.22 0 .4.27.4.6 0 .541.475.778 1.3.647.165-.026.3.133.3.353s-.38.4-.843.4c-.845 0-6.757-5.605-6.757-6.405 0-.217-.168-.395-.373-.395-.613 0-.966-1.667-.423-2.002.362-.224.376-.497.055-1.05-.406-.699-.435-.689-.447.152-.02 1.489-.981 1.017-1.822-.896-.435-.988-.925-1.798-1.09-1.8s-.301-.229-.302-.504c-.002-.275-.265-1.003-.586-1.617-.32-.614-.699-1.739-.842-2.5-.142-.761-.396-1.383-.563-1.383s-.431-1.123-.586-2.496-.459-2.709-.675-2.969c-.953-1.148.223-13.848 1.579-17.061.261-.619.481-1.339.488-1.6s.277-.823.6-1.25c.323-.428.587-1.103.587-1.5 0-.398.153-.724.34-.724s.673-.81 1.082-1.8c.768-1.862 1.778-2.418 1.778-.979 0 .758.076.739 1-.259.55-.593 1-1.203 1-1.355 0-.151.804-1.091 1.787-2.088.983-.996 1.672-1.927 1.532-2.066-.14-.14-1.031.555-1.98 1.546s-1.819 1.801-1.932 1.801c-.498 0-.148-1.648.393-1.855.33-.127.6-.481.6-.788 0-.306.173-.557.385-.557.211 0 1.218-.81 2.236-1.8 2.483-2.413 3.791-2.424 1.557-.014-1.701 1.836-.757 1.629 1.546-.339 1.189-1.016 2.368-1.847 2.619-1.847s.457-.177.457-.392c0-.216.45-.506 1-.644 1.182-.296 1.337-.964.224-.964-.427 0-.888-.18-1.024-.4s.123-.4.576-.4c.466 0 .824-.261.824-.6 0-.401.401-.6 1.213-.6.708 0 1.308-.249 1.442-.6.128-.334.723-.6 1.339-.6.609 0 1.332-.27 1.606-.6.278-.335 1.15-.6 1.973-.6.811 0 1.823-.264 2.251-.587.551-.417 1.878-.593 4.576-.606 2.09-.011 4.07-.194 4.4-.407.769-.497 1.093-.497 1.4 0m61.274.402c1.636.002 3.184.242 3.872.6.63.329 1.45.598 1.823.598s1.027.264 1.455.587c.427.323 1.181.593 1.676.6 1.484.021 1.11 1.204-.4 1.267-.982.042-1.074.098-.376.231.509.098 1.023.433 1.143.746s.505.569.856.569c.495 0 .53-.107.157-.48-.686-.686-.593-1.12.24-1.12 1.42 0 1.68.823 1.68 5.314v4.353l-1.558-1.233c-.856-.679-1.756-1.234-2-1.234-.243 0-.442-.177-.442-.392 0-.216-.45-.506-1-.644s-1-.397-1-.576c0-.178-.585-.451-1.3-.606-.715-.156-1.428-.485-1.585-.732-.407-.642-13.436-.624-13.833.018-.16.258-.783.592-1.386.744-.603.151-1.096.435-1.096.631 0 .197-.27.357-.6.357s-.6-.18-.6-.4.27-.4.6-.4.6-.18.6-.4c0-.822-1.113-.353-2.533 1.067-.807.806-1.453 1.751-1.435 2.1.02.413.101.459.233.133.252-.625 1.335-.661 1.335-.044 0 .251-.256.656-.568.9-.989.773-1.015 7.804-.032 8.787.679.679.806 1.857.2 1.857-.22 0-.4-.27-.4-.6s-.18-.6-.4-.6-.4.27-.4.6.172.6.381.6c.21 0 .664.585 1.009 1.3.83 1.72 4.548 4.447 3.955 2.9-.328-.854.536-.742 1.547.2.703.655.74.8.207.8-1.25 0-1.087.728.352 1.577 1.547.913 2.188.834 1.357-.167-.426-.514-.372-.61.343-.61.467 0 .849.152.849.339 0 .186.405.534.9.773l.9.434-.876.027c-1.287.04-1.519.763-.34 1.059.559.14 1.016.396 1.016.568s.45.426 1 .564 1 .428 1 .644c0 .215.315.386.7.379.667-.012.667-.038 0-.544-.957-.726-.878-1.043.257-1.043.527 0 1.061.27 1.188.6.126.33.596.6 1.042.6.447 0 .813.186.813.413s.405.578.9.779l.9.367-.9.267c-1.078.32-1.16.787-.2 1.134 2.12.766 9.3 7.312 9.3 8.479 0 .308.18.561.4.561s.4-.36.4-.8-.18-.8-.4-.8-.4-.27-.4-.6.103-.6.229-.6c.452 0 1.371 1.155 1.371 1.722 0 .319.27.804.6 1.078s.6.842.6 1.262c0 .419.245.857.544.972 1.236.474 1.234 13.766-.001 13.766-.332 0-.543.45-.543 1.157 0 .66-.258 1.256-.6 1.388-.33.126-.6.497-.6.823 0 .656-3.805 4.632-4.432 4.632-.216 0-.497.27-.623.6-.127.33-.549.6-.939.6-.389 0-.932.27-1.206.6s-.881.606-1.349.614-1.301.272-1.851.586c-.752.43-2.585.572-7.4.572s-6.648-.142-7.4-.572c-.55-.314-1.508-.578-2.129-.586-.62-.008-1.398-.284-1.728-.614s-1.037-.6-1.572-.6c-.596 0-.971-.231-.971-.6 0-.373-.378-.6-1-.6s-1-.227-1-.6c0-.33.294-.6.654-.6.472 0 .356-.235-.421-.846-.591-.465-1.188-.733-1.325-.595-.137.137.097.512.521.832.726.55.729.584.042.596-1.597.028-1.873-.879-1.839-6.058.017-2.711.126-4.69.243-4.399.299.748 2.873 3.27 3.338 3.27.213 0 .387.18.387.4s-.36.4-.8.4c-1.264 0-.95.514 1.155 1.893 1.768 1.157 2.156 1.256 4.039 1.033 1.49-.176 2.175-.1 2.402.268.176.284 1.283.603 2.461.711 1.179.108 2.342.354 2.585.546.254.202 1.339.18 2.554-.05 1.162-.221 2.774-.401 3.582-.401s1.818-.264 2.246-.587c.871-.659 2.176-.807 2.176-.246 0 .201-.225.457-.5.568s-.12.216.344.233c.995.038 4.368-2.805 4.662-3.929.143-.549.039-.716-.351-.566-.766.293-.73-1.355.045-2.13.828-.829.838-6.475.013-7.567-.323-.427-.593-1.097-.6-1.489-.007-.391-.283-.816-.613-.942-.33-.127-.6-.424-.6-.66s-1.094-1.458-2.431-2.714c-1.447-1.36-2.256-2.394-1.997-2.553.238-.148.535-.005.658.317.245.638 1.77 1.201 1.77.654 0-.363-3.315-3.189-3.741-3.189-.522 0-.239.927.441 1.443.472.359.528.536.171.544-.29.007-.798-.257-1.128-.587s-.947-.6-1.372-.6c-.424 0-.771-.27-.771-.6 0-.336-.357-.6-.813-.6-.446 0-.916-.27-1.042-.6-.127-.33-.571-.6-.988-.6-.416 0-.757-.177-.757-.392 0-.216-.45-.506-1-.644-1.167-.293-1.292-.766-.303-1.146.621-.238.587-.352-.3-1.034-1.119-.86-1.597-.975-1.597-.384 0 .22.27.4.6.4s.6.18.6.4-.242.4-.539.4c-.794 0-3.061-1.201-3.061-1.622 0-.199-.45-.476-1-.614s-1-.411-1-.607c0-.197-.27-.357-.6-.357s-.6-.27-.6-.6c0-.338.358-.6.821-.6.746 0 .72-.089-.3-.992-.617-.546-1.712-1.581-2.435-2.3-1.231-1.225-1.342-1.26-1.747-.56-.505.874-2.441-.963-3.211-3.048-.223-.605-.569-1.1-.767-1.1-.199 0-.361-.688-.361-1.529s-.288-2.374-.64-3.408c-.587-1.722-.587-2.012 0-3.479.352-.88.64-2.198.64-2.929s.452-2.122 1.004-3.092 1.113-2.078 1.246-2.463c.331-.951.95-.886.95.1 0 1.13.099 1.075 2.832-1.6 1.349-1.32 2.704-2.4 3.011-2.4.306 0 .557-.192.557-.427 0-.505-1.67-.068-2.06.539-.15.234-.572.269-1 .084-.687-.297-.69-.332-.04-.487.385-.092.7-.424.7-.738 0-.336.395-.571.957-.571.527 0 1.061-.27 1.188-.6.131-.343.728-.6 1.393-.6.64 0 1.388-.27 1.662-.6.365-.44 1.333-.6 3.625-.6 1.72 0 3.239-.18 3.376-.401.165-.268.496-.268.997 0 .412.221 1.976.402 3.476.403m53.612.645c.487.304 1.41.553 2.051.553s1.389.27 1.663.6.926.6 1.449.6c.579 0 .951.235.951.6 0 .373.378.6 1 .6h1l-.046 4.9c-.026 2.695-.129 4.585-.23 4.2-.1-.385-.446-.7-.767-.7-.455 0-.493-.173-.17-.776.239-.446.263-.87.056-.997-.198-.123-.457.033-.577.344-.273.713-1.866.356-1.866-.418 0-.304-.315-.559-.7-.566s-1.049-.277-1.476-.6c-.428-.323-1.157-.587-1.62-.587-.464 0-1.069-.225-1.344-.5-.359-.359-2.323-.5-6.947-.5-4.802 0-6.489.128-6.613.5-.092.275-.394.5-.672.5s-.921.36-1.428.8c-1.117.969-1.451.995-1.922.154-.319-.571-.461-.539-1.22.275-.926.995-1.094 1.571-.458 1.571.638 0 .462 1.891-.2 2.145-.463.177-.6.95-.6 3.393 0 2.325.159 3.296.6 3.662.33.274.6.962.6 1.529 0 .802-.107.924-.48.551-.879-.879-1.148-.495-.435.62.761 1.188 1.813 2.135 2.079 1.87.09-.091-.162-.526-.562-.968-.448-.495-.54-.802-.241-.802.763 0 4.533 3.895 4.055 4.19-.232.143-.53-.021-.662-.365s-.475-.625-.763-.625c-.289 0-.605-.225-.703-.5s-.29-.398-.427-.273c-.299.273 2.782 3.411 4.017 4.09.482.266 1.646.906 2.587 1.422 1.069.587 1.764.775 1.855.5.183-.549 2.08-.584 2.08-.039 0 .22-.349.4-.776.4-1.15 0-1.374.699-.33 1.03.498.158 1.577.711 2.398 1.228.821.518 1.811.935 2.2.926.494-.011.346-.219-.492-.69-1.14-.64-1.155-.681-.299-.812.495-.076 1.183.145 1.528.49.346.345.885.628 1.2.628.314 0 .571.18.571.4s-.45.4-1 .4-1 .18-1 .4.187.4.416.4c1.168 0 9.184 7.044 9.184 8.071 0 .181.18.329.4.329.793 0 .376-1.251-.8-2.4-1.154-1.128-1.542-2-.889-2 .406 0 1.469 1.249 1.802 2.118.144.375.448.682.674.682.227 0 .413.276.413.613 0 .336.27.716.6.842.33.127.6.558.6.959s.27.999.6 1.329.6 1.132.6 1.783c0 .65.269 1.698.598 2.328.351.674.597 2.218.597 3.746s-.246 3.072-.597 3.746c-.329.63-.598 1.736-.598 2.457 0 .797-.235 1.402-.6 1.542-.33.126-.601.551-.602.942-.002.65-2.458 3.713-2.978 3.713-.121 0-.22-.27-.22-.6 0-.869-.53-.739-1.589.388-.769.818-.841 1.093-.423 1.598.846 1.019-.977 2.274-2.988 2.059-.88-.095-1.285-.085-.9.021 1.019.281.863 1.331-.2 1.348-.495.008-1.35.272-1.9.586-1.458.833-12.667.833-14.662 0-.789-.33-1.932-.6-2.538-.6s-1.326-.27-1.6-.6-.814-.6-1.2-.6-.926-.27-1.2-.6-.744-.6-1.044-.6-1.261-.495-2.135-1.1l-1.591-1.1-.015-4.9c-.015-4.883-.012-4.897.777-4.108.548.548.73 1.132.591 1.9-.223 1.228 2.514 3.721 4.056 3.695.718-.012.721-.043.061-.544-.919-.697-.885-1.043.1-1.043.44 0 .8.257.8.572s.405.652.9.749l.9.177-.9.298c-1.116.369-1.179 1.004-.1 1.004.44 0 .8-.149.8-.331 0-.43 2.45-.088 3.104.433 1.764 1.408 12.371 1.383 13.786-.032.754-.754 2.138-.626 1.502.14-.864 1.041-.103 1.123 1.281.138 1.039-.74 1.171-.967.623-1.073-.383-.073-.696-.32-.696-.548 0-.24.462-.318 1.1-.186.605.125.875.129.6.01-.689-.3-.628-1.216.1-1.496.33-.126.6-.491.6-.809 0-.319.212-.65.471-.736 1.094-.365 1.094-9.855 0-10.22-.259-.086-.471-.417-.471-.736 0-.318-.27-.683-.6-.809-.33-.127-.6-.394-.6-.595 0-.444-3.613-3.95-4.072-3.95-.76 0-.251-1.158.572-1.302.869-.152.873-.169.1-.505-.44-.192-1.038-.583-1.329-.871-.627-.62-1.271-.682-1.271-.122 0 .22-.45.4-1 .4-.622 0-1-.227-1-.6 0-.333-.356-.6-.8-.6-.44 0-.8-.177-.8-.392 0-.216-.45-.506-1-.644-1.133-.284-1.369-1.361-.3-1.37.597-.005.612-.062.1-.387-.382-.243-.648-.241-.733.006-.222.643-2.067.454-2.067-.213 0-.333-.356-.6-.8-.6-.44 0-.8-.167-.8-.372s-.391-.43-.869-.5c-1.214-.179-1.436-1.127-.264-1.13.905-.002.898-.031-.267-.986-1.256-1.029-2.2-1.292-2.2-.612 0 .22-.45.4-1 .4-.622 0-1-.227-1-.6 0-.33-.27-.6-.6-.6s-.6-.27-.6-.6-.27-.6-.6-.6-.6-.18-.6-.4c0-.62.414-.484 1.836.6.721.55 1.638.995 2.037.988.68-.012.682-.039.035-.415-.38-.222-1.621-1.387-2.758-2.588-2.205-2.332-2.801-2.667-2.466-1.385.258.985-.088 1.018-1.055.1-.858-.815-2.429-3.657-2.429-4.394 0-.278-.18-.506-.4-.506-.248 0-.4-2.133-.4-5.6 0-3.394.155-5.6.392-5.6.216 0 .515-.495.664-1.1.448-1.821 2.676-4.901 3.181-4.397.134.135-.044.657-.396 1.16-.736 1.051-.813 1.537-.241 1.537.22 0 .4-.209.4-.464 0-.67 3.815-4.285 4.997-4.735.552-.21 1.003-.566 1.003-.791 0-.643-1.598-.479-1.855.19-.127.33-.571.6-.988.6-.416 0-.757.18-.757.4s-.182.4-.403.4c-.24 0-.2-.326.096-.8.275-.44.816-.8 1.203-.8s.704-.27.704-.6.338-.6.751-.6.975-.27 1.249-.6.911-.6 1.416-.6c.504 0 .99-.219 1.079-.486.362-1.084 13.671-1.142 15.391-.067m24.994-.567c-.696.696-.696 72.344 0 73.04.832.832 42.067.676 42.905-.163.519-.519.621-1.383.529-4.5l-.114-3.857-16.6-.2-16.6-.2-.102-32.054-.103-32.054-.897-.241c-1.677-.449-8.513-.276-9.018.229m52.917-.014c-.112.294-.157 16.914-.1 36.934l.103 36.4 3.6.121c1.98.067 4.185.014 4.9-.118l1.3-.239v-15.333c0-11.789.116-15.424.5-15.728.275-.217 3.65-.509 7.5-.65 20.486-.748 27.815-6.354 27.79-21.253-.018-10.167-4.452-16.381-13.917-19.506-3.175-1.048-31.303-1.606-31.676-.628m-44.295 32.14c.1 31.094.123 31.958.884 32.667.842.784 2.612.977 3.014.327.157-.255 5.537-.4 14.824-.4h14.576l.06 3.2c.033 1.76.078 3.425.1 3.7.031.392-4.483.543-20.86.7l-20.9.2v-36.085-36.085l3.7-.128c2.035-.07 3.88-.107 4.1-.081.262.03.435 11.066.502 31.985m72.158-31.506c.275.275 1.162.5 1.971.5.82 0 1.692.266 1.969.6.274.33 1.087.6 1.806.6.794 0 1.399.236 1.539.6.126.33.516.6.866.6s.525.18.389.4-.597.4-1.024.4c-1.2 0-.918.666.524 1.235.715.282 1.435.585 1.6.672.165.088.3-.035.3-.274 0-.238-.27-.433-.6-.433s-.6-.18-.6-.4.45-.4 1-.4c.622 0 1 .227 1 .6 0 .33.27.6.6.6s.6.189.6.419c0 .231.425.816.944 1.3.52.485 1.072 1.286 1.227 1.781.156.495.451.9.656.9s.374.225.375.5c.002.275.316 1.04.698 1.7.835 1.441 1.063 14.793.262 15.315-.242.157-.56.78-.708 1.385s-.446 1.1-.662 1.1c-.215 0-.392.259-.392.576 0 .97-.787 1.128-1.122.225-.288-.78-.49-.649-2.424 1.574-1.274 1.465-1.874 2.425-1.515 2.425.327 0 .675-.225.773-.5s.306-.382.462-.238c.37.342-1 1.938-1.663 1.938-.281 0-.511.18-.511.4s-.257.4-.571.4c-.315 0-.811.239-1.104.532-.292.293-1.236.646-2.096.786-.86.139-1.669.419-1.797.62-.127.202-2.302.498-4.832.659-2.53.16-4.81.461-5.066.668-.259.209-3.089.323-6.4.255l-5.934-.12.109 16 .11 16-4.21-.126-4.209-.125v-36.214-36.214l13.58.139c10.175.105 13.706.265 14.08.64m40.264.846c6.542 4.658 3.716 14.454-4.17 14.454-7.123 0-10.434-8.81-5.154-13.712 2.219-2.06 6.945-2.436 9.324-.742m-142.124 2.054c-.143.231.228.397.876.394.873-.005.99-.093.524-.394-.769-.497-1.093-.497-1.4 0m136.005-.116c-.877.096-1.721.381-1.876.631-.392.635-.34 7.62.062 8.27.554.896 1.73.152 1.46-.924-.65-2.591 1.63-2.699 3.402-.162 1.467 2.101 2.353 2.48 2.338 1.001-.005-.495-.35-1.344-.767-1.887-.761-.991-.559-2.186.486-2.868.656-.428.434-2.379-.361-3.174-.852-.852-2.415-1.144-4.744-.887m-274.005 1.316c-.136.22.134.4.6.4s.736-.18.6-.4-.406-.4-.6-.4-.464.18-.6.4m277.171.229c.869.869.787 1.615-.26 2.348-1.25.876-2.6.778-3.138-.227-1.069-1.997 1.758-3.762 3.398-2.121m-4.695 1.671c-.101.385-.183.07-.183-.7s.082-1.085.183-.7c.1.385.1 1.015 0 1.4m-231.65-.742c-.122.197.042.459.363.583.626.239 1.159-.259.733-.685-.361-.362-.837-.317-1.096.102m-43.426.442c0 .22-.351.4-.78.4s-.958.315-1.175.7c-.317.561-.496.6-.9.2-.406-.402-.372-.5.175-.5.374 0 .68-.27.68-.6 0-.373.378-.6 1-.6.55 0 1 .18 1 .4m253.258 1.382c.518.541 1.004.805 1.08.587.268-.771-.325-1.569-1.167-1.569-.849 0-.849.006.087.982m-29.358.375c-.712.54-1.105 22.089-.448 24.543.311 1.159 13.368 1.404 16.01.3.789-.33 2.139-.6 2.999-.6 1.021 0 1.644-.208 1.794-.6.127-.33.571-.6.988-.6.416 0 .757-.159.757-.353 0-.195.36-.448.8-.563s.8-.046.8.153c0 .2-.172.363-.382.363s-.832.45-1.382 1c-.917.918-.935 1-.218 1 .43 0 .782-.18.782-.4s.225-.406.5-.413c1.109-.03 3.9-3.295 3.9-4.563 0-.474-.326-.318-1.2.576-.66.675-1.2 1.063-1.2.863 0-.201.27-.589.6-.863s.6-.731.6-1.016c0-.284.191-.581.425-.659.564-.188 1.068-7.321.676-9.561-.203-1.16-.146-2.075.167-2.672.366-.698.366-1.018.004-1.38-.363-.363-.472-.222-.472.608 0 1.442-.414 1.337-1.513-.384-.867-1.359-.877-1.456-.2-1.97.642-.487.647-.542.046-.553-.366-.007-.76.212-.875.487-.154.371-.344.334-.738-.147-.714-.871-4.036-2.353-5.274-2.353-.55 0-1.11-.18-1.246-.4-.399-.646-15.834-.501-16.7.157m18.721 1.42c9.439 3.288 10.067 19.475.832 21.448-.689.147-1.491.46-1.783.695-.82.661-15.902.917-16.667.283-.967-.803-.894-22.055.08-23.029 1.053-1.052 14.071-.605 17.538.603m-124.221.799c0 .472-.78.977-1.067.691-.286-.287.219-1.067.691-1.067.207 0 .376.169.376.376m-124.988 10.541c-.171.395-.199.83-.061.967.406.406.733-.164.546-.953-.165-.698-.187-.699-.485-.014m75.388 2.883c0 .33.27.6.6.6s.6.27.6.6.27.6.6.6.6.27.6.6c0 .907-.35.744-2.047-.953s-1.86-2.047-.953-2.047c.33 0 .6.27.6.6m-6.4 3.8c0 .444.267.8.6.8.673 0 .7-.073.357-.967s-.957-.787-.957.167m62.83 1.71c-.049.478-.598.386-.77-.13-.088-.264.056-.408.32-.32s.467.29.45.45m2.37 1.29c0 .33-.158.6-.351.6s-.575-.27-.849-.6c-.416-.501-.358-.6.351-.6.488 0 .849.255.849.6m-48 1c0 .22-.36.4-.8.4s-.8-.18-.8-.4.36-.4.8-.4.8.18.8.4m52 1.2c0 .22-.349.4-.776.4s-.888-.18-1.024-.4c-.14-.227.196-.4.776-.4.563 0 1.024.18 1.024.4m-49.6 2c0 .22.371.4.824.4s.712-.18.576-.4-.507-.4-.824-.4-.576.18-.576.4m40.4 1.2c0 .22.371.4.824.4s.712-.18.576-.4-.507-.4-.824-.4-.576.18-.576.4m-34.708.8c.505.47.648.8.347.8-.282 0-.97-.36-1.53-.8-.776-.611-.858-.8-.346-.8.369 0 1.057.36 1.529.8m49.188-.32c-.373.373-.587.373-.96 0s-.267-.48.48-.48.853.107.48.48m4.35 3.23c-.049.478-.598.386-.77-.13-.088-.264.056-.408.32-.32s.467.29.45.45m-8.247 2.662c.296.479-.457.953-.99.624-.447-.277-.153-.996.407-.996.194 0 .456.168.583.372m1.817 1.628c0 .22.249.4.553.4.305 0 .653.378.773.84.121.463.412.722.647.577s.427-.074.427.159c0 .626 1.623 2.138 1.933 1.803.147-.159.042-.369-.233-.467s-.5-.34-.5-.538-.615-.993-1.367-1.767c-1.348-1.388-2.233-1.787-2.233-1.007m-45.724 3.876c-.123.199-.078.598.1.886s.425.361.548.162.078-.598-.1-.886-.425-.361-.548-.162m-99.233 10.293c.121.313.475.667.788.788.313.12.569.404.569.63 0 .227.36.773.8 1.213 1.854 1.854 1.204.209-.75-1.9-1.297-1.399-1.754-1.637-1.407-.731m14.547 3.731c.006.275-.161.5-.369.5-.429 0-2.421-1.759-2.421-2.137 0-.484 2.781 1.148 2.79 1.637m55.872-.917c-.17.443.014.615.651.611.488-.003.707-.141.487-.305s-.513-.439-.651-.611c-.137-.172-.357-.035-.487.305m4.938 1.989c0 .315.405.643.9.73.82.143.834.186.165.484-.539.239-1.016.045-1.791-.73-1.042-1.042-1.044-1.056-.165-1.056.506 0 .891.247.891.572m-26.2.628c-.136.22.134.4.6.4s.736-.18.6-.4-.406-.4-.6-.4-.464.18-.6.4m54.6.8c0 .44.18.8.4.8s.4-.36.4-.8-.18-.8-.4-.8-.4.36-.4.8" fill="#0e7352"/><path d="m85.8 269.219c-27.402 2.066-44.289 30.722-32.727 55.533 3.929 8.43 12.438 16.373 20.527 19.163 6.775 2.336 6.405 2.285 16.6 2.285 8.036 0 10.121-.124 12.8-.759 5.974-1.417 11.583-3.482 13.9-5.119l1.1-.776v-5.341c0-2.937-.109-5.624-.243-5.972-.257-.671-1.96-.876-2.328-.28-.362.586-9.068 4.667-11.429 5.357-6.625 1.938-6.766 1.956-13.8 1.779-4.569-.116-7.474-.377-8.855-.796-1.975-.6-6.53-2.639-6.945-3.109-.11-.124-.867-.632-1.683-1.127-9.86-5.99-13.774-21.682-8.396-33.657 2.746-6.115 11.632-14 15.777-14 .298 0 .713-.151.922-.335.715-.631 5.669-1.265 9.826-1.257 4.966.01 14.009 1.513 14.988 2.492.164.165.551.3.859.3s2.213.786 4.234 1.746c6.484 3.082 6.273 3.209 6.273-3.773 0-6.616.082-6.515-7.2-8.916-9.196-3.032-16.265-4.037-24.2-3.438m59.2-.02c-6.464.635-16.2 6.3-16.2 9.425 0 .317-.135.577-.3.577-.942.005-2.904 7.143-2.89 10.519.031 7.906 4.737 13.88 16.59 21.063 12.317 7.463 15.461 10.728 15.484 16.078.047 10.943-16.539 12.102-26.965 1.884-4.804-4.708-5.029-4.491-4.728 4.579.204 6.162.235 6.343 1.209 7.085 1.618 1.233 7.705 4.263 9.211 4.586.764.164 1.642.502 1.95.751.863.697 14.641.612 16.439-.102 12.887-5.115 17.967-17.409 12.167-29.444-2.427-5.036-14.722-14.928-22.228-17.884-4.181-1.646-8.483-8.608-7.45-12.057 2.477-8.267 16.14-8.138 26.842.254 1.953 1.531 2.343.422 2.193-6.237-.142-6.342.001-6.083-4.59-8.28-4.952-2.369-10.923-3.367-16.734-2.797m49.8.028c-3.673.37-9.6 2.368-9.6 3.237 0 .185-.25.336-.555.336s-1.7 1.155-3.1 2.566c-2.189 2.208-3.075 3.521-4.764 7.064-3.632 7.618.752 18.678 9.819 24.773 1.1.739 2.09 1.446 2.2 1.571.11.124.83.573 1.6.996.77.424 2.12 1.228 3 1.787s2.23 1.36 3 1.78 1.49.876 1.6 1.014.713.515 1.34.838c8.659 4.469 10.78 14.257 4.082 18.837-5.826 3.984-16.768 1.274-23.302-5.77-3.727-4.018-4.12-3.594-4.12 4.446v6.204l1.351 1.274c1.529 1.441 7.118 4.4 9.123 4.829.729.156 1.579.488 1.887.737 1.025.828 15.113.602 17.039-.273 3.069-1.395 3.611-1.68 5.246-2.765 12.507-8.297 11.036-27.186-2.846-36.556-2.201-1.485-10.588-6.552-10.846-6.552-1.352 0-8.333-6.348-9.182-8.349-4.987-11.755 13.238-15.062 26.31-4.774 2.046 1.611 2.395.682 2.246-5.973-.147-6.596-.001-6.324-4.528-8.461-5.323-2.513-10.87-3.432-17-2.816m149.262.586c-10.517 4.566-7.636 19.787 3.745 19.787 3.232 0 3.924-.233 6.274-2.117 9.004-7.215.488-22.233-10.019-17.67m-60.992.375c-.617.616-.67 3.601-.67 37.631v36.963l.983.644c1.352.886 10.041.701 10.626-.226.221-.35.381-6.978.385-15.9.003-8.415.051-15.333.106-15.373s3.34-.194 7.3-.341c10.84-.405 13.219-.845 18.4-3.41 3.211-1.59 8.6-7.272 8.6-9.068 0-.301.178-.726.396-.944 1.721-1.721 1.83-14.299.146-16.753-.298-.434-.542-1.032-.542-1.328 0-3.167-7.424-9.307-13.47-11.139-4.627-1.402-30.996-2.02-32.26-.756m-183.07.737c8.643 1.749 15.715 4.36 16.145 5.962.501 1.873.285 9.126-.279 9.343-.293.113-1.778-.425-3.3-1.195-26.245-13.282-52.605-.75-51.57 24.516.844 20.59 22.893 32.841 44.004 24.45.44-.175 1.79-.714 3-1.197s3.519-1.582 5.131-2.441c4.223-2.252 4.069-2.372 4.069 3.148 0 5.446-.204 5.928-3.088 7.298-13.245 6.29-33.383 6.406-44.512.255-17.087-9.444-24.665-33.524-15.619-49.63.409-.728.986-1.75 1.281-2.27 8.234-14.476 26.507-21.926 44.738-18.239m54.868-.303c4.449 1.093 8.024 2.644 9.432 4.093.831.855.9 1.291.9 5.682 0 5.589-.12 5.74-2.892 3.656-12.208-9.179-29.56-4.541-25.675 6.862 1.239 3.635 4.741 6.505 16.303 13.355 14.63 8.669 19.327 20.958 12.338 32.282-5.778 9.361-20.344 11.971-32.657 5.851-5.788-2.877-5.753-2.782-5.437-14.992.015-.613.625-.2 2.72 1.845 9.487 9.256 22.773 10.247 27.573 2.055 3.46-5.904-.15-12.264-10.62-18.711-16.781-10.332-19.867-13.973-19.837-23.4.044-13.584 13-22.227 27.852-18.578m50.074 0c3.694.934 5.834 1.786 8.158 3.247l2.1 1.321v5.205c0 5.391-.286 6.189-1.634 4.564-.292-.352-1.483-1.249-2.647-1.993-15.096-9.657-32.776.643-21.207 12.354 2.164 2.19 3.486 3.086 12.879 8.724 7.234 4.342 11.328 8.23 13.642 12.956l1.567 3.2v5.8 5.8l-1.384 2.741c-5.983 11.853-22.691 14.797-36.472 6.425-2.913-1.769-3.221-2.647-3.064-8.731.142-5.5.222-5.554 3.497-2.392 12.212 11.791 32.132 7.334 27.758-6.21-1.057-3.274-9.901-11.633-12.308-11.633-.156 0-.525-.225-.82-.5s-2.461-1.67-4.815-3.1c-12.263-7.452-16.358-17.102-11.635-27.419 3.836-8.379 15.739-13.052 26.385-10.359m25.32.109c-1.078 1.191-1.01 73.63.069 74.607 1.081.978 42.587 1.015 43.98.039.831-.582.889-.923.889-5.21v-4.587l-1.06-.403c-.652-.248-6.985-.387-16.459-.363-12.341.032-15.467-.064-15.734-.487-.184-.29-.338-14.696-.341-32.013-.006-30.716-.025-31.496-.78-31.9-1.449-.776-9.802-.525-10.564.317m121.066.078c4.836 2.139 7.278 8.068 5.09 12.357-3.572 7-12.583 7.565-16.615 1.041-4.621-7.475 3.519-16.939 11.525-13.398m-111.43.242.897.241.103 32.054.102 32.054 16.6.2 16.6.2.114 3.857c.092 3.117-.01 3.981-.529 4.5-.838.839-42.073.995-42.905.163-.696-.696-.696-72.344 0-73.04.505-.505 7.341-.678 9.018-.229m75.575.843c9.465 3.125 13.899 9.339 13.917 19.506.025 14.899-7.304 20.505-27.79 21.253-3.85.141-7.225.433-7.5.65-.384.304-.5 3.939-.5 15.728v15.333l-1.3.239c-.715.132-2.92.185-4.9.118l-3.6-.121-.103-36.4c-.057-20.02-.012-36.64.1-36.934.373-.978 28.501-.42 31.676.628m29.527.106c-1.603.5-3.441 2.26-4.3 4.115-3.244 7.009 4.783 14.067 11.266 9.907 7.758-4.978 1.891-16.789-6.966-14.022m5.662 1.091c3.366 1.392 5.168 6.157 3.528 9.329-.698 1.349-2.19 1.642-2.19.429 0-.413-.27-.975-.6-1.249-.768-.638-.758-1.162.04-2.044 2.502-2.765-.788-6.482-5.123-5.789-1.489.238-1.505.228-.828-.562.864-1.01 2.899-1.055 5.173-.114m-.113 2.48c.795.795 1.017 2.746.361 3.174-1.045.682-1.247 1.877-.486 2.868.417.543.762 1.392.767 1.887.015 1.479-.871 1.1-2.338-1.001-1.772-2.537-4.052-2.429-3.402.162.27 1.076-.906 1.82-1.46.924-.402-.65-.454-7.635-.062-8.27.68-1.101 5.447-.917 6.62.256m-7.349 4.045c0 4.713-.016 4.8-.759 4.1-2.167-2.044-1.681-8.606.659-8.903.055-.007.1 2.154.1 4.803m2.427-3.066c-1.091 2.038 1.055 3.448 3.084 2.027 1.047-.733 1.129-1.479.26-2.348-.969-.97-2.745-.8-3.344.321m2.966.638c.289.468-1.568.998-2.177.622-.236-.146-.325-.433-.199-.638.304-.491 2.07-.479 2.376.016m-54.31 2.986c-.974.974-1.047 22.226-.08 23.029.765.634 15.847.378 16.667-.283.292-.235 1.094-.548 1.783-.695 6.899-1.474 8.948-14.539 3.043-19.406-3.31-2.729-19.348-4.71-21.413-2.645m14.64 1.065c3.513.536 6.328 1.988 7.588 3.915 3.069 4.695 1.828 12.472-2.424 15.182-3.507 2.235-17.51 3.681-19.207 1.984-.52-.52-.723-20.743-.213-21.253.433-.434 11.134-.304 14.256.172m39.562 2.174c.623 1.026 1.389 1.792 1.8 1.8 1.589.028-.836 1.187-2.485 1.187-1.908 0-3.571-.895-2.456-1.323.458-.176.656-.739.656-1.864 0-2.227 1.064-2.141 2.485.2" fill="#959a33"/><path d="m89.6 270.8c-.33.213-2.31.396-4.4.407-2.698.013-4.025.189-4.576.606-.428.323-1.44.587-2.251.587-.823 0-1.695.265-1.973.6-.274.33-.997.6-1.606.6-.616 0-1.211.266-1.339.6-.134.351-.734.6-1.442.6-.812 0-1.213.199-1.213.6 0 .339-.358.6-.824.6-.453 0-.712.18-.576.4s.597.4 1.024.4c1.113 0 .958.668-.224.964-.55.138-1 .428-1 .644 0 .215-.206.392-.457.392s-1.43.831-2.619 1.847c-2.303 1.968-3.247 2.175-1.546.339 2.234-2.41.926-2.399-1.557.014-1.018.99-2.025 1.8-2.236 1.8-.212 0-.385.251-.385.557 0 .307-.27.661-.6.788-.541.207-.891 1.855-.393 1.855.113 0 .983-.81 1.932-1.801s1.84-1.686 1.98-1.546c.14.139-.549 1.07-1.532 2.066-.983.997-1.787 1.937-1.787 2.088 0 .152-.45.762-1 1.355-.924.998-1 1.017-1 .259 0-1.439-1.01-.883-1.778.979-.409.99-.895 1.8-1.082 1.8s-.34.326-.34.724c0 .397-.264 1.072-.587 1.5-.323.427-.593.989-.6 1.25s-.227.981-.488 1.6c-1.356 3.213-2.532 15.913-1.579 17.061.216.26.52 1.596.675 2.969s.419 2.496.586 2.496.421.622.563 1.383c.143.761.522 1.886.842 2.5.321.614.584 1.342.586 1.617.001.275.137.502.302.504s.655.812 1.09 1.8c.841 1.913 1.802 2.385 1.822.896.012-.841.041-.851.447-.152.321.553.307.826-.055 1.05-.543.335-.19 2.002.423 2.002.205 0 .373.178.373.395 0 .8 5.912 6.405 6.757 6.405.463 0 .843-.18.843-.4s-.135-.379-.3-.353c-.825.131-1.3-.106-1.3-.647 0-.33-.18-.6-.4-.6-.484 0-2.136-1.597-1.898-1.835.093-.093.693.286 1.333.842.641.555 1.749 1.411 2.462 1.902 1.42.975 1.651 1.491.67 1.491-.819 0-.508.96.366 1.129.39.076.667-.126.667-.487 0-.384.227-.53.6-.387.693.266.823.994.15.845-.247-.055-.541.152-.653.46-.162.445.155.514 1.55.336.964-.122 1.438-.136 1.053-.03-.949.261-.892 1.334.071 1.334.425 0 1.042.27 1.372.6s.938.6 1.352.6 1.101.264 1.529.587c.427.323 1.226.595 1.776.605.55.009 1.884.285 2.964.612 2.76.838 18.516.843 20.836.008.88-.317 2.35-.585 3.267-.594.916-.01 1.728-.202 1.803-.427.075-.226.853-.526 1.73-.668.876-.143 1.833-.498 2.125-.791.293-.293 1.059-.532 1.704-.532.644 0 1.171-.177 1.171-.392 0-.216.493-.517 1.096-.668 1.918-.481 2.104-.969 2.104-5.511 0-3.929-.405-5.323-1.055-3.629-.127.33-.561.6-.964.6-.404 0-.845.18-.981.4s.123.4.576.4c1.212 0 1.004.652-.437 1.371-1.384.69-2.563.851-1.439.197 1.057-.616.841-1.168-.457-1.168-.66 0-1.256.258-1.388.6-.126.33-.608.6-1.071.6s-1.111.27-1.441.6-1.14.6-1.8.6-1.47.27-1.8.6c-.344.344-1.321.6-2.292.6-.93 0-1.916.225-2.191.5-.365.366-2.584.5-8.259.5-5.674 0-7.894-.134-8.26-.5-.276-.275-1.172-.5-1.992-.5-.821 0-1.762-.27-2.092-.6s-.951-.6-1.379-.6c-.429 0-1.018-.287-1.31-.638-.394-.475-.924-.575-2.069-.392-2.51.401-10.299-5.829-10.299-8.238 0-.928.636-.945 1.168-.032.388.667.408.667.42 0 .011-.629-1.288-2.3-1.788-2.3-.11 0-.2.371-.2.824s-.18.712-.4.576c-.552-.341-.504-1.699.068-1.889.334-.112.277-.538-.2-1.495-.367-.736-.668-1.631-.668-1.988 0-.358-.244-1.005-.542-1.439-1.634-2.38-1.528-15.047.166-19.789.668-1.868 1.717-4.152 2.022-4.4.135-.11.373-.605.527-1.1.155-.495.449-.9.654-.9s.373-.27.373-.6-.18-.6-.4-.6-.4.27-.4.6-.18.6-.4.6c-.598 0-.483-.897.258-2.011 1.074-1.616 5.477-5.989 6.03-5.989.282 0 .512-.159.512-.353 0-.195.36-.448.8-.563.925-.242 1.095.317.2.661-.33.126-.6.416-.6.642 0 .227.27.413.6.413s.6-.177.6-.392c0-.216.45-.506 1-.644s1-.501 1-.807c0-.348.435-.557 1.157-.557.66 0 1.256-.258 1.388-.6.132-.346.73-.6 1.409-.6.649 0 1.245-.198 1.326-.439.08-.242.999-.536 2.042-.653 1.043-.118 1.993-.37 2.111-.561.278-.451 14.053-.455 14.332-.004.116.188 1.249.45 2.517.581 1.268.13 2.368.426 2.445.657.077.23.715.419 1.417.419.703 0 1.633.247 2.067.549s1.374.676 2.089.832c.715.155 1.3.448 1.3.651 0 .202.54.368 1.2.368.8 0 1.2.2 1.2.6 0 .368.374.6.967.6.531 0 1.057.225 1.168.5s.216-1.615.233-4.2l.032-4.7h-.971c-.535 0-1.242-.27-1.572-.6s-1.131-.6-1.779-.6c-.649 0-1.404-.27-1.678-.6s-1.061-.606-1.749-.613-1.6-.277-2.027-.6c-.428-.323-1.351-.587-2.052-.587s-1.921-.27-2.71-.6c-.934-.39-2.762-.6-5.226-.6-2.094 0-3.899-.179-4.036-.4-.307-.497-.631-.497-1.4 0m58.201-.001c-.137.221-1.656.401-3.376.401-2.292 0-3.26.16-3.625.6-.274.33-1.022.6-1.662.6-.665 0-1.262.257-1.393.6-.127.33-.661.6-1.188.6-.562 0-.957.235-.957.571 0 .314-.315.646-.7.738-.65.155-.647.19.04.487.428.185.85.15 1-.084.39-.607 2.06-1.044 2.06-.539 0 .235-.251.427-.557.427-.307 0-1.662 1.08-3.011 2.4-2.733 2.675-2.832 2.73-2.832 1.6 0-.986-.619-1.051-.95-.1-.133.385-.694 1.493-1.246 2.463s-1.004 2.361-1.004 3.092-.288 2.049-.64 2.929c-.587 1.467-.587 1.757 0 3.479.352 1.034.64 2.567.64 3.408s.162 1.529.361 1.529c.198 0 .544.495.767 1.1.77 2.085 2.706 3.922 3.211 3.048.405-.7.516-.665 1.747.56.723.719 1.818 1.754 2.435 2.3 1.02.903 1.046.992.3.992-.463 0-.821.262-.821.6 0 .33.27.6.6.6s.6.16.6.357c0 .196.45.469 1 .607s1 .415 1 .614c0 .421 2.267 1.622 3.061 1.622.297 0 .539-.18.539-.4s-.27-.4-.6-.4-.6-.18-.6-.4c0-.591.478-.476 1.597.384.887.682.921.796.3 1.034-.989.38-.864.853.303 1.146.55.138 1 .428 1 .644 0 .215.341.392.757.392.417 0 .861.27.988.6.126.33.596.6 1.042.6.456 0 .813.264.813.6 0 .33.347.6.771.6.425 0 1.042.27 1.372.6s.838.594 1.128.587c.357-.008.301-.185-.171-.544-.68-.516-.963-1.443-.441-1.443.426 0 3.741 2.826 3.741 3.189 0 .547-1.525-.016-1.77-.654-.123-.322-.42-.465-.658-.317-.259.159.55 1.193 1.997 2.553 1.337 1.256 2.431 2.478 2.431 2.714s.27.533.6.66c.33.126.606.551.613.942.007.392.277 1.062.6 1.489.825 1.092.815 6.738-.013 7.567-.775.775-.811 2.423-.045 2.13.39-.15.494.017.351.566-.294 1.124-3.667 3.967-4.662 3.929-.464-.017-.619-.122-.344-.233s.5-.367.5-.568c0-.561-1.305-.413-2.176.246-.428.323-1.438.587-2.246.587s-2.42.18-3.582.401c-1.215.23-2.3.252-2.554.05-.243-.192-1.406-.438-2.585-.546-1.178-.108-2.285-.427-2.461-.711-.227-.368-.912-.444-2.402-.268-1.883.223-2.271.124-4.039-1.033-2.105-1.379-2.419-1.893-1.155-1.893.44 0 .8-.18.8-.4s-.174-.4-.387-.4c-.465 0-3.039-2.522-3.338-3.27-.117-.291-.226 1.688-.243 4.399-.034 5.179.242 6.086 1.839 6.058.687-.012.684-.046-.042-.596-.424-.32-.658-.695-.521-.832.137-.138.734.13 1.325.595.777.611.893.846.421.846-.36 0-.654.27-.654.6 0 .373.378.6 1 .6s1 .227 1 .6c0 .369.375.6.971.6.535 0 1.242.27 1.572.6s1.108.606 1.728.614c.621.008 1.579.272 2.129.586.752.43 2.585.572 7.4.572s6.648-.142 7.4-.572c.55-.314 1.383-.578 1.851-.586s1.075-.284 1.349-.614.817-.6 1.206-.6c.39 0 .812-.27.939-.6.126-.33.407-.6.623-.6.627 0 4.432-3.976 4.432-4.632 0-.326.27-.697.6-.823.342-.132.6-.728.6-1.388 0-.707.211-1.157.543-1.157 1.235 0 1.237-13.292.001-13.766-.299-.115-.544-.553-.544-.972 0-.42-.27-.988-.6-1.262s-.6-.759-.6-1.078c0-.567-.919-1.722-1.371-1.722-.126 0-.229.27-.229.6s.18.6.4.6.4.36.4.8-.18.8-.4.8-.4-.253-.4-.561c0-1.167-7.18-7.713-9.3-8.479-.96-.347-.878-.814.2-1.134l.9-.267-.9-.367c-.495-.201-.9-.552-.9-.779s-.366-.413-.813-.413c-.446 0-.916-.27-1.042-.6-.127-.33-.661-.6-1.188-.6-1.135 0-1.214.317-.257 1.043.667.506.667.532 0 .544-.385.007-.7-.164-.7-.379 0-.216-.45-.506-1-.644s-1-.392-1-.564-.457-.428-1.016-.568c-1.179-.296-.947-1.019.34-1.059l.876-.027-.9-.434c-.495-.239-.9-.587-.9-.773 0-.187-.382-.339-.849-.339-.715 0-.769.096-.343.61.831 1.001.19 1.08-1.357.167-1.439-.849-1.602-1.577-.352-1.577.533 0 .496-.145-.207-.8-1.011-.942-1.875-1.054-1.547-.2.593 1.547-3.125-1.18-3.955-2.9-.345-.715-.799-1.3-1.009-1.3-.209 0-.381-.27-.381-.6s.18-.6.4-.6.4.27.4.6.18.6.4.6c.606 0 .479-1.178-.2-1.857-.983-.983-.957-8.014.032-8.787.312-.244.568-.649.568-.9 0-.617-1.083-.581-1.335.044-.132.326-.213.28-.233-.133-.018-.349.628-1.294 1.435-2.1 1.42-1.42 2.533-1.889 2.533-1.067 0 .22-.27.4-.6.4s-.6.18-.6.4.27.4.6.4.6-.16.6-.357c0-.196.493-.48 1.096-.631.603-.152 1.226-.486 1.386-.744.397-.642 13.426-.66 13.833-.018.157.247.87.576 1.585.732.715.155 1.3.428 1.3.606 0 .179.45.438 1 .576s1 .428 1 .644c0 .215.199.392.442.392.244 0 1.144.555 2 1.234l1.558 1.233v-4.353c0-4.491-.26-5.314-1.68-5.314-.833 0-.926.434-.24 1.12.373.373.338.48-.157.48-.351 0-.736-.256-.856-.569s-.634-.648-1.143-.746c-.698-.133-.606-.189.376-.231 1.51-.063 1.884-1.246.4-1.267-.495-.007-1.249-.277-1.676-.6-.428-.323-1.082-.587-1.455-.587s-1.193-.269-1.823-.598c-.688-.358-2.236-.598-3.872-.6-1.5-.001-3.064-.182-3.476-.403-.501-.268-.832-.268-.997 0m46.428.394c-2.265.149-3.631.412-3.734.721-.089.267-.575.486-1.079.486-.505 0-1.142.27-1.416.6s-.836.6-1.249.6-.751.27-.751.6-.317.6-.704.6-.928.36-1.203.8c-.296.474-.336.8-.096.8.221 0 .403-.18.403-.4s.341-.4.757-.4c.417 0 .861-.27.988-.6.257-.669 1.855-.833 1.855-.19 0 .225-.451.581-1.003.791-1.182.45-4.997 4.065-4.997 4.735 0 .255-.18.464-.4.464-.572 0-.495-.486.241-1.537.352-.503.53-1.025.396-1.16-.505-.504-2.733 2.576-3.181 4.397-.149.605-.448 1.1-.664 1.1-.237 0-.392 2.206-.392 5.6 0 3.467.152 5.6.4 5.6.22 0 .4.228.4.506 0 .737 1.571 3.579 2.429 4.394.967.918 1.313.885 1.055-.1-.335-1.282.261-.947 2.466 1.385 1.137 1.201 2.378 2.366 2.758 2.588.647.376.645.403-.035.415-.399.007-1.316-.438-2.037-.988-1.422-1.084-1.836-1.22-1.836-.6 0 .22.27.4.6.4s.6.27.6.6.27.6.6.6.6.27.6.6c0 .373.378.6 1 .6.55 0 1-.18 1-.4 0-.68.944-.417 2.2.612 1.165.955 1.172.984.267.986-1.172.003-.95.951.264 1.13.478.07.869.295.869.5s.36.372.8.372c.444 0 .8.267.8.6 0 .667 1.845.856 2.067.213.085-.247.351-.249.733-.006.512.325.497.382-.1.387-1.069.009-.833 1.086.3 1.37.55.138 1 .428 1 .644 0 .215.36.392.8.392.444 0 .8.267.8.6 0 .373.378.6 1 .6.55 0 1-.18 1-.4 0-.56.644-.498 1.271.122.291.288.889.679 1.329.871.773.336.769.353-.1.505-.823.144-1.332 1.302-.572 1.302.459 0 4.072 3.506 4.072 3.95 0 .201.27.468.6.595.33.126.6.491.6.809 0 .319.212.65.471.736 1.094.365 1.094 9.855 0 10.22-.259.086-.471.417-.471.736 0 .318-.27.683-.6.809-.728.28-.789 1.196-.1 1.496.275.119.005.115-.6-.01-.638-.132-1.1-.054-1.1.186 0 .228.313.475.696.548.548.106.416.333-.623 1.073-1.384.985-2.145.903-1.281-.138.636-.766-.748-.894-1.502-.14-1.415 1.415-12.022 1.44-13.786.032-.654-.521-3.104-.863-3.104-.433 0 .182-.36.331-.8.331-1.079 0-1.016-.635.1-1.004l.9-.298-.9-.177c-.495-.097-.9-.434-.9-.749s-.36-.572-.8-.572c-.985 0-1.019.346-.1 1.043.66.501.657.532-.061.544-1.542.026-4.279-2.467-4.056-3.695.139-.768-.043-1.352-.591-1.9-.789-.789-.792-.775-.777 4.108l.015 4.9 1.591 1.1c.874.605 1.835 1.1 2.135 1.1s.77.27 1.044.6.814.6 1.2.6.926.27 1.2.6.994.6 1.6.6 1.749.27 2.538.6c1.995.833 13.204.833 14.662 0 .55-.314 1.405-.578 1.9-.586 1.063-.017 1.219-1.067.2-1.348-.385-.106.02-.116.9-.021 2.011.215 3.834-1.04 2.988-2.059-.418-.505-.346-.78.423-1.598 1.059-1.127 1.589-1.257 1.589-.388 0 .33.099.6.22.6.52 0 2.976-3.063 2.978-3.713.001-.391.272-.816.602-.942.365-.14.6-.745.6-1.542 0-.721.269-1.827.598-2.457.351-.674.597-2.218.597-3.746s-.246-3.072-.597-3.746c-.329-.63-.598-1.678-.598-2.328 0-.651-.27-1.453-.6-1.783s-.6-.928-.6-1.329-.27-.832-.6-.959c-.33-.126-.6-.506-.6-.842 0-.337-.186-.613-.413-.613-.226 0-.53-.307-.674-.682-.333-.869-1.396-2.118-1.802-2.118-.653 0-.265.872.889 2 1.176 1.149 1.593 2.4.8 2.4-.22 0-.4-.148-.4-.329 0-1.027-8.016-8.071-9.184-8.071-.229 0-.416-.18-.416-.4s.45-.4 1-.4 1-.18 1-.4-.257-.4-.571-.4c-.315 0-.854-.283-1.2-.628-.345-.345-1.033-.566-1.528-.49-.856.131-.841.172.299.812.838.471.986.679.492.69-.389.009-1.379-.408-2.2-.926-.821-.517-1.9-1.07-2.398-1.228-1.044-.331-.82-1.03.33-1.03.427 0 .776-.18.776-.4 0-.545-1.897-.51-2.08.039-.091.275-.786.087-1.855-.5-.941-.516-2.105-1.156-2.587-1.422-1.235-.679-4.316-3.817-4.017-4.09.137-.125.329-.002.427.273s.414.5.703.5c.288 0 .631.281.763.625s.43.508.662.365c.478-.295-3.292-4.19-4.055-4.19-.299 0-.207.307.241.802.4.442.652.877.562.968-.266.265-1.318-.682-2.079-1.87-.713-1.115-.444-1.499.435-.62.373.373.48.251.48-.551 0-.567-.27-1.255-.6-1.529-.441-.366-.6-1.337-.6-3.662 0-2.443.137-3.216.6-3.393.662-.254.838-2.145.2-2.145-.636 0-.468-.576.458-1.571.759-.814.901-.846 1.22-.275.471.841.805.815 1.922-.154.507-.44 1.15-.8 1.428-.8s.58-.225.672-.5c.124-.372 1.811-.5 6.613-.5 4.624 0 6.588.141 6.947.5.275.275.88.5 1.344.5.463 0 1.192.264 1.62.587.427.323 1.091.593 1.476.6s.7.262.7.566c0 .774 1.593 1.131 1.866.418.12-.311.379-.467.577-.344.207.127.183.551-.056.997-.323.603-.285.776.17.776.321 0 .667.315.767.7.101.385.204-1.505.23-4.2l.046-4.9h-1c-.622 0-1-.227-1-.6 0-.365-.372-.6-.951-.6-.523 0-1.175-.27-1.449-.6s-1.022-.6-1.663-.6-1.564-.249-2.051-.553c-1.067-.667-6.667-.981-11.657-.654m40.671.309-3.7.128v36.085 36.085l20.9-.2c16.377-.157 20.891-.308 20.86-.7-.022-.275-.067-1.94-.1-3.7l-.06-3.2h-14.576c-9.287 0-14.667.145-14.824.4-.402.65-2.172.457-3.014-.327-.761-.709-.784-1.573-.884-32.667-.067-20.919-.24-31.955-.502-31.985-.22-.026-2.065.011-4.1.081m49.1 35.833v36.214l4.209.125 4.21.126-.11-16-.109-16 5.934.12c3.311.068 6.141-.046 6.4-.255.256-.207 2.536-.508 5.066-.668 2.53-.161 4.705-.457 4.832-.659.128-.201.937-.481 1.797-.62.86-.14 1.804-.493 2.096-.786.293-.293.789-.532 1.104-.532.314 0 .571-.18.571-.4s.23-.4.511-.4c.663 0 2.033-1.596 1.663-1.938-.156-.144-.364-.037-.462.238s-.446.5-.773.5c-.359 0 .241-.96 1.515-2.425 1.934-2.223 2.136-2.354 2.424-1.574.335.903 1.122.745 1.122-.225 0-.317.177-.576.392-.576.216 0 .514-.495.662-1.1s.466-1.228.708-1.385c.801-.522.573-13.874-.262-15.315-.382-.66-.696-1.425-.698-1.7-.001-.275-.17-.5-.375-.5s-.5-.405-.656-.9c-.155-.495-.707-1.296-1.227-1.781-.519-.484-.944-1.069-.944-1.3 0-.23-.27-.419-.6-.419s-.6-.27-.6-.6c0-.373-.378-.6-1-.6-.55 0-1 .18-1 .4s.27.4.6.4.6.195.6.433c0 .239-.135.362-.3.274-.165-.087-.885-.39-1.6-.672-1.442-.569-1.724-1.235-.524-1.235.427 0 .888-.18 1.024-.4s-.039-.4-.389-.4-.74-.27-.866-.6c-.14-.364-.745-.6-1.539-.6-.719 0-1.532-.27-1.806-.6-.277-.334-1.149-.6-1.969-.6-.809 0-1.696-.225-1.971-.5-.374-.375-3.905-.535-14.08-.64l-13.58-.139zm-72.8-32.535c.466.301.349.389-.524.394-.648.003-1.019-.163-.876-.394.307-.497.631-.497 1.4 0m-138.2 1.2c.136.22-.134.4-.6.4s-.736-.18-.6-.4.406-.4.6-.4.464.18.6.4m271.093 1.2c0 .77.082 1.085.183.7.1-.385.1-1.015 0-1.4-.101-.385-.183-.07-.183.7m-230.371-.144c.426.426-.107.924-.733.685-.321-.124-.485-.386-.363-.583.259-.419.735-.464 1.096-.102m-46.522.744c0 .33-.306.6-.68.6-.547 0-.581.098-.175.5.404.4.583.361.9-.2.217-.385.746-.7 1.175-.7s.78-.18.78-.4-.45-.4-1-.4c-.622 0-1 .227-1 .6m256.25.787c.444 1.156-.067 1.36-.992.395-.936-.976-.936-.982-.087-.982.47 0 .955.264 1.079.587m-13.65.613c.136.22.696.4 1.246.4 1.238 0 4.56 1.482 5.274 2.353.394.481.584.518.738.147.115-.275.509-.494.875-.487.601.011.596.066-.046.553-.677.514-.667.611.2 1.97 1.099 1.721 1.513 1.826 1.513.384 0-.83.109-.971.472-.608.362.362.362.682-.004 1.38-.313.597-.37 1.512-.167 2.672.392 2.24-.112 9.373-.676 9.561-.234.078-.425.375-.425.659 0 .285-.27.742-.6 1.016s-.6.662-.6.863c0 .2.54-.188 1.2-.863.874-.894 1.2-1.05 1.2-.576 0 1.268-2.791 4.533-3.9 4.563-.275.007-.5.193-.5.413s-.352.4-.782.4c-.717 0-.699-.082.218-1 .55-.55 1.172-1 1.382-1s.382-.163.382-.363c0-.199-.36-.268-.8-.153s-.8.368-.8.563c0 .194-.341.353-.757.353-.417 0-.861.27-.988.6-.15.392-.773.6-1.794.6-.86 0-2.21.27-2.999.6-2.642 1.104-15.699.859-16.01-.3-.657-2.454-.264-24.003.448-24.543.866-.658 16.301-.803 16.7-.157m-123.216 2.427c-.145.234-.168.522-.051.64.287.286 1.067-.219 1.067-.691 0-.511-.691-.477-1.016.051m-123.549 11.471c-.437.437-.736-.258-.423-.981.298-.685.32-.684.485.014.096.403.068.838-.062.967m73.765 1.549c0 .322 3.031 3.353 3.353 3.353.136 0 .247-.27.247-.6s-.27-.6-.6-.6-.6-.27-.6-.6-.27-.6-.6-.6-.6-.27-.6-.6-.27-.6-.6-.6-.6.111-.6.247m-4.243 3.986c.343.894.316.967-.357.967-.333 0-.6-.356-.6-.8 0-.954.614-1.061.957-.167m61.103 1.747c.088.264.291.467.45.45.478-.049.386-.598-.13-.77-.264-.088-.408.056-.32.32m1.94 1.42c.274.33.656.6.849.6s.351-.27.351-.6c0-.345-.361-.6-.849-.6-.709 0-.767.099-.351.6m-48.4 1c0 .22.36.4.8.4s.8-.18.8-.4-.36-.4-.8-.4-.8.18-.8.4m51.8 1.2c.136.22.597.4 1.024.4s.776-.18.776-.4-.461-.4-1.024-.4c-.58 0-.916.173-.776.4m-46.4 2c.136.22-.123.4-.576.4s-.824-.18-.824-.4.259-.4.576-.4.688.18.824.4m40.4 1.2c.136.22-.123.4-.576.4s-.824-.18-.824-.4.259-.4.576-.4.688.18.824.4m-37.291.8c.56.44 1.248.8 1.53.8.301 0 .158-.33-.347-.8-.472-.44-1.16-.8-1.529-.8-.512 0-.43.189.346.8m49.411-.32c.373.373.587.373.96 0s.267-.48-.48-.48-.853.107-.48.48m4.54 3.1c.088.264.29.467.45.45.478-.049.386-.598-.13-.77-.264-.088-.408.056-.32.32m-8.643 2.792c-.296.479.457.953.99.624.447-.277.153-.996-.407-.996-.194 0-.456.168-.583.372m5.216 2.635c.752.774 1.367 1.569 1.367 1.767s.225.44.5.538.38.308.233.467c-.31.335-1.933-1.177-1.933-1.803 0-.233-.192-.304-.427-.159s-.526-.114-.647-.577c-.12-.462-.468-.84-.773-.84-.304 0-.553-.18-.553-.4 0-.78.885-.381 2.233 1.007m-47.309 3.917c-.123.199-.37.126-.548-.162s-.223-.687-.1-.886.37-.126.548.162.223.687.1.886m-98.474 9.976c1.954 2.109 2.604 3.754.75 1.9-.44-.44-.8-.986-.8-1.213 0-.226-.256-.51-.569-.63-.55-.212-1.222-1.357-.796-1.357.116 0 .752.585 1.415 1.3m10.35 1.363c0 .378 1.992 2.137 2.421 2.137.208 0 .375-.225.369-.5-.009-.489-2.79-2.121-2.79-1.637m59.8 1.026c.22.164.001.302-.487.305-.637.004-.821-.168-.651-.611.13-.34.35-.477.487-.305.138.172.431.447.651.611m3.074 2.167c.775.775 1.252.969 1.791.73.669-.298.655-.341-.165-.484-.495-.087-.9-.415-.9-.73 0-.325-.385-.572-.891-.572-.879 0-.877.014.165 1.056m-24.274.144c.136.22-.134.4-.6.4s-.736-.18-.6-.4.406-.4.6-.4.464.18.6.4m54.2.8c0 .44-.18.8-.4.8s-.4-.36-.4-.8.18-.8.4-.8.4.36.4.8" fill="#046c5c"/></g></svg>