<svg height="1820pt" preserveAspectRatio="xMidYMid meet" viewBox="0 0 3030 1820" width="3030pt" xmlns="http://www.w3.org/2000/svg"><g transform="matrix(.1 0 0 -.1 0 1820)"><path d="m4420 18194c-1102-62-1953-341-2590-851-118-94-356-328-453-447-331-399-550-844-651-1321-54-257-61-337-61-675 1-276 4-333 23-459 47-296 128-552 256-806 140-277 290-479 527-710 262-255 493-410 914-612 407-196 922-376 1331-467 87-19 416-89 729-155 550-116 771-170 920-226 114-43 305-141 376-195 203-152 309-345 309-560 0-221-124-402-356-518-195-99-518-142-954-127-399 13-626 62-880 190-405 204-690 526-823 933-18 54-37 97-42 95-10-3-1390-226-1470-238-23-3-52-8-65-10-23-5-337-56-422-69-21-3-55-9-75-12-204-31-828-135-831-139-13-13 93-352 167-533 262-635 671-1167 1201-1559 685-507 1575-810 2635-899 243-20 805-23 1040-5 1189 90 2169 433 2905 1018 121 96 383 359 481 483 250 317 442 704 539 1089 66 262 92 493 92 806-1 776-206 1372-645 1880-227 263-555 520-897 704-386 208-874 382-1433 512-165 38-264 59-1227 254-643 130-741 156-903 236-107 53-153 86-223 161-107 115-144 214-144 383 0 180 42 287 161 408 64 65 92 85 173 123 103 49 233 86 373 106 131 19 499 15 656-6 396-54 714-191 909-393 122-126 284-391 348-570 13-35 27-60 34-57 13 5 1544 471 2121 646 220 67 404 125 409 129 17 15-142 360-259 565-167 292-353 533-599 779-274 273-548 471-896 645-494 248-1009 387-1680 456-147 15-879 27-1050 18z"/><path d="m8578 18018c44-72 2262-3923 2925-5079l417-726v-2132-2131h1545 1545v2139 2139l216 399c484 890 786 1444 1059 1943 772 1411 1895 3470 1895 3475 0 3-608 4-1352 3l-1352-3-168-320c-93-176-211-401-263-500-774-1483-1310-2495-1319-2492-8 3-218 399-1371 2587l-382 725-1707 3-1708 2z"/><path d="m18780 13000v-5050h1195 1195v3610c0 3464 1 3610 18 3610 15 0 38-75 150-482 117-427 809-2962 1576-5773l262-960 986-3 987-2 10 37c15 57 852 3212 1070 4033 224 845 271 1022 527 1995 107 407 215 817 240 910 25 94 50 187 55 208 7 27 15 37 29 37 20 0 20-30 20-3610v-3610h1470 1470v5050 5050h-2052-2053l-58-213c-75-272-807-2910-1158-4169-148-533-269-970-269-973s-9-5-20-5c-22 0-10-38-175 545-114 403-157 553-410 1445-172 606-654 2310-814 2881-72 256-131 471-131 477 0 9-474 12-2060 12h-2060z"/><path d="m6465 6300-150-150 39-77c278-568 704-1182 1133-1634 907-957 2061-1629 3474-2023 979-272 2125-401 3179-356 2669 114 4807 1078 6178 2789 193 241 367 491 536 774 79 132 243 437 266 495l13 34-148 148-149 149-201-197c-1028-1012-2303-1704-3825-2076-623-152-1351-259-2050-302-58-3-118-8-135-9-207-24-1566-24-1790 0-16 2-84 6-150 9-66 4-133 9-150 11-16 2-73 7-125 10-235 15-717 75-1035 130-1870 321-3373 1057-4570 2237l-191 187z"/></g></svg>