<?xml version="1.0" encoding="UTF-8"?>
<svg xmlns="http://www.w3.org/2000/svg" xmlns:xlink="http://www.w3.org/1999/xlink" width="266.89pt" height="41.28pt" viewBox="0 0 266.89 41.28" version="1.1">
<defs>
<clipPath id="clip1">
  <path d="M 233 0 L 266.890625 0 L 266.890625 41.28125 L 233 41.28125 Z M 233 0 "/>
</clipPath>
<clipPath id="clip2">
  <path d="M 257 36 L 262 36 L 262 41.28125 L 257 41.28125 Z M 257 36 "/>
</clipPath>
<clipPath id="clip3">
  <path d="M 218 36 L 223 36 L 223 41.28125 L 218 41.28125 Z M 218 36 "/>
</clipPath>
<clipPath id="clip4">
  <path d="M 171 36 L 176 36 L 176 41.28125 L 171 41.28125 Z M 171 36 "/>
</clipPath>
</defs>
<g id="surface1">
<path style=" stroke:none;fill-rule:nonzero;fill:rgb(13.699341%,12.199402%,12.5%);fill-opacity:1;" d="M 98.914063 37.988281 L 103.636719 37.988281 L 103.636719 39.140625 L 88.054688 39.140625 L 88.054688 37.988281 L 92.789063 37.988281 L 92.789063 1.226563 L 88.054688 1.226563 L 88.054688 0.0742188 L 114.578125 0.0742188 L 115.242188 8.8125 L 113.945313 8.8125 C 113.394531 5.496094 112.023438 3.664063 110.820313 2.683594 C 109.085938 1.265625 106.808594 1.226563 102.777344 1.226563 L 98.914063 1.226563 L 98.914063 16.832031 C 123.085938 7.910156 144.183594 7.128906 158.445313 8.285156 C 158.953125 7.84375 159.617188 7.394531 160.058594 6.847656 C 162.207031 4.246094 162.4375 2.765625 162.714844 1.601563 L 163.542969 1.601563 L 163.542969 8.8125 C 172.507813 9.925781 177.691406 11.640625 177.691406 11.640625 L 177.691406 14.234375 C 172.820313 13.136719 168.105469 12.316406 163.542969 11.734375 L 163.542969 33.960938 C 163.542969 35.667969 163.488281 37.988281 166.257813 37.988281 C 169.019531 37.988281 169.410156 35.722656 169.578125 34.839844 L 170.796875 34.839844 C 170.519531 36.164063 169.742188 39.777344 164.59375 39.777344 C 161.890625 39.777344 159.691406 38.714844 158.863281 36.496094 C 158.425781 35.449219 158.425781 34.234375 158.425781 31.417969 L 158.425781 11.183594 C 134.445313 9.019531 114.859375 13.507813 98.914063 19.214844 Z M 129.007813 21.734375 C 129.28125 20.960938 129.617188 20.078125 130.390625 18.910156 C 131.664063 17.085938 133.378906 15.871094 135.539063 15.871094 C 137.589844 15.871094 139.140625 17.199219 139.140625 19.132813 C 139.140625 20.730469 137.976563 22 136.261719 22 C 134.765625 22 133.824219 21.0625 133.65625 19.550781 C 133.546875 18.382813 133.546875 18.109375 132.992188 18.109375 C 132.882813 18.109375 131.832031 18.164063 130.667969 20.933594 C 129.121094 24.648438 129.0625 27.378906 129.007813 30.992188 L 129.007813 37.996094 L 132.105469 37.996094 L 132.105469 39.148438 L 120.484375 39.148438 L 120.484375 37.996094 L 123.746094 37.996094 L 123.746094 18.367188 L 120.605469 18.679688 L 120.617188 17.214844 C 120.617188 17.214844 123.96875 16.449219 129.066406 15.960938 Z M 60.691406 22.246094 C 60.964844 21.476563 61.292969 20.601563 62.058594 19.449219 C 63.320313 17.644531 65.019531 16.441406 67.15625 16.441406 C 69.183594 16.441406 70.71875 17.753906 70.71875 19.664063 C 70.71875 21.25 69.566406 22.507813 67.867188 22.507813 C 66.390625 22.507813 65.457031 21.578125 65.292969 20.078125 C 65.183594 18.929688 65.183594 18.652344 64.636719 18.652344 C 64.527344 18.652344 63.484375 18.707031 62.332031 21.453125 C 60.800781 25.125 60.742188 27.832031 60.691406 31.410156 L 60.691406 37.976563 L 63.757813 37.976563 L 63.757813 39.121094 L 52.25 39.121094 L 52.25 37.976563 L 55.480469 37.976563 L 55.480469 18.910156 L 52.371094 19.21875 L 52.382813 17.769531 C 52.382813 17.769531 55.941406 16.945313 60.746094 16.527344 Z M 115.882813 38.003906 L 118.980469 38.003906 L 118.980469 39.15625 L 107.371094 39.15625 L 107.371094 38.003906 L 110.691406 38.003906 L 110.691406 18.886719 C 110.691406 18.886719 114.398438 17.828125 115.894531 17.640625 Z M 74.75 29.757813 C 77.144531 27.796875 80.695313 25.101563 84.714844 22.753906 C 84.507813 19.667969 83.199219 17.582031 80.316406 17.582031 C 77.480469 17.582031 75.871094 19.871094 75.003906 23.25 C 74.9375 23.578125 74.796875 24.28125 74.664063 25.234375 C 74.570313 25.878906 74.570313 26.605469 74.570313 27.265625 C 74.570313 28.101563 74.628906 28.941406 74.75 29.757813 Z M 89.300781 22.257813 C 89.339844 22.363281 89.347656 22.378906 89.390625 22.664063 C 83.269531 25.699219 79.609375 28.121094 75.054688 31.273438 C 75.910156 34.539063 77.964844 37.125 81.742188 37.125 C 84.453125 37.125 87.984375 34.386719 89.015625 32.4375 L 89.082031 32.3125 C 89.273438 32.273438 89.777344 32.375 89.777344 32.527344 C 89.777344 33.0625 88.730469 34.726563 88.386719 35.1875 C 86.234375 38.109375 83.582031 39.46875 79.589844 39.46875 C 73.523438 39.46875 69.480469 33.890625 69.480469 27.6875 C 69.480469 21.238281 74.53125 16.140625 80.558594 16.140625 C 83.910156 16.140625 87.152344 17.597656 88.773438 20.859375 C 89.03125 21.402344 89.179688 21.730469 89.300781 22.257813 Z M 32.613281 3.394531 L 33.160156 12.71875 L 31.746094 12.71875 C 30.652344 7.371094 26.429688 2.300781 20.03125 2.300781 L 19.75 2.285156 C 12.300781 2.285156 6.714844 9.648438 6.714844 21.226563 C 6.714844 27.242188 9.457031 37.679688 20.574219 37.730469 C 24.886719 37.753906 28.390625 36.011719 30.515625 33.621094 C 30.734375 30.410156 33.210938 28.648438 36.648438 27.558594 C 39.070313 26.847656 41.785156 26.402344 44.132813 26.335938 L 44.132813 21.765625 C 44.023438 20.175781 43.910156 17.605469 40.28125 17.605469 C 37.804688 17.605469 35.773438 19.082031 35.773438 19.902344 C 35.773438 20.5625 36.925781 21.273438 36.925781 22.53125 C 36.925781 23.738281 35.882813 24.886719 34.40625 24.886719 C 32.929688 24.886719 32 23.683594 32 22.3125 C 32 19.628906 35.46875 16.277344 41.019531 16.277344 C 43.660156 16.277344 46.3125 17.390625 47.671875 18.699219 C 49.199219 20.285156 49.199219 22.09375 49.199219 24.175781 L 49.199219 34.78125 C 49.199219 36.644531 49.199219 37.957031 50.460938 37.957031 C 50.710938 37.957031 50.808594 37.964844 50.898438 37.945313 C 50.980469 37.925781 51.0625 37.882813 51.253906 37.792969 L 51.257813 38.867188 C 50.609375 39.265625 50.234375 39.433594 48.710938 39.433594 C 47.507813 39.433594 46.363281 39.054688 45.546875 38.402344 C 44.292969 37.371094 44.132813 36.097656 44.023438 35.003906 C 42.816406 37.410156 40.40625 39.527344 36.679688 39.527344 C 33.671875 39.527344 31.242188 38.039063 30.644531 35.410156 C 28.515625 37.753906 24.78125 39.835938 18.28125 39.835938 C 6.941406 39.835938 0 31.402344 0 20.496094 C 0 12.011719 6.128906 1.226563 19.160156 1.226563 C 27.339844 1.355469 28.8125 3.65625 30.1875 3.65625 C 31.136719 3.65625 31.507813 2.761719 32.242188 2.761719 C 32.351563 2.761719 32.613281 2.867188 32.613281 3.394531 Z M 44.132813 30.203125 L 44.132813 27.324219 C 39.859375 27.378906 35.640625 28.703125 35.640625 33.195313 C 35.640625 35.878906 37.339844 37.027344 39.089844 37.027344 C 40.625 37.027344 41.664063 36.207031 42.160156 35.769531 C 43.910156 34.070313 44.023438 32.996094 44.132813 30.203125 Z M 153.117188 23.105469 C 152.523438 19.78125 151.257813 17.003906 147.199219 17.003906 C 145.085938 17.003906 143.304688 17.988281 143.304688 20.242188 C 143.304688 21.707031 143.875 22.554688 145.074219 23.222656 C 145.679688 23.5625 146.382813 23.84375 147.136719 24.113281 C 147.886719 24.382813 148.679688 24.664063 149.492188 24.925781 C 152.109375 25.757813 155.902344 27.730469 155.902344 32.542969 C 155.902344 37.328125 151.476563 39.679688 147.292969 39.679688 C 144.5 39.679688 142.25 39.203125 139.625 38.273438 L 139.625 30.617188 L 141.027344 30.617188 C 141.355469 34.1875 142.835938 38.480469 147.386719 38.503906 C 149.78125 38.523438 152.507813 37.097656 152.507813 34.375 C 152.507813 31.9375 150.4375 30.863281 148.523438 30.078125 C 144.929688 28.601563 139.921875 27.613281 139.921875 22.542969 C 139.921875 17.988281 143.398438 15.546875 147.4375 15.546875 C 149.867188 15.546875 151.96875 16.261719 154.242188 17.003906 L 154.242188 23.105469 L 153.117188 23.105469 "/>
<g clip-path="url(#clip1)" clip-rule="nonzero">
<path style=" stroke:none;fill-rule:nonzero;fill:rgb(0%,57.646179%,81.567383%);fill-opacity:1;" d="M 250.355469 41.28125 C 258.113281 36.996094 262.8125 30.175781 265.234375 22.6875 C 267.746094 14.917969 267.332031 5.730469 264.417969 0 C 259.992188 2.234375 255.535156 3.351563 250.355469 3.367188 C 245.179688 3.382813 240.726563 2.234375 236.300781 0 C 233.390625 5.730469 232.96875 14.917969 235.484375 22.6875 C 237.90625 30.175781 242.605469 36.996094 250.355469 41.28125 "/>
</g>
<path style=" stroke:none;fill-rule:nonzero;fill:rgb(0%,57.646179%,81.567383%);fill-opacity:1;" d="M 216.972656 40.847656 L 216.972656 29.617188 L 228.199219 29.617188 L 228.199219 11.667969 L 216.972656 11.667969 L 216.972656 0.441406 L 199.085938 0.441406 L 199.085938 11.667969 L 187.855469 11.667969 L 187.855469 29.617188 L 199.085938 29.617188 L 199.085938 40.847656 L 216.972656 40.847656 "/>
<path style=" stroke:none;fill-rule:nonzero;fill:rgb(100%,100%,100%);fill-opacity:1;" d="M 197.675781 16.765625 L 205.121094 17.484375 C 206.519531 17.679688 206.679688 19.035156 206.308594 19.847656 L 201.210938 29.414063 L 201.21875 29.402344 C 198.632813 27.371094 196.972656 24.214844 196.972656 20.675781 C 196.972656 19.296875 197.21875 17.980469 197.683594 16.765625 L 197.675781 16.765625 "/>
<path style=" stroke:none;fill-rule:nonzero;fill:rgb(100%,100%,100%);fill-opacity:1;" d="M 208.09375 10.996094 C 206.777344 10.996094 206.371094 12.480469 206.949219 13.25 C 207.472656 13.925781 207.574219 14.125 207.546875 14.765625 C 207.523438 15.300781 207.027344 15.960938 205.898438 15.984375 L 198.007813 15.984375 C 199.773438 12.203125 203.609375 9.585938 208.0625 9.585938 "/>
<path style=" stroke:none;fill-rule:nonzero;fill:rgb(0%,57.646179%,81.567383%);fill-opacity:1;" d="M 198.78125 18.402344 L 204.417969 18.921875 C 204.824219 18.953125 204.851563 19.125 204.761719 19.359375 L 200.8125 26.894531 C 199.378906 25.226563 198.511719 23.050781 198.511719 20.675781 C 198.511719 19.890625 198.605469 19.132813 198.78125 18.402344 "/>
<path style=" stroke:none;fill-rule:nonzero;fill:rgb(0%,57.646179%,81.567383%);fill-opacity:1;" d="M 205.410156 11.5 C 204.847656 12.4375 205.300781 13.65625 205.832031 14.238281 C 205.929688 14.335938 205.878906 14.441406 205.789063 14.46875 L 200.804688 14.46875 C 201.996094 13.070313 203.589844 12.023438 205.410156 11.5 "/>
<path style=" stroke:none;fill-rule:nonzero;fill:rgb(100%,100%,100%);fill-opacity:1;" d="M 218.441406 16.765625 L 210.996094 17.484375 C 209.601563 17.679688 209.441406 19.035156 209.8125 19.847656 L 214.910156 29.414063 L 214.902344 29.402344 C 217.488281 27.371094 219.148438 24.214844 219.148438 20.675781 C 219.148438 19.296875 218.898438 17.980469 218.441406 16.765625 "/>
<path style=" stroke:none;fill-rule:nonzero;fill:rgb(100%,100%,100%);fill-opacity:1;" d="M 208.027344 10.996094 C 209.34375 10.996094 209.75 12.480469 209.171875 13.25 C 208.644531 13.925781 208.546875 14.125 208.574219 14.765625 C 208.59375 15.300781 209.09375 15.960938 210.21875 15.984375 L 218.109375 15.984375 C 216.34375 12.203125 212.507813 9.585938 208.0625 9.585938 "/>
<path style=" stroke:none;fill-rule:nonzero;fill:rgb(0%,57.646179%,81.567383%);fill-opacity:1;" d="M 217.335938 18.402344 L 211.699219 18.921875 C 211.296875 18.953125 211.265625 19.125 211.359375 19.359375 L 215.308594 26.894531 C 216.742188 25.226563 217.609375 23.050781 217.609375 20.675781 C 217.609375 19.890625 217.515625 19.132813 217.335938 18.402344 "/>
<path style=" stroke:none;fill-rule:nonzero;fill:rgb(0%,57.646179%,81.567383%);fill-opacity:1;" d="M 210.714844 11.5 C 211.277344 12.4375 210.820313 13.65625 210.289063 14.238281 C 210.191406 14.335938 210.238281 14.441406 210.328125 14.46875 L 215.316406 14.46875 C 214.121094 13.070313 212.527344 12.023438 210.714844 11.5 "/>
<path style=" stroke:none;fill-rule:nonzero;fill:rgb(100%,100%,100%);fill-opacity:1;" d="M 208.0625 31.765625 C 210.3125 31.765625 212.40625 31.09375 214.15625 29.9375 L 214.15625 29.945313 L 208.753906 21.863281 C 208.371094 21.347656 207.765625 21.300781 207.367188 21.863281 L 201.960938 29.945313 L 201.960938 29.9375 C 203.710938 31.09375 205.808594 31.765625 208.0625 31.765625 "/>
<path style=" stroke:none;fill-rule:nonzero;fill:rgb(100%,100%,100%);fill-opacity:1;" d="M 250.351563 37.8125 C 256.730469 33.859375 260.132813 28.195313 262.3125 21.796875 C 264.246094 16.121094 264.71875 9.480469 262.589844 4.296875 C 259.402344 5.390625 257.535156 5.730469 255.796875 5.996094 C 254.183594 6.253906 252.734375 6.40625 250.367188 6.4375 L 250.351563 6.4375 C 247.984375 6.40625 246.539063 6.253906 244.917969 5.996094 C 243.1875 5.730469 241.316406 5.390625 238.128906 4.296875 C 236 9.480469 236.472656 16.121094 238.40625 21.796875 C 240.582031 28.195313 243.980469 33.859375 250.367188 37.8125 L 250.351563 37.8125 "/>
<path style=" stroke:none;fill-rule:nonzero;fill:rgb(0%,57.646179%,81.567383%);fill-opacity:1;" d="M 250.355469 36.242188 C 254.671875 33.527344 259.566406 27.363281 261.523438 19.257813 C 262.558594 14.957031 262.847656 10.125 261.496094 6.292969 C 259.5625 6.804688 257.761719 7.234375 255.894531 7.484375 C 254.027344 7.734375 252.183594 7.917969 250.367188 7.929688 L 250.351563 7.929688 C 248.535156 7.917969 246.691406 7.734375 244.824219 7.484375 C 242.960938 7.234375 241.15625 6.804688 239.222656 6.292969 C 237.867188 10.125 238.15625 14.957031 239.195313 19.257813 C 241.152344 27.363281 246.046875 33.527344 250.359375 36.242188 L 250.355469 36.242188 "/>
<path style=" stroke:none;fill-rule:nonzero;fill:rgb(100%,100%,100%);fill-opacity:1;" d="M 245.949219 10.808594 C 244.496094 11.566406 243.988281 13.351563 244.644531 14.789063 C 245.207031 16.035156 246.332031 16.863281 247.636719 17.253906 C 248.289063 17.445313 248.949219 17.496094 249.625 17.527344 C 250.453125 17.570313 251.203125 17.59375 252 17.796875 C 252.167969 17.839844 252.351563 17.9375 252.4375 18.105469 C 252.652344 18.503906 252.460938 18.9375 252.039063 19.058594 C 252.03125 19.753906 251.96875 21.152344 251.96875 21.152344 C 251.96875 21.152344 255.355469 20.832031 254.785156 17.785156 C 254.644531 17.054688 254.070313 16.308594 253.417969 15.972656 C 251.71875 15.097656 249.851563 15.476563 248.109375 14.914063 C 247.527344 14.726563 246.710938 14.433594 246.554688 13.777344 C 246.488281 13.511719 246.546875 12.984375 246.816406 12.898438 C 247.261719 12.761719 247.742188 13.125 248.378906 13.273438 C 248.78125 13.367188 249.183594 13.367188 249.496094 13.269531 C 249.636719 13.230469 249.84375 13.171875 249.859375 13.09375 C 249.84375 13.023438 249.6875 12.957031 249.601563 12.917969 C 249.410156 12.816406 249.203125 12.769531 248.992188 12.6875 C 248.640625 12.554688 248.292969 12.386719 247.9375 12.191406 C 248.269531 12.121094 248.828125 12.105469 249.160156 12.144531 C 249.429688 12.175781 250.25 12.164063 250.492188 12.101563 C 250.546875 12.085938 250.667969 12.039063 250.617188 11.945313 C 250.519531 11.785156 250.359375 11.726563 250.253906 11.578125 C 250.011719 11.253906 249.804688 10.917969 249.414063 10.769531 C 248.304688 10.339844 247.058594 10.230469 245.949219 10.808594 "/>
<path style=" stroke:none;fill-rule:nonzero;fill:rgb(100%,100%,100%);fill-opacity:1;" d="M 251.601563 21.675781 L 251.621094 18.125 C 251.621094 18.125 251.164063 18.027344 250.527344 17.984375 C 249.695313 17.929688 249.316406 17.945313 249.316406 17.945313 L 249.316406 18.242188 C 249.316406 18.242188 248.914063 18.410156 248.855469 18.519531 C 248.828125 18.566406 248.71875 18.703125 248.769531 18.835938 C 249.097656 19.710938 249.550781 20.566406 249.679688 21.503906 C 250.296875 21.589844 250.847656 21.570313 251.601563 21.675781 "/>
<path style=" stroke:none;fill-rule:nonzero;fill:rgb(100%,100%,100%);fill-opacity:1;" d="M 247.355469 21.136719 C 247.203125 22.53125 248.113281 23.277344 249.117188 23.519531 C 249.914063 23.707031 250.6875 23.75 251.515625 23.847656 C 251.621094 23.859375 251.84375 23.863281 252.011719 23.933594 C 252.15625 24 252.230469 24.085938 252.261719 24.175781 C 252.296875 24.308594 252.28125 24.40625 252.195313 24.511719 C 252.105469 24.621094 251.867188 24.683594 251.867188 24.683594 L 251.820313 26.363281 C 251.820313 26.363281 252.496094 26.335938 253.042969 26.007813 C 253.5625 25.695313 253.878906 25.300781 253.996094 24.800781 C 254.128906 24.21875 254.035156 23.65625 253.632813 23.097656 C 253.359375 22.722656 252.886719 22.457031 252.40625 22.289063 C 251.421875 21.941406 250.347656 21.992188 249.328125 21.847656 C 249.164063 21.824219 249.023438 21.707031 249.011719 21.5625 C 248.984375 21.304688 249.230469 21.1875 249.230469 21.1875 C 249.230469 21.1875 249.105469 20.789063 248.976563 20.398438 C 248.859375 20.101563 248.695313 19.691406 248.578125 19.476563 C 247.882813 19.773438 247.429688 20.417969 247.355469 21.136719 "/>
<path style=" stroke:none;fill-rule:nonzero;fill:rgb(100%,100%,100%);fill-opacity:1;" d="M 251.515625 24.234375 L 251.488281 27.242188 L 250.734375 26.898438 L 249.992188 26.589844 L 249.976563 24.078125 C 250.644531 24.160156 250.949219 24.164063 251.515625 24.234375 "/>
<path style=" stroke:none;fill-rule:nonzero;fill:rgb(100%,100%,100%);fill-opacity:1;" d="M 248.148438 25.894531 C 247.738281 26.867188 248.253906 27.820313 249.074219 28.226563 C 249.5 28.433594 250.0625 28.625 250.523438 28.800781 C 250.976563 28.976563 251.773438 29.46875 251.835938 29.707031 C 251.875 29.859375 251.703125 29.996094 251.703125 29.996094 L 251.683594 31.171875 C 251.683594 31.171875 252.171875 31.070313 252.535156 30.769531 C 252.875 30.488281 253.125 30.125 253.121094 29.539063 C 253.117188 28.894531 252.820313 28.394531 251.902344 27.859375 C 251.195313 27.441406 250.335938 27.105469 249.667969 26.8125 C 249.570313 26.769531 249.480469 26.578125 249.519531 26.464844 C 249.558594 26.339844 249.636719 26.292969 249.636719 26.292969 L 249.621094 24.933594 C 249.621094 24.933594 249.105469 25.039063 248.863281 25.179688 C 248.636719 25.3125 248.304688 25.535156 248.148438 25.894531 "/>
<path style=" stroke:none;fill-rule:nonzero;fill:rgb(100%,100%,100%);fill-opacity:1;" d="M 251.394531 29.894531 C 251.398438 29.796875 251.367188 29.78125 251.320313 29.714844 C 251.117188 29.507813 250.828125 29.363281 250.757813 29.320313 C 250.550781 29.199219 250.085938 29.023438 250.085938 29.023438 C 250.085938 29.023438 250.117188 32.101563 250.175781 33.691406 C 250.1875 34.050781 250.394531 34.148438 250.734375 34.167969 C 251.164063 34.191406 251.285156 33.925781 251.289063 33.769531 C 251.308594 33.261719 251.371094 31.054688 251.394531 29.894531 "/>
<path style=" stroke:none;fill-rule:nonzero;fill:rgb(100%,100%,100%);fill-opacity:1;" d="M 251.71875 10.09375 C 251.871094 10.207031 251.871094 10.214844 251.917969 10.441406 C 252.023438 10.933594 251.910156 11.703125 252.011719 12.042969 C 252.058594 12.148438 252.167969 12.144531 252.253906 12.101563 C 252.9375 11.734375 253.394531 11.101563 254.089844 10.808594 C 254.410156 10.667969 255.308594 11.121094 255.101563 11.796875 C 255.003906 12.113281 254.859375 12.160156 254.664063 12.363281 C 254.261719 12.78125 253.691406 13.175781 253.195313 13.71875 C 252.863281 14.082031 252.457031 14.347656 252.195313 14.765625 C 252.113281 14.894531 251.980469 15.078125 251.980469 15.078125 C 251.023438 14.882813 250.058594 14.917969 249.3125 14.761719 L 249.3125 13.652344 C 249.3125 13.652344 250.070313 13.527344 250.214844 13.152344 C 250.230469 13.121094 250.203125 12.992188 250.09375 12.910156 C 249.96875 12.8125 249.738281 12.714844 249.671875 12.6875 C 250.433594 12.808594 250.910156 12.933594 251.648438 13.257813 C 251.695313 13.175781 251.667969 12.996094 251.613281 12.933594 C 251.511719 12.820313 251.457031 12.78125 251.199219 12.71875 C 250.742188 12.605469 249.519531 12.453125 249.519531 12.453125 C 249.519531 12.453125 250.085938 12.449219 250.5625 12.371094 C 250.792969 12.335938 250.984375 12.292969 251.03125 12.210938 C 251.089844 12.089844 250.988281 11.914063 250.828125 11.742188 C 250.722656 11.628906 250.597656 11.507813 250.507813 11.386719 C 250.394531 11.234375 250.214844 10.953125 250.015625 10.777344 C 249.839844 10.621094 249.40625 10.402344 249.40625 10.402344 C 249.40625 10.402344 249.332031 9.804688 249.449219 9.566406 C 249.542969 9.390625 249.773438 9.285156 249.894531 9.347656 C 250.445313 9.652344 250.984375 9.96875 251.71875 10.09375 "/>
<path style=" stroke:none;fill-rule:nonzero;fill:rgb(0%,57.646179%,81.567383%);fill-opacity:1;" d="M 249.304688 11.242188 C 249.160156 11.339844 249.0625 11.441406 248.90625 11.46875 C 248.59375 11.519531 248.636719 11.246094 248.425781 11.09375 C 248.289063 11 248.164063 11.121094 248.050781 10.902344 C 248.503906 10.914063 249.101563 10.871094 249.441406 11.222656 C 249.398438 11.199219 249.328125 11.226563 249.304688 11.242188 "/>
<path style=" stroke:none;fill-rule:nonzero;fill:rgb(0%,57.646179%,81.567383%);fill-opacity:1;" d="M 207.902344 23.691406 C 207.988281 23.574219 208.113281 23.570313 208.21875 23.691406 L 211.945313 29.402344 C 210.757813 29.929688 209.445313 30.222656 208.0625 30.222656 C 206.675781 30.222656 205.359375 29.929688 204.175781 29.402344 L 207.902344 23.691406 C 208.007813 23.570313 208.128906 23.574219 208.21875 23.691406 "/>
<path style=" stroke:none;fill-rule:nonzero;fill:rgb(100%,100%,100%);fill-opacity:1;" d="M 249.34375 31.03125 C 249.15625 31.222656 248.851563 31.617188 248.796875 32.242188 C 248.746094 32.804688 248.875 32.964844 249.019531 33.265625 C 249.136719 33.511719 249.402344 33.496094 249.5 33.269531 C 249.578125 33.082031 249.464844 32.90625 249.535156 32.492188 C 249.589844 32.191406 249.828125 32.027344 249.828125 32.027344 L 249.804688 30.65625 C 249.804688 30.65625 249.589844 30.769531 249.34375 31.03125 "/>
<g clip-path="url(#clip2)" clip-rule="nonzero">
<path style=" stroke:none;fill-rule:nonzero;fill:rgb(0%,57.646179%,81.567383%);fill-opacity:1;" d="M 258.824219 38.855469 L 258.824219 38.136719 L 259.3125 38.136719 C 259.558594 38.136719 259.824219 38.191406 259.824219 38.476563 C 259.824219 38.832031 259.554688 38.855469 259.25 38.855469 Z M 258.824219 39.15625 L 259.234375 39.15625 L 259.855469 40.179688 L 260.253906 40.179688 L 259.585938 39.140625 C 259.933594 39.097656 260.195313 38.914063 260.195313 38.496094 C 260.195313 38.039063 259.921875 37.832031 259.363281 37.832031 L 258.464844 37.832031 L 258.464844 40.179688 L 258.824219 40.179688 Z M 259.253906 41.039063 C 260.367188 41.039063 261.3125 40.179688 261.3125 38.996094 C 261.3125 37.832031 260.367188 36.972656 259.253906 36.972656 C 258.136719 36.972656 257.191406 37.832031 257.191406 38.996094 C 257.191406 40.179688 258.136719 41.039063 259.253906 41.039063 Z M 257.601563 38.996094 C 257.601563 38.039063 258.320313 37.308594 259.253906 37.308594 C 260.183594 37.308594 260.90625 38.039063 260.90625 38.996094 C 260.90625 39.980469 260.183594 40.703125 259.253906 40.703125 C 258.320313 40.703125 257.601563 39.980469 257.601563 38.996094 "/>
</g>
<g clip-path="url(#clip3)" clip-rule="nonzero">
<path style=" stroke:none;fill-rule:nonzero;fill:rgb(0%,57.646179%,81.567383%);fill-opacity:1;" d="M 220.441406 38.855469 L 220.441406 38.136719 L 220.925781 38.136719 C 221.175781 38.136719 221.441406 38.191406 221.441406 38.476563 C 221.441406 38.832031 221.171875 38.855469 220.867188 38.855469 Z M 220.441406 39.15625 L 220.855469 39.15625 L 221.476563 40.179688 L 221.871094 40.179688 L 221.203125 39.140625 C 221.546875 39.097656 221.8125 38.914063 221.8125 38.496094 C 221.8125 38.039063 221.535156 37.832031 220.980469 37.832031 L 220.085938 37.832031 L 220.085938 40.179688 L 220.441406 40.179688 Z M 220.871094 41.039063 C 221.984375 41.039063 222.929688 40.179688 222.929688 38.996094 C 222.929688 37.832031 221.984375 36.972656 220.871094 36.972656 C 219.75 36.972656 218.8125 37.832031 218.8125 38.996094 C 218.8125 40.179688 219.75 41.039063 220.871094 41.039063 Z M 219.214844 38.996094 C 219.214844 38.039063 219.9375 37.308594 220.871094 37.308594 C 221.796875 37.308594 222.523438 38.039063 222.523438 38.996094 C 222.523438 39.980469 221.796875 40.703125 220.871094 40.703125 C 219.9375 40.703125 219.214844 39.980469 219.214844 38.996094 "/>
</g>
<g clip-path="url(#clip4)" clip-rule="nonzero">
<path style=" stroke:none;fill-rule:nonzero;fill:rgb(13.699341%,12.199402%,12.5%);fill-opacity:1;" d="M 173.328125 38.871094 L 173.328125 38.152344 L 173.820313 38.152344 C 174.0625 38.152344 174.328125 38.203125 174.328125 38.492188 C 174.328125 38.847656 174.0625 38.871094 173.757813 38.871094 Z M 173.328125 39.171875 L 173.738281 39.171875 L 174.363281 40.195313 L 174.765625 40.195313 L 174.09375 39.15625 C 174.441406 39.113281 174.703125 38.929688 174.703125 38.511719 C 174.703125 38.054688 174.429688 37.847656 173.871094 37.847656 L 172.972656 37.847656 L 172.972656 40.195313 L 173.328125 40.195313 Z M 173.761719 41.050781 C 174.878906 41.050781 175.820313 40.195313 175.820313 39.007813 C 175.820313 37.847656 174.878906 36.988281 173.761719 36.988281 C 172.640625 36.988281 171.699219 37.847656 171.699219 39.007813 C 171.699219 40.195313 172.640625 41.050781 173.761719 41.050781 Z M 172.105469 39.007813 C 172.105469 38.054688 172.828125 37.324219 173.761719 37.324219 C 174.6875 37.324219 175.414063 38.054688 175.414063 39.007813 C 175.414063 39.992188 174.6875 40.71875 173.761719 40.71875 C 172.828125 40.71875 172.105469 39.992188 172.105469 39.007813 "/>
</g>
<path style=" stroke:none;fill-rule:nonzero;fill:rgb(13.699341%,12.199402%,12.5%);fill-opacity:1;" d="M 179.386719 35.101563 L 178.65625 38.535156 L 177.332031 38.535156 L 178.058594 35.101563 L 179.386719 35.101563 "/>
</g>
</svg>
