<?xml version="1.0" encoding="utf-8"?>
<!-- Generator: Adobe Illustrator 22.0.1, SVG Export Plug-In . SVG Version: 6.00 Build 0)  -->
<svg version="1.1" id="Layer_1" xmlns="http://www.w3.org/2000/svg" xmlns:xlink="http://www.w3.org/1999/xlink" x="0px" y="0px"
	 viewBox="0 0 607.6 99.3" style="enable-background:new 0 0 607.6 99.3;" xml:space="preserve">
<style type="text/css">
	.st0{fill:#A49DFF;}
	.st1{fill:#28289A;}
	.st2{fill:#5ADCEE;}
	.st3{fill:#7878FF;}
	.st4{fill:#324063;}
</style>
<g>
	<path class="st0" d="M48.2,7.4c-14.3,0-28.4-0.7-42.4-2C5,21.9,20.3,37.5,39.6,41.3l3.2,0.4c0.9-6.1,5.3-29,6.9-34.4
		C49.2,7.4,48.7,7.4,48.2,7.4z"/>
	<path class="st1" d="M49.7,7.4c0,0,22.8,16.5,31.5,38.6c4-13.2,7-27,9.2-40.6C76.7,6.7,63.2,7.4,49.7,7.4z"/>
	<path class="st2" d="M42.8,41.8L42.3,45c0,0-4.1,33,24.8,42.4C72.5,73.9,77.2,60.1,81.2,46C63.9,44.7,42.8,41.8,42.8,41.8
		L42.8,41.8z"/>
	<path class="st3" d="M49.7,7.4c-1.6,5.4-6,28.2-6.9,34.4c0,0,21.1,2.9,38.4,4.2C72.4,23.9,49.7,7.4,49.7,7.4z"/>
	<g>
		<g>
			<path class="st4" d="M461.9,21c-2.8,0-5.1-2.3-5.1-5.1c0-2.8,2.3-5.1,5.1-5.1c1.4,0,2.6,0.5,3.6,1.5c1,1,1.5,2.2,1.5,3.6
				C467,18.7,464.7,21,461.9,21L461.9,21z"/>
			<path class="st4" d="M278.2,21c-2.8,0-5.1-2.3-5.1-5.1c0-2.8,2.3-5.1,5.1-5.1c1.4,0,2.6,0.5,3.6,1.5c1,1,1.5,2.2,1.5,3.6
				C283.3,18.7,281,21,278.2,21L278.2,21z"/>
			<polygon class="st4" points="274,95.1 274,32.1 282.4,32.1 282.4,95.2 			"/>
			<polygon class="st4" points="457.7,95.1 457.7,32.1 466.1,32.1 466.1,95.2 			"/>
			<polygon class="st4" points="436.4,95.1 436.4,5.3 444.8,5.4 444.8,95.2 			"/>
			<path class="st4" d="M524.8,95.1l0.1-37c0-11.3-6.9-19.1-17.5-19.2c-11.5,0-19.8,8-19.8,18.3l-0.1,37.8l-8.4,0V32.1l8.4,0
				l0.1,7.9l0.5-0.5c5.1-5.2,12.4-8.1,19.7-8.1c13.6,0,25.5,11.5,25.5,24.8l-0.1,39L524.8,95.1z"/>
			<path class="st4" d="M232.5,95.8c-6.5,0-12.9-2.7-17.8-7.5c-4.8-4.7-7.6-11.1-7.6-17.4V32.1l8.4,0V69c0,11.3,6.7,19.4,17.4,19.4
				c11.5,0,19.8-8.3,19.8-18.6l0.1-37.7l8.4,0l-0.1,63.1l-8.4,0l0-8l-0.5,0.5C246.9,92.9,239.8,95.8,232.5,95.8L232.5,95.8z"/>
			<path class="st4" d="M396,31.4c-17.4,0-29.8,13.6-29.9,32.4c0,9.1,2.8,17.3,8.2,23.3c5.5,6,13.3,8.7,22,8.8h0.1
				c15.1,0,22.6-7.6,25.1-10.3l0.4-0.4l-5.9-4.8l-0.1,0.1c-4.9,4.2-9.6,8-19.2,8c-11.9,0-20.6-8-22.1-20.5l0-0.3l50.4,0.1l0.1-0.4
				c0.3-1.2,0.4-3.3,0.4-4.7C425.4,44.5,413.1,31.4,396,31.4z M374.4,60.3l0-0.3c1.2-12.4,10.1-21,21.5-21h0
				c12.1,0,20.6,8.5,21.2,21.1l0,0.3L374.4,60.3z"/>
			<path class="st4" d="M573.8,31.4C556.4,31.4,544,45,544,63.8c0,9.1,2.8,17.3,8.2,23.3c5.5,6,13.3,8.7,22,8.8h0.1
				c15.1,0,22.6-7.6,25.1-10.3l0.4-0.4l-5.9-4.8l-0.1,0.1c-4.9,4.2-9.6,8-19.2,8c-11.9,0-20.6-8-22.1-20.5l0-0.3l50.4,0.1l0.1-0.4
				c0.3-1.2,0.4-3.3,0.4-4.7C603.3,44.5,591,31.4,573.8,31.4z M552.3,60.3l0-0.3c1.2-12.4,10.1-21,21.5-21h0
				c12.1,0,20.6,8.5,21.2,21.1l0,0.3L552.3,60.3z"/>
			<path class="st4" d="M153.2,48l0,7.7l34.1,0.1l0,0.3c-0.8,18.7-13.9,31.3-32.6,31.3c-19.3,0-34.1-15.9-34.1-36.9
				c0-21.7,14.6-37,36.7-37c0,0,6.9-0.1,13.3,2.3c5,1.9,10.2,4.8,14,9.9l6.7-5.5c-5.6-6.7-12.5-11-21.1-13.2l-0.3-0.1
				c-0.4-0.1-0.8-0.2-1.2-0.3l-0.2-0.1c-4.6-1-8.3-1.2-10.2-1.2c-0.3,0-1.2,0-1.2,0c-26.4,0.1-45,18.6-45,45.1
				c0,26.2,17.8,45.2,42.5,45.3c0,0,0.1,0,0.1,0c25,0,41.7-17.1,41.8-42.6l0-5.1L153.2,48z"/>
			<path class="st4" d="M322.9,95.8c-18.7,0-29.3-14.5-29.3-32.4c0-19.4,11.8-32,29.4-32c9.4,0,17.2,3.6,22.9,11.1l0.5,0.7l0.1-37.9
				l8.4,0l-0.2,89.8l-8.4,0l0-11.2l-0.5,0.7C341.7,89.8,334.7,95.8,322.9,95.8L322.9,95.8z M323.4,39c-12.7,0-21.3,10.2-21.3,24.4
				c0,6.8,2,12.9,5.7,17.3c3.9,4.6,9.4,7.7,15.8,7.7c13.2,0,22.8-10.9,22.8-24.9c0-6.6-2.2-12.7-6.3-17.2
				C335.9,41.7,329.8,39,323.4,39L323.4,39z"/>
		</g>
	</g>
</g>
</svg>
