<svg id="svg" version="1.1" xmlns="http://www.w3.org/2000/svg" xmlns:xlink="http://www.w3.org/1999/xlink" width="400" height="89.56127080181544" viewBox="0, 0, 400,89.56127080181544"><g id="svgg"><path id="path0" d="M79.625 0.111 C 79.373 0.154,79.167 0.259,79.167 0.344 C 79.167 0.430,78.942 0.500,78.667 0.500 C 78.392 0.500,78.167 0.566,78.167 0.648 C 78.167 0.729,77.829 0.846,77.417 0.908 C 77.004 0.970,76.667 1.091,76.667 1.177 C 76.667 1.263,76.479 1.333,76.250 1.333 C 76.021 1.333,75.833 1.408,75.833 1.500 C 75.833 1.592,75.608 1.667,75.333 1.667 C 75.058 1.667,74.833 1.742,74.833 1.833 C 74.833 1.925,74.646 2.000,74.417 2.000 C 74.188 2.000,74.000 2.066,74.000 2.148 C 74.000 2.229,73.662 2.346,73.250 2.408 C 72.837 2.470,72.500 2.591,72.500 2.677 C 72.500 2.763,72.275 2.833,72.000 2.833 C 71.725 2.833,71.500 2.908,71.500 3.000 C 71.500 3.092,71.313 3.167,71.083 3.167 C 70.854 3.167,70.667 3.242,70.667 3.333 C 70.667 3.425,70.479 3.500,70.250 3.500 C 70.021 3.500,69.833 3.558,69.833 3.630 C 69.833 3.773,68.067 4.333,67.617 4.333 C 67.461 4.333,67.333 4.408,67.333 4.500 C 67.333 4.592,67.146 4.667,66.917 4.667 C 66.688 4.667,66.500 4.742,66.500 4.833 C 66.500 4.925,66.275 5.000,66.000 5.000 C 65.725 5.000,65.500 5.075,65.500 5.167 C 65.500 5.258,65.350 5.333,65.167 5.333 C 64.983 5.333,64.833 5.401,64.833 5.484 C 64.833 5.567,64.458 5.687,64.000 5.750 C 63.542 5.813,63.167 5.933,63.167 6.016 C 63.167 6.099,62.942 6.167,62.667 6.167 C 62.392 6.167,62.167 6.242,62.167 6.333 C 62.167 6.425,62.017 6.500,61.833 6.500 C 61.650 6.500,61.500 6.575,61.500 6.667 C 61.500 6.758,61.313 6.833,61.083 6.833 C 60.854 6.833,60.667 6.894,60.667 6.967 C 60.667 7.085,59.859 7.321,58.458 7.610 C 58.206 7.662,58.000 7.771,58.000 7.852 C 58.000 7.934,57.850 8.000,57.667 8.000 C 57.483 8.000,57.333 8.075,57.333 8.167 C 57.333 8.258,57.146 8.333,56.917 8.333 C 56.688 8.333,56.500 8.408,56.500 8.500 C 56.500 8.592,56.275 8.667,56.000 8.667 C 55.725 8.667,55.500 8.733,55.500 8.814 C 55.500 8.896,55.163 9.013,54.750 9.075 C 54.337 9.136,54.000 9.257,54.000 9.344 C 54.000 9.430,53.813 9.500,53.583 9.500 C 53.354 9.500,53.167 9.575,53.167 9.667 C 53.167 9.758,52.942 9.833,52.667 9.833 C 52.392 9.833,52.167 9.908,52.167 10.000 C 52.167 10.092,51.979 10.167,51.750 10.167 C 51.521 10.167,51.333 10.232,51.333 10.311 C 51.333 10.391,51.016 10.499,50.629 10.551 C 50.241 10.603,49.897 10.725,49.865 10.823 C 49.832 10.920,49.587 11.000,49.319 11.000 C 49.052 11.000,48.833 11.075,48.833 11.167 C 48.833 11.258,48.646 11.333,48.417 11.333 C 48.188 11.333,48.000 11.408,48.000 11.500 C 48.000 11.592,47.775 11.667,47.500 11.667 C 47.225 11.667,47.000 11.741,47.000 11.831 C 47.000 11.922,46.698 12.044,46.330 12.103 C 45.961 12.162,45.619 12.276,45.570 12.355 C 45.521 12.435,45.297 12.500,45.073 12.500 C 44.850 12.500,44.667 12.575,44.667 12.667 C 44.667 12.758,44.484 12.833,44.260 12.833 C 44.036 12.833,43.807 12.908,43.750 13.000 C 43.693 13.092,43.464 13.167,43.240 13.167 C 43.016 13.167,42.833 13.242,42.833 13.333 C 42.833 13.425,42.683 13.500,42.500 13.500 C 42.317 13.500,42.167 13.568,42.167 13.651 C 42.167 13.734,41.792 13.854,41.334 13.917 C 40.875 13.980,40.458 14.099,40.407 14.182 C 40.356 14.265,40.131 14.333,39.907 14.333 C 39.683 14.333,39.500 14.408,39.500 14.500 C 39.500 14.592,39.350 14.667,39.167 14.667 C 38.983 14.667,38.833 14.742,38.833 14.833 C 38.833 14.925,38.646 15.000,38.417 15.000 C 38.188 15.000,38.000 15.065,38.000 15.145 C 38.000 15.225,37.628 15.340,37.174 15.400 C 36.719 15.460,36.302 15.582,36.247 15.671 C 36.192 15.761,35.964 15.833,35.740 15.833 C 35.516 15.833,35.333 15.908,35.333 16.000 C 35.333 16.092,35.183 16.167,35.000 16.167 C 34.817 16.167,34.667 16.242,34.667 16.333 C 34.667 16.425,34.442 16.500,34.167 16.500 C 33.892 16.500,33.667 16.575,33.667 16.667 C 33.667 16.758,33.479 16.833,33.250 16.833 C 33.021 16.833,32.833 16.900,32.833 16.981 C 32.833 17.062,32.496 17.179,32.083 17.241 C 31.671 17.303,31.333 17.424,31.333 17.510 C 31.333 17.596,31.150 17.667,30.927 17.667 C 30.703 17.667,30.473 17.742,30.417 17.833 C 30.360 17.925,30.131 18.000,29.907 18.000 C 29.683 18.000,29.500 18.075,29.500 18.167 C 29.500 18.258,29.313 18.333,29.083 18.333 C 28.854 18.333,28.667 18.398,28.667 18.478 C 28.667 18.558,28.350 18.665,27.962 18.717 C 27.574 18.769,27.231 18.892,27.198 18.989 C 27.166 19.087,26.920 19.167,26.653 19.167 C 26.385 19.167,26.167 19.242,26.167 19.333 C 26.167 19.425,25.979 19.500,25.750 19.500 C 25.521 19.500,25.333 19.575,25.333 19.667 C 25.333 19.758,25.108 19.833,24.833 19.833 C 24.558 19.833,24.333 19.907,24.333 19.998 C 24.333 20.089,24.032 20.211,23.663 20.270 C 23.294 20.329,22.952 20.442,22.903 20.522 C 22.854 20.602,22.631 20.667,22.407 20.667 C 22.183 20.667,22.000 20.742,22.000 20.833 C 22.000 20.925,21.775 21.000,21.500 21.000 C 21.225 21.000,21.000 21.075,21.000 21.167 C 21.000 21.258,20.813 21.333,20.583 21.333 C 20.354 21.333,20.167 21.408,20.167 21.500 C 20.167 21.592,20.017 21.667,19.833 21.667 C 19.650 21.667,19.500 21.735,19.500 21.818 C 19.500 21.901,19.125 22.020,18.667 22.083 C 18.209 22.146,17.792 22.266,17.740 22.349 C 17.689 22.432,17.464 22.500,17.240 22.500 C 17.016 22.500,16.833 22.575,16.833 22.667 C 16.833 22.758,16.683 22.833,16.500 22.833 C 16.317 22.833,16.167 22.908,16.167 23.000 C 16.167 23.092,15.979 23.167,15.750 23.167 C 15.521 23.167,15.333 23.232,15.333 23.312 C 15.333 23.392,14.961 23.506,14.507 23.567 C 14.052 23.627,13.635 23.749,13.580 23.838 C 13.525 23.927,13.350 24.000,13.190 24.000 C 12.825 24.000,12.003 24.375,12.001 24.542 C 12.001 24.610,11.885 24.667,11.744 24.667 C 11.422 24.667,10.500 25.597,10.500 25.922 C 10.500 26.057,10.425 26.167,10.333 26.167 C 10.242 26.167,10.167 26.317,10.167 26.500 C 10.167 26.683,10.092 26.833,10.000 26.833 C 9.780 26.833,9.780 29.614,10.000 29.750 C 10.092 29.807,10.167 30.036,10.167 30.260 C 10.167 30.484,10.237 30.667,10.323 30.667 C 10.409 30.667,10.530 31.004,10.592 31.417 C 10.654 31.829,10.771 32.167,10.852 32.167 C 10.934 32.167,11.000 32.390,11.000 32.663 C 11.000 33.046,11.090 33.183,11.392 33.259 C 12.167 33.453,19.137 33.263,19.359 33.042 C 19.473 32.927,19.739 32.833,19.950 32.833 C 20.161 32.833,20.333 32.758,20.333 32.667 C 20.333 32.575,20.483 32.500,20.667 32.500 C 20.850 32.500,21.000 32.425,21.000 32.333 C 21.000 32.242,21.225 32.167,21.500 32.167 C 21.775 32.167,22.000 32.100,22.000 32.019 C 22.000 31.938,22.336 31.821,22.746 31.759 C 23.156 31.698,23.536 31.577,23.589 31.490 C 23.643 31.404,23.832 31.333,24.010 31.333 C 24.188 31.333,24.333 31.258,24.333 31.167 C 24.333 31.075,24.558 31.000,24.833 31.000 C 25.108 31.000,25.333 30.925,25.333 30.833 C 25.333 30.742,25.521 30.667,25.750 30.667 C 25.979 30.667,26.167 30.600,26.167 30.519 C 26.167 30.438,26.504 30.321,26.917 30.259 C 27.329 30.197,27.667 30.076,27.667 29.990 C 27.667 29.904,27.850 29.833,28.073 29.833 C 28.297 29.833,28.527 29.758,28.583 29.667 C 28.640 29.575,28.869 29.500,29.093 29.500 C 29.317 29.500,29.500 29.425,29.500 29.333 C 29.500 29.242,29.688 29.167,29.917 29.167 C 30.146 29.167,30.333 29.092,30.333 29.000 C 30.333 28.908,30.558 28.833,30.833 28.833 C 31.108 28.833,31.333 28.763,31.333 28.677 C 31.333 28.591,31.671 28.470,32.083 28.408 C 32.496 28.346,32.833 28.229,32.833 28.148 C 32.833 28.066,33.021 28.000,33.250 28.000 C 33.479 28.000,33.667 27.925,33.667 27.833 C 33.667 27.742,33.892 27.667,34.167 27.667 C 34.442 27.667,34.667 27.592,34.667 27.500 C 34.667 27.408,34.779 27.333,34.917 27.333 C 35.054 27.333,35.167 27.268,35.167 27.188 C 35.167 27.108,35.539 26.994,35.993 26.933 C 36.448 26.873,36.865 26.751,36.920 26.662 C 36.975 26.573,37.150 26.500,37.310 26.500 C 37.675 26.500,38.497 26.125,38.499 25.958 C 38.499 25.890,38.725 25.833,39.000 25.833 C 39.275 25.833,39.500 25.758,39.500 25.667 C 39.500 25.575,39.688 25.500,39.917 25.500 C 40.146 25.500,40.333 25.435,40.333 25.355 C 40.333 25.276,40.650 25.168,41.038 25.116 C 41.426 25.064,41.769 24.942,41.802 24.844 C 41.834 24.747,42.080 24.667,42.347 24.667 C 42.615 24.667,42.833 24.592,42.833 24.500 C 42.833 24.408,43.021 24.333,43.250 24.333 C 43.479 24.333,43.667 24.258,43.667 24.167 C 43.667 24.075,43.892 24.000,44.167 24.000 C 44.442 24.000,44.667 23.934,44.667 23.852 C 44.667 23.771,45.004 23.654,45.417 23.592 C 45.829 23.530,46.167 23.409,46.167 23.323 C 46.167 23.237,46.354 23.167,46.583 23.167 C 46.813 23.167,47.000 23.092,47.000 23.000 C 47.000 22.908,47.225 22.833,47.500 22.833 C 47.775 22.833,48.000 22.758,48.000 22.667 C 48.000 22.575,48.188 22.500,48.417 22.500 C 48.646 22.500,48.833 22.430,48.833 22.344 C 48.833 22.257,49.171 22.136,49.583 22.075 C 49.996 22.013,50.333 21.896,50.333 21.814 C 50.333 21.733,50.516 21.667,50.740 21.667 C 50.964 21.667,51.193 21.592,51.250 21.500 C 51.307 21.408,51.536 21.333,51.760 21.333 C 51.984 21.333,52.167 21.258,52.167 21.167 C 52.167 21.075,52.317 21.000,52.500 21.000 C 52.683 21.000,52.833 20.925,52.833 20.833 C 52.833 20.742,53.021 20.667,53.250 20.667 C 53.479 20.667,53.667 20.601,53.667 20.521 C 53.667 20.442,54.039 20.327,54.493 20.267 C 54.948 20.206,55.365 20.084,55.420 19.995 C 55.475 19.906,55.665 19.833,55.843 19.833 C 56.021 19.833,56.167 19.758,56.167 19.667 C 56.167 19.575,56.354 19.500,56.583 19.500 C 56.813 19.500,57.000 19.425,57.000 19.333 C 57.000 19.242,57.225 19.167,57.500 19.167 C 57.775 19.167,58.000 19.100,58.000 19.019 C 58.000 18.938,58.336 18.821,58.746 18.759 C 59.156 18.698,59.536 18.577,59.589 18.490 C 59.643 18.404,59.832 18.333,60.010 18.333 C 60.188 18.333,60.333 18.258,60.333 18.167 C 60.333 18.075,60.558 18.000,60.833 18.000 C 61.108 18.000,61.333 17.925,61.333 17.833 C 61.333 17.742,61.521 17.667,61.750 17.667 C 61.979 17.667,62.167 17.600,62.167 17.519 C 62.167 17.438,62.504 17.321,62.917 17.259 C 63.329 17.197,63.667 17.076,63.667 16.990 C 63.667 16.904,63.850 16.833,64.073 16.833 C 64.297 16.833,64.527 16.758,64.583 16.667 C 64.640 16.575,64.869 16.500,65.093 16.500 C 65.317 16.500,65.500 16.425,65.500 16.333 C 65.500 16.242,65.688 16.167,65.917 16.167 C 66.146 16.167,66.333 16.092,66.333 16.000 C 66.333 15.908,66.483 15.833,66.667 15.833 C 66.850 15.833,67.000 15.768,67.000 15.688 C 67.000 15.608,67.372 15.494,67.826 15.433 C 68.281 15.373,68.698 15.251,68.753 15.162 C 68.808 15.073,69.036 15.000,69.260 15.000 C 69.484 15.000,69.667 14.925,69.667 14.833 C 69.667 14.742,69.817 14.667,70.000 14.667 C 70.183 14.667,70.333 14.592,70.333 14.500 C 70.333 14.408,70.558 14.333,70.833 14.333 C 71.108 14.333,71.333 14.267,71.333 14.186 C 71.333 14.104,71.669 13.987,72.079 13.926 C 72.490 13.864,72.869 13.743,72.923 13.657 C 72.976 13.571,73.198 13.500,73.417 13.500 C 73.635 13.500,73.860 13.425,73.917 13.333 C 73.973 13.242,74.165 13.167,74.343 13.167 C 74.521 13.167,74.667 13.092,74.667 13.000 C 74.667 12.908,74.854 12.833,75.083 12.833 C 75.313 12.833,75.500 12.758,75.500 12.667 C 75.500 12.575,75.688 12.500,75.917 12.500 C 76.146 12.500,76.333 12.435,76.333 12.355 C 76.333 12.276,76.650 12.168,77.038 12.116 C 77.426 12.064,77.769 11.942,77.802 11.844 C 77.834 11.747,78.080 11.667,78.347 11.667 C 78.615 11.667,78.833 11.592,78.833 11.500 C 78.833 11.408,79.021 11.333,79.250 11.333 C 79.479 11.333,79.667 11.258,79.667 11.167 C 79.667 11.075,79.885 11.000,80.153 11.000 C 80.420 11.000,80.666 10.920,80.698 10.823 C 80.731 10.725,81.074 10.603,81.462 10.551 C 81.850 10.499,82.167 10.391,82.167 10.311 C 82.167 10.232,82.354 10.167,82.583 10.167 C 82.813 10.167,83.000 10.092,83.000 10.000 C 83.000 9.908,83.225 9.833,83.500 9.833 C 83.775 9.833,84.000 9.758,84.000 9.667 C 84.000 9.575,84.112 9.500,84.250 9.500 C 84.387 9.500,84.500 9.435,84.500 9.356 C 84.500 9.277,84.849 9.164,85.275 9.106 C 85.701 9.047,86.132 8.935,86.233 8.855 C 86.947 8.295,87.667 8.657,87.667 9.576 C 87.667 9.990,87.741 10.167,87.917 10.167 C 88.098 10.167,88.167 9.980,88.167 9.488 C 88.167 9.107,88.057 8.700,87.917 8.560 C 87.779 8.422,87.667 8.094,87.667 7.831 C 87.667 7.568,87.592 7.307,87.500 7.250 C 87.408 7.193,87.333 7.016,87.333 6.857 C 87.333 6.492,86.959 5.670,86.792 5.668 C 86.723 5.667,86.667 5.442,86.667 5.167 C 86.667 4.892,86.592 4.667,86.500 4.667 C 86.408 4.667,86.333 4.479,86.333 4.250 C 86.333 4.021,86.268 3.833,86.189 3.833 C 86.109 3.833,86.001 3.516,85.949 3.129 C 85.897 2.741,85.775 2.397,85.677 2.365 C 85.580 2.332,85.500 2.162,85.500 1.986 C 85.500 1.810,85.434 1.667,85.353 1.667 C 85.272 1.667,85.166 1.517,85.119 1.334 C 85.071 1.151,84.893 0.950,84.724 0.887 C 84.555 0.825,84.279 0.618,84.112 0.429 C 83.805 0.083,80.973 -0.118,79.625 0.111 M88.167 11.083 C 88.167 11.404,88.242 11.667,88.333 11.667 C 88.425 11.667,88.500 11.779,88.500 11.917 C 88.500 12.054,88.575 12.167,88.667 12.167 C 88.758 12.167,88.833 12.467,88.833 12.833 C 88.833 13.200,88.908 13.500,89.000 13.500 C 89.092 13.500,89.167 13.688,89.167 13.917 C 89.167 14.269,89.089 14.333,88.667 14.333 C 88.392 14.333,88.167 14.408,88.167 14.500 C 88.167 14.592,87.979 14.667,87.750 14.667 C 87.521 14.667,87.333 14.742,87.333 14.833 C 87.333 14.925,87.108 15.000,86.833 15.000 C 86.558 15.000,86.333 15.075,86.333 15.167 C 86.333 15.258,86.165 15.334,85.958 15.334 C 85.752 15.335,85.369 15.447,85.106 15.584 C 84.843 15.721,84.487 15.833,84.314 15.833 C 84.141 15.833,84.000 15.908,84.000 16.000 C 84.000 16.092,83.817 16.167,83.593 16.167 C 83.369 16.167,83.140 16.242,83.083 16.333 C 83.027 16.425,82.797 16.500,82.573 16.500 C 82.350 16.500,82.167 16.575,82.167 16.667 C 82.167 16.758,82.017 16.833,81.833 16.833 C 81.650 16.833,81.500 16.901,81.500 16.984 C 81.500 17.067,81.125 17.187,80.667 17.250 C 80.209 17.313,79.792 17.433,79.740 17.516 C 79.689 17.599,79.464 17.667,79.240 17.667 C 79.016 17.667,78.833 17.742,78.833 17.833 C 78.833 17.925,78.646 18.000,78.417 18.000 C 78.188 18.000,78.000 18.075,78.000 18.167 C 78.000 18.258,77.850 18.333,77.667 18.333 C 77.483 18.333,77.333 18.399,77.333 18.479 C 77.333 18.558,76.961 18.673,76.507 18.733 C 76.052 18.794,75.635 18.916,75.580 19.005 C 75.525 19.094,75.297 19.167,75.073 19.167 C 74.850 19.167,74.667 19.242,74.667 19.333 C 74.667 19.425,74.517 19.500,74.333 19.500 C 74.150 19.500,74.000 19.575,74.000 19.667 C 74.000 19.758,73.775 19.833,73.500 19.833 C 73.225 19.833,73.000 19.900,73.000 19.981 C 73.000 20.062,72.664 20.179,72.254 20.241 C 71.844 20.302,71.464 20.423,71.411 20.510 C 71.357 20.596,71.168 20.667,70.990 20.667 C 70.812 20.667,70.667 20.742,70.667 20.833 C 70.667 20.925,70.484 21.000,70.260 21.000 C 70.036 21.000,69.807 21.075,69.750 21.167 C 69.693 21.258,69.464 21.333,69.240 21.333 C 69.016 21.333,68.833 21.408,68.833 21.500 C 68.833 21.592,68.646 21.667,68.417 21.667 C 68.188 21.667,68.000 21.732,68.000 21.811 C 68.000 21.891,67.683 21.999,67.295 22.051 C 66.908 22.103,66.564 22.225,66.531 22.323 C 66.499 22.420,66.253 22.500,65.986 22.500 C 65.719 22.500,65.500 22.575,65.500 22.667 C 65.500 22.758,65.313 22.833,65.083 22.833 C 64.854 22.833,64.667 22.908,64.667 23.000 C 64.667 23.092,64.448 23.167,64.181 23.167 C 63.913 23.167,63.668 23.247,63.635 23.344 C 63.603 23.442,63.259 23.564,62.871 23.616 C 62.484 23.668,62.167 23.776,62.167 23.855 C 62.167 23.935,61.979 24.000,61.750 24.000 C 61.521 24.000,61.333 24.075,61.333 24.167 C 61.333 24.258,61.108 24.333,60.833 24.333 C 60.558 24.333,60.333 24.408,60.333 24.500 C 60.333 24.592,60.146 24.667,59.917 24.667 C 59.688 24.667,59.499 24.723,59.499 24.792 C 59.498 24.860,59.029 25.053,58.457 25.220 C 57.885 25.388,57.286 25.594,57.127 25.679 C 56.968 25.764,56.687 25.833,56.502 25.833 C 56.318 25.833,56.167 25.908,56.167 26.000 C 56.167 26.092,56.017 26.167,55.833 26.167 C 55.650 26.167,55.500 26.242,55.500 26.333 C 55.500 26.425,55.313 26.500,55.083 26.500 C 54.854 26.500,54.667 26.565,54.667 26.645 C 54.667 26.725,54.295 26.840,53.840 26.900 C 53.386 26.960,52.969 27.082,52.914 27.171 C 52.859 27.261,52.683 27.333,52.523 27.333 C 52.159 27.333,51.336 27.708,51.335 27.875 C 51.334 27.944,51.108 28.000,50.833 28.000 C 50.558 28.000,50.333 28.075,50.333 28.167 C 50.333 28.258,50.192 28.333,50.019 28.333 C 49.547 28.333,48.000 28.863,48.000 29.025 C 48.000 29.103,47.775 29.167,47.500 29.167 C 47.225 29.167,47.000 29.242,47.000 29.333 C 47.000 29.425,46.813 29.500,46.583 29.500 C 46.354 29.500,46.167 29.575,46.167 29.667 C 46.167 29.758,46.025 29.833,45.852 29.833 C 45.680 29.833,45.323 29.945,45.061 30.082 C 44.798 30.219,44.377 30.332,44.125 30.332 C 43.873 30.333,43.667 30.408,43.667 30.500 C 43.667 30.592,43.479 30.667,43.250 30.667 C 43.021 30.667,42.833 30.742,42.833 30.833 C 42.833 30.925,42.646 31.000,42.417 31.000 C 42.188 31.000,42.000 31.075,42.000 31.167 C 42.000 31.258,41.775 31.333,41.500 31.333 C 41.225 31.333,41.000 31.404,41.000 31.490 C 41.000 31.576,40.662 31.697,40.250 31.759 C 39.837 31.821,39.500 31.938,39.500 32.019 C 39.500 32.100,39.313 32.167,39.083 32.167 C 38.854 32.167,38.667 32.242,38.667 32.333 C 38.667 32.425,38.442 32.500,38.167 32.500 C 37.744 32.500,37.667 32.565,37.667 32.917 L 37.667 33.333 57.917 33.333 C 71.306 33.333,78.167 33.390,78.167 33.500 C 78.167 33.592,78.467 33.667,78.833 33.667 C 79.200 33.667,79.500 33.742,79.500 33.833 C 79.500 33.925,79.612 34.000,79.750 34.000 C 79.887 34.000,80.000 34.075,80.000 34.167 C 80.000 34.258,80.150 34.333,80.333 34.333 C 80.517 34.333,80.667 34.393,80.667 34.466 C 80.667 34.539,80.992 34.733,81.390 34.897 C 81.788 35.061,82.217 35.339,82.344 35.514 C 82.470 35.690,82.635 35.833,82.711 35.833 C 82.787 35.833,83.036 36.021,83.265 36.250 C 83.494 36.479,83.753 36.667,83.841 36.667 C 83.928 36.667,84.000 36.785,84.000 36.929 C 84.000 37.073,84.094 37.295,84.208 37.423 C 84.703 37.974,84.833 38.163,84.833 38.326 C 84.833 38.422,84.908 38.500,85.000 38.500 C 85.092 38.500,85.167 38.650,85.167 38.833 C 85.167 39.017,85.242 39.167,85.333 39.167 C 85.425 39.167,85.500 39.279,85.500 39.417 C 85.500 39.554,85.575 39.667,85.667 39.667 C 85.758 39.667,85.833 39.877,85.833 40.133 C 85.833 40.390,85.927 40.694,86.042 40.808 C 86.197 40.964,86.263 42.346,86.301 46.271 L 86.351 51.526 87.051 51.410 C 87.435 51.346,87.775 51.228,87.806 51.147 C 87.836 51.066,88.080 51.000,88.347 51.000 C 88.615 51.000,88.833 50.925,88.833 50.833 C 88.833 50.742,89.021 50.667,89.250 50.667 C 89.479 50.667,89.667 50.592,89.667 50.500 C 89.667 50.408,89.892 50.333,90.167 50.333 C 90.442 50.333,90.667 50.258,90.667 50.167 C 90.667 50.075,90.854 50.000,91.083 50.000 C 91.313 50.000,91.500 49.930,91.500 49.844 C 91.500 49.757,91.837 49.636,92.250 49.575 C 92.662 49.513,93.000 49.396,93.000 49.314 C 93.000 49.233,93.183 49.167,93.407 49.167 C 93.631 49.167,93.860 49.092,93.917 49.000 C 93.973 48.908,94.203 48.833,94.427 48.833 C 94.650 48.833,94.833 48.758,94.833 48.667 C 94.833 48.575,94.975 48.500,95.148 48.500 C 95.320 48.500,95.677 48.388,95.939 48.251 C 96.202 48.114,96.581 48.002,96.782 48.001 C 96.983 48.000,97.193 47.925,97.250 47.833 C 97.307 47.742,97.536 47.667,97.760 47.667 C 97.984 47.667,98.167 47.592,98.167 47.500 C 98.167 47.408,98.267 47.333,98.390 47.333 C 98.642 47.333,99.667 46.267,99.667 46.004 C 99.667 45.910,99.742 45.833,99.833 45.833 C 99.925 45.833,100.000 45.683,100.000 45.500 C 100.000 45.317,100.075 45.167,100.167 45.167 C 100.266 45.167,100.333 44.531,100.333 43.593 C 100.333 42.724,100.259 41.974,100.167 41.917 C 100.075 41.860,100.000 41.631,100.000 41.407 C 100.000 41.183,99.925 41.000,99.833 41.000 C 99.742 41.000,99.667 40.850,99.667 40.667 C 99.667 40.483,99.606 40.333,99.533 40.333 C 99.415 40.333,99.179 39.525,98.890 38.125 C 98.838 37.873,98.729 37.667,98.648 37.667 C 98.566 37.667,98.500 37.517,98.500 37.333 C 98.500 37.150,98.425 37.000,98.333 37.000 C 98.242 37.000,98.167 36.813,98.167 36.583 C 98.167 36.354,98.092 36.167,98.000 36.167 C 97.908 36.167,97.833 35.942,97.833 35.667 C 97.833 35.392,97.767 35.167,97.686 35.167 C 97.604 35.167,97.487 34.829,97.425 34.417 C 97.364 34.004,97.243 33.667,97.156 33.667 C 97.070 33.667,97.000 33.479,97.000 33.250 C 97.000 33.021,96.925 32.833,96.833 32.833 C 96.742 32.833,96.667 32.650,96.667 32.427 C 96.667 32.203,96.592 31.973,96.500 31.917 C 96.408 31.860,96.333 31.631,96.333 31.407 C 96.333 31.183,96.265 31.000,96.181 31.000 C 96.098 31.000,95.979 30.700,95.917 30.334 C 95.855 29.968,95.736 29.626,95.652 29.574 C 95.568 29.523,95.500 29.297,95.500 29.073 C 95.500 28.850,95.425 28.667,95.333 28.667 C 95.242 28.667,95.167 28.517,95.167 28.333 C 95.167 28.150,95.092 28.000,95.000 28.000 C 94.908 28.000,94.833 27.775,94.833 27.500 C 94.833 27.225,94.767 27.000,94.686 27.000 C 94.604 27.000,94.487 26.664,94.426 26.254 C 94.364 25.844,94.243 25.464,94.157 25.411 C 94.071 25.357,94.000 25.168,94.000 24.990 C 94.000 24.812,93.925 24.667,93.833 24.667 C 93.742 24.667,93.667 24.442,93.667 24.167 C 93.667 23.892,93.592 23.667,93.500 23.667 C 93.408 23.667,93.333 23.479,93.333 23.250 C 93.333 23.021,93.258 22.833,93.167 22.833 C 93.075 22.833,93.000 22.646,93.000 22.417 C 93.000 22.188,92.930 22.000,92.844 22.000 C 92.757 22.000,92.636 21.662,92.574 21.248 C 92.512 20.834,92.395 20.455,92.314 20.405 C 92.233 20.355,92.167 20.131,92.167 19.907 C 92.167 19.683,92.092 19.500,92.000 19.500 C 91.908 19.500,91.833 19.313,91.833 19.083 C 91.833 18.854,91.758 18.667,91.667 18.667 C 91.575 18.667,91.500 18.517,91.500 18.333 C 91.500 18.150,91.440 18.000,91.366 18.000 C 91.248 18.000,91.013 17.192,90.723 15.792 C 90.671 15.540,90.562 15.333,90.481 15.333 C 90.400 15.333,90.333 15.183,90.333 15.000 C 90.333 14.817,90.258 14.667,90.167 14.667 C 90.075 14.667,90.000 14.479,90.000 14.250 C 90.000 14.021,89.925 13.833,89.833 13.833 C 89.742 13.833,89.667 13.608,89.667 13.333 C 89.667 13.058,89.592 12.833,89.500 12.833 C 89.408 12.833,89.333 12.651,89.333 12.429 C 89.333 12.206,89.221 11.911,89.083 11.774 C 88.946 11.636,88.833 11.293,88.833 11.012 C 88.833 10.611,88.761 10.500,88.500 10.500 C 88.230 10.500,88.167 10.611,88.167 11.083 M256.500 43.250 L 256.500 70.333 263.000 70.333 L 269.500 70.333 269.510 62.292 C 269.517 56.002,269.563 54.318,269.718 54.564 C 269.827 54.737,270.085 55.052,270.292 55.265 C 270.498 55.477,270.667 55.729,270.667 55.824 C 270.667 55.919,270.817 56.091,271.000 56.205 C 271.183 56.320,271.333 56.542,271.333 56.699 C 271.333 56.856,271.521 57.172,271.750 57.402 C 271.979 57.631,272.167 57.863,272.167 57.917 C 272.167 57.971,272.354 58.203,272.583 58.432 C 272.813 58.661,273.000 58.941,273.000 59.054 C 273.000 59.167,273.150 59.368,273.333 59.500 C 273.517 59.632,273.667 59.844,273.667 59.970 C 273.667 60.096,273.892 60.410,274.167 60.667 C 274.442 60.924,274.667 61.213,274.667 61.309 C 274.667 61.406,274.854 61.672,275.083 61.902 C 275.313 62.131,275.500 62.380,275.500 62.456 C 275.500 62.531,275.650 62.701,275.833 62.833 C 276.017 62.965,276.167 63.194,276.167 63.341 C 276.167 63.488,276.354 63.785,276.583 64.000 C 276.813 64.215,277.000 64.463,277.000 64.551 C 277.000 64.639,277.137 64.832,277.304 64.980 C 277.470 65.129,277.749 65.494,277.923 65.792 C 278.096 66.090,278.297 66.333,278.369 66.333 C 278.441 66.333,278.500 66.456,278.500 66.605 C 278.500 66.879,279.096 67.500,279.359 67.500 C 279.436 67.500,279.500 67.647,279.500 67.826 C 279.500 68.005,279.688 68.339,279.917 68.568 C 280.146 68.797,280.333 69.047,280.333 69.122 C 280.333 69.198,280.483 69.368,280.667 69.500 C 280.850 69.632,281.000 69.874,281.000 70.037 C 281.000 70.317,281.442 70.333,289.000 70.333 L 297.000 70.333 297.000 69.941 C 297.000 69.714,296.800 69.380,296.525 69.149 C 296.263 68.930,295.952 68.563,295.832 68.333 C 295.712 68.104,295.326 67.635,294.974 67.292 C 294.622 66.948,294.333 66.602,294.333 66.523 C 294.333 66.443,293.921 65.949,293.417 65.424 C 292.912 64.899,292.500 64.402,292.500 64.319 C 292.500 64.236,292.125 63.785,291.667 63.317 C 291.208 62.849,290.833 62.401,290.833 62.322 C 290.833 62.125,289.694 61.000,289.494 61.000 C 289.406 61.000,289.333 60.850,289.333 60.666 C 289.333 60.352,288.252 59.167,287.965 59.167 C 287.893 59.167,287.833 59.028,287.833 58.858 C 287.833 58.689,287.421 58.172,286.917 57.710 C 286.412 57.248,286.000 56.776,286.000 56.660 C 286.000 56.545,285.662 56.131,285.250 55.741 C 284.837 55.352,284.500 54.953,284.500 54.854 C 284.500 54.756,284.162 54.338,283.750 53.925 C 283.337 53.513,283.000 53.112,283.000 53.034 C 283.000 52.829,281.537 51.333,281.336 51.333 C 281.243 51.333,281.167 51.187,281.167 51.008 C 281.167 50.828,280.970 50.485,280.730 50.245 L 280.294 49.809 280.647 49.562 C 280.841 49.426,281.000 49.204,281.000 49.069 C 281.000 48.934,281.262 48.582,281.583 48.288 C 281.904 47.993,282.167 47.692,282.167 47.619 C 282.167 47.545,282.354 47.297,282.583 47.068 C 282.813 46.839,283.000 46.585,283.000 46.504 C 283.000 46.422,283.150 46.308,283.333 46.250 C 283.517 46.192,283.667 46.030,283.667 45.891 C 283.667 45.751,284.004 45.309,284.417 44.908 C 284.829 44.507,285.167 44.099,285.167 44.000 C 285.167 43.901,285.504 43.493,285.917 43.092 C 286.329 42.691,286.667 42.280,286.667 42.179 C 286.667 42.077,287.004 41.671,287.417 41.276 C 287.829 40.881,288.167 40.432,288.167 40.279 C 288.167 40.125,288.238 40.000,288.326 40.000 C 288.471 40.000,288.933 39.564,289.458 38.932 C 289.573 38.794,289.667 38.565,289.667 38.424 C 289.667 38.282,289.741 38.167,289.832 38.167 C 290.044 38.167,291.000 37.171,291.000 36.950 C 291.000 36.858,291.337 36.464,291.750 36.075 C 292.162 35.685,292.500 35.286,292.500 35.188 C 292.500 35.089,292.837 34.671,293.250 34.259 C 293.662 33.846,294.000 33.466,294.000 33.414 C 294.000 33.296,294.260 32.980,294.958 32.246 C 295.256 31.934,295.500 31.635,295.500 31.582 C 295.500 31.463,295.758 31.148,296.458 30.413 C 297.697 29.112,298.023 29.167,289.000 29.167 C 281.711 29.167,281.000 29.191,281.000 29.439 C 281.000 29.713,280.404 30.333,280.141 30.333 C 280.064 30.333,280.000 30.451,280.000 30.595 C 280.000 30.739,279.906 30.962,279.792 31.089 C 279.335 31.598,279.167 31.824,279.167 31.926 C 279.167 31.985,278.942 32.243,278.667 32.500 C 278.392 32.757,278.167 33.031,278.167 33.110 C 278.167 33.189,277.979 33.456,277.750 33.703 C 277.521 33.950,277.333 34.251,277.333 34.373 C 277.333 34.494,277.183 34.701,277.000 34.833 C 276.817 34.965,276.667 35.137,276.667 35.215 C 276.667 35.293,276.573 35.462,276.458 35.589 C 276.002 36.098,275.833 36.324,275.833 36.426 C 275.833 36.485,275.621 36.732,275.361 36.975 C 275.102 37.218,274.839 37.618,274.778 37.864 C 274.716 38.110,274.516 38.359,274.333 38.417 C 274.150 38.475,274.000 38.637,274.000 38.778 C 274.000 38.918,273.775 39.243,273.500 39.500 C 273.225 39.757,273.000 40.046,273.000 40.143 C 273.000 40.239,272.813 40.506,272.583 40.735 C 272.354 40.964,272.167 41.196,272.167 41.250 C 272.167 41.304,271.979 41.550,271.750 41.797 C 271.521 42.044,271.333 42.351,271.333 42.479 C 271.333 42.722,270.718 43.333,270.474 43.333 C 270.397 43.333,270.333 43.449,270.333 43.591 C 270.333 43.732,270.146 44.050,269.917 44.297 L 269.500 44.747 269.500 30.457 L 269.500 16.167 263.000 16.167 L 256.500 16.167 256.500 43.250 M129.000 44.583 L 129.000 70.333 135.417 70.333 L 141.833 70.333 141.833 61.250 L 141.833 52.167 146.167 52.167 C 148.944 52.167,150.500 52.107,150.500 52.000 C 150.500 51.900,151.167 51.833,152.167 51.833 C 153.083 51.833,153.833 51.769,153.833 51.691 C 153.833 51.612,154.413 51.504,155.122 51.451 C 155.830 51.397,156.437 51.274,156.469 51.177 C 156.501 51.079,156.732 51.000,156.981 51.000 C 157.476 51.000,158.330 50.658,158.332 50.458 C 158.333 50.390,158.558 50.333,158.833 50.333 C 159.108 50.333,159.333 50.258,159.333 50.167 C 159.333 50.075,159.414 50.000,159.512 50.000 C 159.610 50.000,159.803 49.887,159.940 49.750 C 160.078 49.612,160.335 49.500,160.512 49.500 C 160.689 49.500,160.833 49.425,160.833 49.333 C 160.833 49.242,160.945 49.167,161.082 49.167 C 161.219 49.167,161.424 49.017,161.539 48.833 C 161.653 48.650,161.852 48.500,161.982 48.500 C 162.111 48.500,162.471 48.237,162.783 47.917 C 163.094 47.596,163.424 47.333,163.516 47.333 C 163.693 47.333,164.500 46.582,164.500 46.417 C 164.500 46.308,164.732 46.015,165.292 45.416 C 165.498 45.196,165.667 44.937,165.667 44.841 C 165.667 44.745,165.731 44.667,165.809 44.667 C 165.888 44.667,166.169 44.179,166.434 43.584 C 166.700 42.988,166.973 42.501,167.042 42.500 C 167.110 42.500,167.167 42.275,167.167 42.000 C 167.167 41.725,167.242 41.500,167.333 41.500 C 167.425 41.500,167.500 41.319,167.500 41.097 C 167.500 40.876,167.573 40.669,167.663 40.639 C 167.752 40.608,167.876 39.927,167.937 39.125 C 167.999 38.323,168.113 37.667,168.191 37.667 C 168.269 37.667,168.333 36.654,168.333 35.417 C 168.333 34.179,168.269 33.167,168.191 33.167 C 168.113 33.167,167.999 32.510,167.937 31.708 C 167.876 30.906,167.752 30.225,167.663 30.194 C 167.573 30.164,167.500 29.920,167.500 29.653 C 167.500 29.385,167.425 29.167,167.333 29.167 C 167.242 29.167,167.167 28.979,167.167 28.750 C 167.167 28.521,167.092 28.333,167.000 28.333 C 166.908 28.333,166.833 28.183,166.833 28.000 C 166.833 27.817,166.768 27.667,166.688 27.667 C 166.607 27.667,166.500 27.460,166.449 27.208 C 166.398 26.956,166.201 26.584,166.011 26.382 C 165.822 26.180,165.667 25.942,165.667 25.853 C 165.667 25.765,165.460 25.461,165.208 25.177 C 163.683 23.464,163.403 23.173,163.275 23.170 C 163.197 23.168,162.924 22.942,162.667 22.667 C 162.410 22.392,162.089 22.167,161.954 22.167 C 161.818 22.167,161.614 22.054,161.500 21.917 C 161.386 21.779,161.189 21.667,161.063 21.667 C 160.937 21.667,160.833 21.592,160.833 21.500 C 160.833 21.408,160.683 21.333,160.500 21.333 C 160.317 21.333,160.167 21.258,160.167 21.167 C 160.167 21.075,160.054 21.000,159.917 21.000 C 159.779 21.000,159.667 20.925,159.667 20.833 C 159.667 20.742,159.517 20.667,159.333 20.667 C 159.150 20.667,159.000 20.596,159.000 20.510 C 159.000 20.424,158.662 20.303,158.250 20.241 C 157.837 20.179,157.500 20.062,157.500 19.981 C 157.500 19.900,157.275 19.833,157.000 19.833 C 156.725 19.833,156.500 19.758,156.500 19.667 C 156.500 19.575,156.237 19.500,155.917 19.500 C 155.596 19.500,155.333 19.425,155.333 19.333 C 155.333 19.242,154.925 19.167,154.427 19.167 C 153.928 19.167,153.473 19.092,153.417 19.000 C 153.350 18.891,149.082 18.833,141.157 18.833 L 129.000 18.833 129.000 44.583 M303.333 36.417 C 303.333 48.028,303.390 54.000,303.500 54.000 C 303.592 54.000,303.667 54.413,303.667 54.917 C 303.667 55.421,303.731 55.833,303.810 55.833 C 303.889 55.833,304.000 56.221,304.056 56.696 C 304.112 57.170,304.235 57.635,304.329 57.729 C 304.423 57.823,304.500 58.020,304.500 58.167 C 304.500 58.513,304.880 59.330,305.042 59.332 C 305.110 59.333,305.167 59.483,305.167 59.667 C 305.167 59.850,305.242 60.000,305.333 60.000 C 305.425 60.000,305.502 60.131,305.505 60.292 C 305.508 60.452,305.621 60.729,305.755 60.907 C 305.890 61.085,306.000 61.349,306.000 61.495 C 306.000 61.641,306.150 61.868,306.333 62.000 C 306.517 62.132,306.667 62.320,306.667 62.417 C 306.667 62.514,306.817 62.701,307.000 62.833 C 307.183 62.965,307.333 63.194,307.333 63.341 C 307.333 63.487,307.690 63.945,308.125 64.358 C 308.560 64.771,309.083 65.291,309.286 65.513 C 309.793 66.067,310.468 66.667,310.585 66.667 C 310.638 66.667,310.869 66.854,311.098 67.083 C 311.328 67.313,311.662 67.500,311.841 67.500 C 312.020 67.500,312.167 67.575,312.167 67.667 C 312.167 67.758,312.279 67.833,312.417 67.833 C 312.554 67.833,312.667 67.908,312.667 68.000 C 312.667 68.092,312.817 68.167,313.000 68.167 C 313.183 68.167,313.333 68.242,313.333 68.333 C 313.333 68.425,313.483 68.500,313.667 68.500 C 313.850 68.500,314.000 68.557,314.000 68.627 C 314.000 68.801,315.257 69.333,315.668 69.333 C 315.851 69.333,316.000 69.408,316.000 69.500 C 316.000 69.592,316.225 69.667,316.500 69.667 C 316.775 69.667,317.000 69.742,317.000 69.833 C 317.000 69.925,317.262 70.000,317.583 70.000 C 317.904 70.000,318.167 70.075,318.167 70.167 C 318.167 70.258,318.489 70.333,318.883 70.333 C 319.277 70.333,319.693 70.426,319.806 70.539 C 320.102 70.835,328.898 70.835,329.194 70.539 C 329.307 70.426,329.723 70.333,330.117 70.333 C 330.511 70.333,330.833 70.258,330.833 70.167 C 330.833 70.075,331.096 70.000,331.417 70.000 C 331.737 70.000,332.000 69.925,332.000 69.833 C 332.000 69.742,332.225 69.667,332.500 69.667 C 332.775 69.667,333.000 69.600,333.000 69.519 C 333.000 69.438,333.337 69.321,333.750 69.259 C 334.162 69.197,334.500 69.090,334.500 69.021 C 334.500 68.952,334.762 68.793,335.083 68.667 C 335.404 68.541,335.667 68.377,335.667 68.302 C 335.667 68.228,335.817 68.167,336.000 68.167 C 336.183 68.167,336.333 68.092,336.333 68.000 C 336.333 67.908,336.446 67.833,336.583 67.833 C 336.721 67.833,336.833 67.758,336.833 67.667 C 336.833 67.575,336.978 67.500,337.155 67.500 C 337.332 67.500,337.589 67.387,337.726 67.250 C 337.864 67.112,338.056 67.000,338.153 67.000 C 338.251 67.000,338.424 66.850,338.539 66.667 C 338.653 66.483,338.846 66.333,338.967 66.333 C 339.268 66.333,342.000 63.624,342.002 63.324 C 342.002 63.192,342.227 62.906,342.502 62.690 C 342.776 62.473,343.000 62.192,343.000 62.065 C 343.000 61.937,343.074 61.833,343.163 61.833 C 343.253 61.833,343.374 61.646,343.432 61.417 C 343.489 61.187,343.603 61.000,343.685 61.000 C 343.766 61.000,343.833 60.850,343.833 60.667 C 343.833 60.483,343.908 60.333,344.000 60.333 C 344.092 60.333,344.167 60.183,344.167 60.000 C 344.167 59.817,344.242 59.667,344.333 59.667 C 344.425 59.667,344.500 59.554,344.500 59.417 C 344.500 59.279,344.570 59.167,344.656 59.167 C 344.743 59.167,344.864 58.829,344.925 58.417 C 344.987 58.004,345.104 57.667,345.186 57.667 C 345.267 57.667,345.333 57.442,345.333 57.167 C 345.333 56.892,345.408 56.667,345.500 56.667 C 345.592 56.667,345.667 56.404,345.667 56.083 C 345.667 55.762,345.742 55.500,345.833 55.500 C 345.925 55.500,346.000 55.167,346.000 54.760 C 346.000 54.353,346.075 53.973,346.167 53.917 C 346.262 53.858,346.333 52.998,346.333 51.907 C 346.333 50.740,346.398 50.000,346.501 50.000 C 346.612 50.000,346.654 44.790,346.626 34.458 L 346.583 18.917 340.125 18.873 L 333.667 18.829 333.667 34.581 C 333.667 44.972,333.610 50.333,333.500 50.333 C 333.406 50.333,333.333 50.806,333.333 51.417 C 333.333 52.028,333.261 52.500,333.167 52.500 C 333.075 52.500,333.000 52.762,333.000 53.083 C 333.000 53.404,332.925 53.667,332.833 53.667 C 332.742 53.667,332.667 53.817,332.667 54.000 C 332.667 54.183,332.609 54.333,332.539 54.333 C 332.469 54.333,332.287 54.622,332.134 54.976 C 331.762 55.834,329.970 57.610,329.335 57.750 C 329.061 57.810,328.794 57.928,328.742 58.013 C 328.690 58.097,328.464 58.167,328.240 58.167 C 328.016 58.167,327.833 58.242,327.833 58.333 C 327.833 58.425,327.496 58.500,327.083 58.500 C 326.671 58.500,326.333 58.575,326.333 58.667 C 326.333 58.767,325.667 58.833,324.667 58.833 C 323.667 58.833,323.000 58.767,323.000 58.667 C 323.000 58.575,322.742 58.500,322.427 58.500 C 322.111 58.500,321.807 58.425,321.750 58.333 C 321.693 58.242,321.464 58.167,321.240 58.167 C 321.016 58.167,320.833 58.098,320.833 58.013 C 320.833 57.929,320.590 57.806,320.292 57.741 C 319.994 57.675,319.629 57.482,319.481 57.311 C 319.332 57.140,319.158 57.000,319.094 57.000 C 318.944 57.000,318.500 56.560,318.500 56.412 C 318.500 56.351,318.275 56.090,318.000 55.833 C 317.725 55.576,317.500 55.246,317.500 55.100 C 317.500 54.953,317.428 54.833,317.341 54.833 C 317.253 54.833,317.133 54.571,317.072 54.250 C 317.012 53.929,316.896 53.667,316.815 53.667 C 316.733 53.667,316.667 53.404,316.667 53.083 C 316.667 52.762,316.592 52.500,316.500 52.500 C 316.406 52.500,316.333 52.028,316.333 51.417 C 316.333 50.806,316.261 50.333,316.167 50.333 C 316.057 50.333,316.000 44.972,316.000 34.583 L 316.000 18.833 309.667 18.833 L 303.333 18.833 303.333 36.417 M83.349 21.947 C 83.970 22.253,84.826 23.128,84.831 23.458 C 84.832 23.573,84.908 23.667,85.000 23.667 C 85.092 23.667,85.167 24.042,85.167 24.500 C 85.167 24.958,85.107 25.333,85.034 25.333 C 84.961 25.333,84.767 25.659,84.603 26.058 C 84.373 26.615,84.154 26.848,83.652 27.070 C 83.293 27.228,83.000 27.427,83.000 27.512 C 83.000 27.597,82.887 27.667,82.750 27.667 C 82.612 27.667,82.500 27.742,82.500 27.833 C 82.500 27.925,82.275 28.000,82.000 28.000 C 81.725 28.000,81.500 28.060,81.500 28.134 C 81.500 28.252,80.692 28.487,79.292 28.777 C 79.040 28.829,78.833 28.938,78.833 29.019 C 78.833 29.100,78.646 29.167,78.417 29.167 C 78.188 29.167,78.000 29.242,78.000 29.333 C 78.000 29.425,77.850 29.500,77.667 29.500 C 77.483 29.500,77.333 29.575,77.333 29.667 C 77.333 29.758,77.108 29.833,76.833 29.833 C 76.558 29.833,76.333 29.908,76.333 30.000 C 76.333 30.099,75.722 30.167,74.833 30.167 C 73.944 30.167,73.333 30.099,73.333 30.000 C 73.333 29.908,73.256 29.833,73.161 29.833 C 72.945 29.833,71.833 28.733,71.833 28.519 C 71.833 28.432,71.750 28.333,71.648 28.299 C 71.535 28.262,71.465 27.796,71.469 27.111 C 71.475 25.975,72.362 24.667,73.125 24.667 C 73.240 24.667,73.333 24.592,73.333 24.500 C 73.333 24.408,73.483 24.333,73.667 24.333 C 73.850 24.333,74.000 24.258,74.000 24.167 C 74.000 24.075,74.188 24.000,74.417 24.000 C 74.646 24.000,74.833 23.935,74.833 23.855 C 74.833 23.775,75.205 23.660,75.660 23.600 C 76.114 23.540,76.531 23.418,76.586 23.329 C 76.641 23.239,76.865 23.167,77.083 23.167 C 77.302 23.167,77.527 23.092,77.583 23.000 C 77.640 22.908,77.869 22.833,78.093 22.833 C 78.317 22.833,78.500 22.758,78.500 22.667 C 78.500 22.575,78.650 22.500,78.833 22.500 C 79.017 22.500,79.167 22.432,79.167 22.349 C 79.167 22.266,79.542 22.146,80.000 22.083 C 80.458 22.020,80.875 21.901,80.926 21.818 C 81.085 21.561,82.749 21.650,83.349 21.947 M192.750 28.667 C 192.693 28.758,192.089 28.833,191.407 28.833 C 190.691 28.833,190.167 28.904,190.167 29.000 C 190.167 29.092,189.829 29.167,189.417 29.167 C 189.004 29.167,188.667 29.242,188.667 29.333 C 188.667 29.425,188.404 29.500,188.083 29.500 C 187.762 29.500,187.500 29.575,187.500 29.667 C 187.500 29.758,187.275 29.833,187.000 29.833 C 186.725 29.833,186.500 29.902,186.500 29.987 C 186.500 30.071,186.256 30.190,185.958 30.251 C 185.248 30.396,184.500 30.715,184.500 30.874 C 184.500 30.943,184.350 31.000,184.167 31.000 C 183.983 31.000,183.833 31.075,183.833 31.167 C 183.833 31.258,183.683 31.333,183.500 31.333 C 183.317 31.333,183.167 31.403,183.167 31.489 C 183.167 31.574,182.998 31.697,182.792 31.763 C 182.585 31.828,182.295 32.020,182.147 32.191 C 181.999 32.361,181.760 32.500,181.617 32.500 C 181.473 32.500,181.309 32.646,181.253 32.825 C 181.196 33.003,181.003 33.196,180.825 33.253 C 180.646 33.309,180.500 33.426,180.500 33.511 C 180.500 33.597,180.406 33.667,180.291 33.667 C 180.097 33.667,179.000 34.739,179.000 34.928 C 179.000 34.974,178.737 35.274,178.417 35.594 C 178.096 35.915,177.833 36.271,177.833 36.385 C 177.833 36.500,177.683 36.701,177.500 36.833 C 177.317 36.965,177.167 37.190,177.167 37.333 C 177.167 37.476,177.019 37.699,176.839 37.829 C 176.660 37.959,176.466 38.274,176.410 38.530 C 176.354 38.787,176.238 39.039,176.154 39.091 C 176.069 39.144,176.000 39.332,176.000 39.510 C 176.000 39.688,175.925 39.833,175.833 39.833 C 175.742 39.833,175.667 40.021,175.667 40.250 C 175.667 40.479,175.592 40.667,175.500 40.667 C 175.408 40.667,175.333 40.817,175.333 41.000 C 175.333 41.183,175.258 41.333,175.167 41.333 C 175.075 41.333,175.000 41.506,175.000 41.717 C 175.000 41.927,174.927 42.173,174.838 42.262 C 174.749 42.351,174.626 42.966,174.564 43.629 C 174.503 44.291,174.388 44.833,174.309 44.833 C 174.231 44.833,174.167 45.321,174.167 45.917 C 174.167 46.528,174.094 47.000,174.000 47.000 C 173.896 47.000,173.833 48.028,173.833 49.750 C 173.833 51.472,173.896 52.500,174.000 52.500 C 174.095 52.500,174.167 53.000,174.167 53.667 C 174.167 54.308,174.234 54.833,174.316 54.833 C 174.399 54.833,174.519 55.359,174.583 56.001 C 174.648 56.643,174.768 57.210,174.850 57.260 C 174.933 57.311,175.000 57.536,175.000 57.760 C 175.000 57.984,175.075 58.167,175.167 58.167 C 175.258 58.167,175.333 58.317,175.333 58.500 C 175.333 58.683,175.408 58.833,175.500 58.833 C 175.592 58.833,175.667 59.021,175.667 59.250 C 175.667 59.479,175.742 59.667,175.833 59.667 C 175.925 59.667,176.000 59.812,176.000 59.990 C 176.000 60.168,176.069 60.356,176.154 60.409 C 176.238 60.461,176.354 60.713,176.410 60.970 C 176.466 61.226,176.660 61.541,176.839 61.671 C 177.019 61.801,177.167 62.035,177.167 62.192 C 177.167 62.349,177.317 62.525,177.500 62.583 C 177.683 62.642,177.833 62.832,177.833 63.006 C 177.833 63.180,178.096 63.585,178.417 63.906 C 178.737 64.226,179.000 64.530,179.000 64.579 C 179.000 64.753,179.921 65.619,180.333 65.833 C 180.563 65.952,180.930 66.263,181.149 66.525 C 181.369 66.786,181.650 67.000,181.774 67.000 C 181.898 67.000,182.000 67.070,182.000 67.155 C 182.000 67.241,182.169 67.364,182.375 67.429 C 182.581 67.494,182.871 67.687,183.020 67.857 C 183.168 68.027,183.412 68.167,183.561 68.167 C 183.711 68.167,183.833 68.242,183.833 68.333 C 183.833 68.425,183.983 68.500,184.167 68.500 C 184.350 68.500,184.500 68.557,184.500 68.627 C 184.500 68.801,185.757 69.333,186.168 69.333 C 186.351 69.333,186.500 69.408,186.500 69.500 C 186.500 69.592,186.725 69.667,187.000 69.667 C 187.275 69.667,187.500 69.742,187.500 69.833 C 187.500 69.925,187.688 70.000,187.917 70.000 C 188.146 70.000,188.333 70.075,188.333 70.167 C 188.333 70.258,188.581 70.333,188.883 70.333 C 189.186 70.333,189.527 70.427,189.642 70.542 C 189.798 70.698,191.002 70.750,194.500 70.750 C 197.998 70.750,199.202 70.698,199.358 70.542 C 199.473 70.427,199.810 70.333,200.107 70.333 C 200.404 70.333,200.693 70.258,200.750 70.167 C 200.807 70.075,201.111 70.000,201.427 70.000 C 201.742 70.000,202.000 69.925,202.000 69.833 C 202.000 69.742,202.112 69.667,202.250 69.667 C 202.387 69.667,202.500 69.592,202.500 69.500 C 202.500 69.408,202.687 69.333,202.916 69.333 C 203.390 69.333,204.667 68.819,204.667 68.627 C 204.667 68.557,204.817 68.500,205.000 68.500 C 205.183 68.500,205.333 68.425,205.333 68.333 C 205.333 68.242,205.418 68.167,205.522 68.167 C 205.626 68.167,205.832 68.029,205.980 67.860 C 206.129 67.691,206.456 67.502,206.708 67.440 C 206.960 67.378,207.167 67.253,207.167 67.163 C 207.167 67.074,207.243 67.000,207.337 67.000 C 207.585 67.000,210.667 63.924,210.667 63.677 C 210.667 63.561,210.892 63.257,211.167 63.000 C 211.442 62.743,211.667 62.485,211.667 62.426 C 211.667 62.367,211.813 62.162,211.992 61.971 C 212.170 61.779,212.364 61.407,212.422 61.144 C 212.479 60.882,212.596 60.667,212.680 60.667 C 212.764 60.667,212.833 60.517,212.833 60.333 C 212.833 60.150,212.908 60.000,213.000 60.000 C 213.092 60.000,213.167 59.850,213.167 59.667 C 213.167 59.483,213.242 59.333,213.333 59.333 C 213.425 59.333,213.500 59.152,213.500 58.931 C 213.500 58.709,213.574 58.503,213.665 58.472 C 213.756 58.442,213.879 57.948,213.939 57.375 L 214.047 56.333 207.350 56.333 L 200.652 56.333 200.242 56.742 C 200.017 56.967,199.833 57.227,199.833 57.319 C 199.833 57.805,197.598 59.667,197.016 59.667 C 196.835 59.667,196.640 59.742,196.583 59.833 C 196.527 59.925,196.147 60.000,195.740 60.000 C 195.333 60.000,195.000 60.075,195.000 60.167 C 195.000 60.258,194.588 60.333,194.083 60.333 C 193.579 60.333,193.167 60.258,193.167 60.167 C 193.167 60.075,192.904 60.000,192.583 60.000 C 192.262 60.000,192.000 59.925,192.000 59.833 C 192.000 59.742,191.789 59.667,191.532 59.667 C 191.274 59.667,190.918 59.557,190.740 59.422 C 190.562 59.287,190.325 59.175,190.213 59.172 C 189.958 59.165,188.333 57.512,188.333 57.260 C 188.333 57.157,188.181 56.964,187.996 56.830 C 187.807 56.694,187.613 56.309,187.557 55.956 C 187.502 55.610,187.391 55.286,187.311 55.236 C 187.232 55.187,187.167 54.889,187.167 54.573 C 187.167 54.258,187.092 54.000,187.000 54.000 C 186.908 54.000,186.833 53.775,186.833 53.500 L 186.833 53.000 200.917 53.000 L 215.000 53.000 215.000 49.010 C 215.000 46.530,214.937 44.981,214.833 44.917 C 214.742 44.860,214.667 44.523,214.667 44.167 C 214.667 43.811,214.592 43.473,214.500 43.417 C 214.408 43.360,214.333 43.056,214.333 42.740 C 214.333 42.425,214.267 42.167,214.186 42.167 C 214.104 42.167,213.987 41.829,213.925 41.417 C 213.864 41.004,213.743 40.667,213.656 40.667 C 213.570 40.667,213.500 40.479,213.500 40.250 C 213.500 40.021,213.425 39.833,213.333 39.833 C 213.242 39.833,213.167 39.683,213.167 39.500 C 213.167 39.317,213.092 39.167,213.000 39.167 C 212.908 39.167,212.833 39.017,212.833 38.833 C 212.833 38.650,212.766 38.500,212.685 38.500 C 212.603 38.500,212.489 38.313,212.432 38.083 C 212.374 37.854,212.253 37.667,212.163 37.667 C 212.074 37.667,212.000 37.533,212.000 37.370 C 212.000 37.207,211.850 36.965,211.667 36.833 C 211.483 36.701,211.333 36.531,211.333 36.456 C 211.333 36.380,211.146 36.131,210.917 35.902 C 210.688 35.672,210.500 35.407,210.500 35.311 C 210.500 35.109,208.689 33.333,208.483 33.333 C 208.407 33.333,208.082 33.071,207.761 32.750 C 207.440 32.429,207.132 32.167,207.077 32.167 C 207.022 32.167,206.864 32.054,206.726 31.917 C 206.589 31.779,206.332 31.667,206.155 31.667 C 205.978 31.667,205.833 31.592,205.833 31.500 C 205.833 31.408,205.721 31.333,205.583 31.333 C 205.446 31.333,205.333 31.258,205.333 31.167 C 205.333 31.075,205.183 31.000,205.000 31.000 C 204.817 31.000,204.667 30.943,204.667 30.873 C 204.667 30.681,203.390 30.167,202.916 30.167 C 202.687 30.167,202.500 30.092,202.500 30.000 C 202.500 29.908,202.313 29.833,202.083 29.833 C 201.854 29.833,201.667 29.758,201.667 29.667 C 201.667 29.575,201.404 29.500,201.083 29.500 C 200.762 29.500,200.500 29.425,200.500 29.333 C 200.500 29.242,200.200 29.167,199.833 29.167 C 199.467 29.167,199.167 29.092,199.167 29.000 C 199.167 28.903,198.614 28.833,197.843 28.833 C 197.115 28.833,196.473 28.758,196.417 28.667 C 196.359 28.573,195.557 28.500,194.583 28.500 C 193.610 28.500,192.808 28.573,192.750 28.667 M380.333 28.667 C 380.196 28.756,379.657 28.829,379.135 28.831 C 378.613 28.832,378.140 28.908,378.083 29.000 C 378.027 29.092,377.722 29.167,377.407 29.167 C 377.091 29.167,376.833 29.242,376.833 29.333 C 376.833 29.425,376.646 29.500,376.417 29.500 C 376.188 29.500,376.000 29.575,376.000 29.667 C 376.000 29.758,375.775 29.833,375.500 29.833 C 375.225 29.833,375.000 29.902,375.000 29.987 C 375.000 30.071,374.785 30.187,374.523 30.245 C 374.260 30.303,373.888 30.496,373.696 30.675 C 373.504 30.854,373.286 31.000,373.210 31.000 C 373.135 31.000,372.965 31.150,372.833 31.333 C 372.701 31.517,372.478 31.668,372.338 31.669 C 372.066 31.671,369.945 33.748,369.787 34.167 C 369.735 34.304,369.687 33.235,369.680 31.792 L 369.667 29.167 363.167 29.167 L 356.667 29.167 356.667 59.333 L 356.667 89.500 363.166 89.500 L 369.664 89.500 369.707 77.480 L 369.750 65.460 371.116 66.813 C 371.867 67.558,372.591 68.167,372.723 68.167 C 372.856 68.167,373.006 68.276,373.057 68.409 C 373.147 68.643,374.467 69.333,374.824 69.333 C 374.921 69.333,375.000 69.408,375.000 69.500 C 375.000 69.592,375.150 69.667,375.333 69.667 C 375.517 69.667,375.667 69.742,375.667 69.833 C 375.667 69.925,375.854 70.000,376.083 70.000 C 376.313 70.000,376.500 70.075,376.500 70.167 C 376.500 70.258,376.794 70.333,377.153 70.333 C 377.527 70.333,377.835 70.422,377.875 70.542 C 377.928 70.700,378.880 70.750,381.881 70.750 C 384.807 70.750,385.870 70.697,386.025 70.542 C 386.140 70.427,386.428 70.333,386.667 70.333 C 387.146 70.333,387.997 69.987,387.999 69.792 C 387.999 69.723,388.225 69.667,388.500 69.667 C 388.775 69.667,389.000 69.595,389.000 69.508 C 389.000 69.420,389.262 69.299,389.583 69.239 C 389.904 69.179,390.167 69.081,390.167 69.022 C 390.167 68.963,390.410 68.808,390.708 68.678 C 391.006 68.548,391.371 68.305,391.520 68.138 C 391.668 67.970,391.878 67.833,391.987 67.833 C 392.222 67.833,395.667 64.411,395.667 64.177 C 395.667 64.088,395.854 63.828,396.083 63.598 C 396.313 63.369,396.500 63.066,396.500 62.924 C 396.500 62.783,396.575 62.667,396.667 62.667 C 396.758 62.667,396.833 62.589,396.833 62.493 C 396.833 62.398,396.980 62.162,397.158 61.971 C 397.337 61.779,397.531 61.407,397.588 61.144 C 397.646 60.882,397.762 60.667,397.847 60.667 C 397.931 60.667,398.000 60.442,398.000 60.167 C 398.000 59.892,398.075 59.667,398.167 59.667 C 398.258 59.667,398.333 59.554,398.333 59.417 C 398.333 59.279,398.408 59.167,398.500 59.167 C 398.592 59.167,398.667 58.942,398.667 58.667 C 398.667 58.392,398.738 58.167,398.825 58.167 C 398.912 58.167,399.035 57.715,399.097 57.163 C 399.159 56.611,399.276 56.119,399.355 56.070 C 399.435 56.021,399.500 55.654,399.500 55.254 C 399.500 54.827,399.585 54.500,399.705 54.459 C 399.999 54.361,399.995 44.971,399.702 44.873 C 399.584 44.834,399.500 44.497,399.500 44.069 C 399.500 43.665,399.435 43.333,399.355 43.333 C 399.275 43.333,399.159 42.883,399.097 42.333 C 399.034 41.783,398.912 41.333,398.825 41.333 C 398.738 41.333,398.667 41.108,398.667 40.833 C 398.667 40.558,398.592 40.333,398.500 40.333 C 398.408 40.333,398.333 40.221,398.333 40.083 C 398.333 39.946,398.258 39.833,398.167 39.833 C 398.075 39.833,398.000 39.608,398.000 39.333 C 398.000 39.058,397.931 38.833,397.847 38.833 C 397.762 38.833,397.646 38.618,397.588 38.356 C 397.531 38.093,397.337 37.721,397.158 37.529 C 396.980 37.338,396.833 37.065,396.833 36.924 C 396.833 36.782,396.758 36.667,396.667 36.667 C 396.575 36.667,396.500 36.588,396.500 36.492 C 396.500 36.397,396.313 36.131,396.083 35.902 C 395.854 35.672,395.667 35.410,395.667 35.318 C 395.667 35.053,392.429 31.886,392.028 31.759 C 391.829 31.696,391.667 31.574,391.667 31.489 C 391.667 31.403,391.517 31.333,391.333 31.333 C 391.150 31.333,391.000 31.258,391.000 31.167 C 391.000 31.075,390.915 31.000,390.811 31.000 C 390.707 31.000,390.501 30.860,390.352 30.688 C 390.203 30.517,389.763 30.323,389.374 30.257 C 388.985 30.191,388.667 30.069,388.667 29.985 C 388.667 29.902,388.517 29.833,388.333 29.833 C 388.150 29.833,388.000 29.758,388.000 29.667 C 388.000 29.575,387.738 29.500,387.417 29.500 C 387.096 29.500,386.833 29.425,386.833 29.333 C 386.833 29.242,386.571 29.167,386.250 29.167 C 385.929 29.167,385.667 29.092,385.667 29.000 C 385.667 28.906,385.198 28.833,384.593 28.833 C 384.003 28.833,383.473 28.758,383.417 28.667 C 383.285 28.453,380.664 28.453,380.333 28.667 M245.833 29.000 C 245.833 29.092,245.571 29.167,245.250 29.167 C 244.929 29.167,244.667 29.242,244.667 29.333 C 244.667 29.425,244.404 29.500,244.083 29.500 C 243.762 29.500,243.500 29.575,243.500 29.667 C 243.500 29.758,243.350 29.833,243.167 29.833 C 242.983 29.833,242.833 29.900,242.833 29.981 C 242.833 30.063,242.571 30.179,242.250 30.239 C 241.929 30.299,241.667 30.420,241.667 30.508 C 241.667 30.595,241.517 30.667,241.333 30.667 C 241.150 30.667,241.000 30.742,241.000 30.833 C 241.000 30.925,240.888 31.000,240.751 31.000 C 240.615 31.000,240.409 31.150,240.295 31.333 C 240.180 31.517,239.970 31.667,239.828 31.667 C 239.606 31.667,239.286 31.935,238.226 33.010 C 238.122 33.116,237.784 33.453,237.476 33.759 C 236.717 34.513,236.500 34.788,236.500 34.993 C 236.500 35.089,236.425 35.167,236.333 35.167 C 236.228 35.167,236.167 34.056,236.167 32.167 L 236.167 29.167 229.667 29.167 L 223.167 29.167 223.167 49.750 L 223.167 70.333 229.667 70.333 L 236.167 70.333 236.167 59.927 C 236.167 53.168,236.225 49.484,236.333 49.417 C 236.425 49.360,236.500 48.948,236.500 48.500 C 236.500 48.052,236.565 47.646,236.645 47.597 C 236.724 47.548,236.838 47.206,236.897 46.837 C 236.956 46.468,237.078 46.167,237.169 46.167 C 237.259 46.167,237.333 46.053,237.333 45.914 C 237.333 45.590,238.927 44.000,239.252 44.000 C 239.388 44.000,239.500 43.925,239.500 43.833 C 239.500 43.742,239.612 43.667,239.750 43.667 C 239.887 43.667,240.000 43.596,240.000 43.510 C 240.000 43.424,240.338 43.303,240.752 43.241 C 241.166 43.179,241.545 43.062,241.595 42.981 C 241.645 42.900,242.057 42.833,242.510 42.833 C 242.963 42.833,243.333 42.758,243.333 42.667 C 243.333 42.562,244.361 42.500,246.083 42.500 L 248.833 42.500 248.833 35.667 L 248.833 28.833 247.333 28.833 C 246.444 28.833,245.833 28.901,245.833 29.000 M150.583 29.667 C 150.640 29.758,150.861 29.833,151.074 29.833 C 151.287 29.833,151.677 29.945,151.939 30.082 C 152.202 30.219,152.531 30.332,152.672 30.332 C 152.812 30.333,153.037 30.494,153.172 30.690 C 153.306 30.886,153.585 31.220,153.792 31.432 C 153.998 31.644,154.167 31.897,154.167 31.992 C 154.167 32.088,154.242 32.167,154.333 32.167 C 154.425 32.167,154.500 32.310,154.500 32.486 C 154.500 32.662,154.594 32.837,154.708 32.875 C 154.863 32.927,154.917 33.621,154.917 35.583 C 154.917 37.546,154.863 38.240,154.708 38.292 C 154.594 38.330,154.500 38.451,154.500 38.560 C 154.500 38.670,154.350 38.868,154.167 39.000 C 153.983 39.132,153.833 39.357,153.833 39.499 C 153.833 39.641,153.571 39.899,153.250 40.072 C 152.929 40.244,152.667 40.449,152.667 40.526 C 152.667 40.603,152.517 40.667,152.333 40.667 C 152.150 40.667,152.000 40.742,152.000 40.833 C 152.000 40.925,151.894 41.000,151.764 41.000 C 151.634 41.000,151.497 41.094,151.458 41.208 C 151.406 41.367,150.243 41.431,146.611 41.475 L 141.833 41.534 141.833 35.517 L 141.833 29.500 146.157 29.500 C 148.859 29.500,150.519 29.562,150.583 29.667 M196.000 39.333 C 196.000 39.425,196.258 39.500,196.573 39.500 C 196.889 39.500,197.189 39.568,197.241 39.652 C 197.293 39.736,197.621 39.853,197.971 39.912 C 198.321 39.971,198.712 40.165,198.840 40.343 C 198.969 40.521,199.135 40.667,199.211 40.667 C 199.287 40.667,199.536 40.854,199.765 41.083 C 199.994 41.313,200.253 41.500,200.341 41.500 C 200.428 41.500,200.500 41.650,200.500 41.833 C 200.500 42.017,200.564 42.167,200.642 42.167 C 200.719 42.167,200.922 42.504,201.092 42.917 C 201.262 43.329,201.461 43.667,201.534 43.667 C 201.607 43.667,201.667 44.079,201.667 44.583 L 201.667 45.500 194.417 45.500 L 187.167 45.500 187.167 44.927 C 187.167 44.611,187.232 44.313,187.311 44.264 C 187.391 44.214,187.502 43.890,187.557 43.544 C 187.613 43.191,187.807 42.806,187.996 42.670 C 188.181 42.536,188.333 42.330,188.333 42.213 C 188.333 41.964,189.627 40.667,189.876 40.667 C 189.968 40.667,190.166 40.530,190.314 40.363 C 190.616 40.023,192.085 39.500,192.740 39.500 C 192.975 39.500,193.167 39.425,193.167 39.333 C 193.167 39.235,193.750 39.167,194.583 39.167 C 195.417 39.167,196.000 39.235,196.000 39.333 M2.333 39.667 C 2.333 39.758,2.189 39.833,2.012 39.833 C 1.835 39.833,1.578 39.946,1.440 40.083 C 1.303 40.221,1.110 40.333,1.012 40.333 C 0.914 40.333,0.833 40.456,0.833 40.605 C 0.833 40.755,0.665 41.024,0.458 41.203 L 0.083 41.528 0.083 64.417 L 0.083 87.305 0.458 87.631 C 0.665 87.809,0.833 88.070,0.833 88.210 C 0.833 88.350,1.021 88.511,1.250 88.568 C 1.479 88.626,1.667 88.747,1.667 88.837 C 1.667 88.926,1.817 89.000,2.000 89.000 C 2.183 89.000,2.333 89.075,2.333 89.167 C 2.333 89.277,15.028 89.333,40.083 89.333 C 65.139 89.333,77.833 89.277,77.833 89.167 C 77.833 89.075,77.949 89.000,78.090 89.000 C 78.553 89.000,79.667 87.935,79.667 87.492 C 79.667 87.313,79.742 87.167,79.833 87.167 C 79.925 87.167,80.000 87.054,80.000 86.917 C 80.000 86.779,80.075 86.667,80.167 86.667 C 80.277 86.667,80.333 79.139,80.333 64.417 C 80.333 49.694,80.277 42.167,80.167 42.167 C 80.075 42.167,80.000 42.017,80.000 41.833 C 80.000 41.650,79.925 41.500,79.833 41.500 C 79.742 41.500,79.667 41.390,79.667 41.256 C 79.667 40.896,78.542 39.833,78.161 39.833 C 77.981 39.833,77.833 39.758,77.833 39.667 C 77.833 39.556,65.139 39.500,40.083 39.500 C 15.028 39.500,2.333 39.556,2.333 39.667 M379.833 40.167 C 379.833 40.258,380.058 40.333,380.333 40.333 C 380.608 40.333,380.833 40.408,380.833 40.500 C 380.833 40.592,381.021 40.667,381.250 40.667 C 381.479 40.667,381.667 40.742,381.667 40.833 C 381.667 40.925,381.817 41.000,382.000 41.000 C 382.183 41.000,382.333 41.070,382.333 41.155 C 382.333 41.241,382.493 41.362,382.688 41.423 C 383.151 41.570,385.333 43.767,385.333 44.087 C 385.333 44.222,385.408 44.333,385.500 44.333 C 385.592 44.333,385.667 44.446,385.667 44.583 C 385.667 44.721,385.735 44.833,385.819 44.833 C 385.902 44.833,386.021 45.133,386.083 45.499 C 386.145 45.865,386.264 46.207,386.348 46.259 C 386.432 46.311,386.500 46.649,386.500 47.010 C 386.500 47.371,386.575 47.667,386.667 47.667 C 386.769 47.667,386.833 48.472,386.833 49.750 C 386.833 51.028,386.769 51.833,386.667 51.833 C 386.575 51.833,386.500 52.091,386.500 52.407 C 386.500 52.722,386.425 53.027,386.333 53.083 C 386.242 53.140,386.167 53.331,386.167 53.509 C 386.167 53.912,385.632 55.167,385.461 55.167 C 385.391 55.167,385.333 55.283,385.333 55.425 C 385.333 55.738,382.876 58.167,382.559 58.167 C 382.435 58.167,382.333 58.242,382.333 58.333 C 382.333 58.425,382.183 58.500,382.000 58.500 C 381.817 58.500,381.667 58.575,381.667 58.667 C 381.667 58.758,381.560 58.833,381.431 58.833 C 381.301 58.833,381.169 58.901,381.139 58.984 C 380.955 59.482,375.537 59.488,375.361 58.991 C 375.331 58.904,375.162 58.833,374.986 58.833 C 374.810 58.833,374.667 58.758,374.667 58.667 C 374.667 58.575,374.554 58.500,374.417 58.500 C 374.279 58.500,374.167 58.425,374.167 58.333 C 374.167 58.242,374.051 58.167,373.910 58.167 C 373.669 58.167,373.501 58.060,372.923 57.542 C 372.795 57.427,372.642 57.333,372.583 57.333 C 372.414 57.333,372.000 56.875,372.000 56.688 C 372.000 56.595,371.857 56.419,371.682 56.296 C 371.507 56.174,371.227 55.757,371.059 55.370 C 370.892 54.983,370.697 54.667,370.627 54.667 C 370.557 54.667,370.500 54.517,370.500 54.333 C 370.500 54.150,370.425 54.000,370.333 54.000 C 370.242 54.000,370.167 53.781,370.167 53.514 C 370.167 53.247,370.073 52.997,369.958 52.958 C 369.661 52.859,369.665 46.473,369.962 46.374 C 370.075 46.336,370.167 46.124,370.167 45.903 C 370.167 45.681,370.242 45.500,370.333 45.500 C 370.425 45.500,370.500 45.350,370.500 45.167 C 370.500 44.983,370.575 44.833,370.667 44.833 C 370.758 44.833,370.833 44.721,370.833 44.583 C 370.833 44.446,370.908 44.333,371.000 44.333 C 371.092 44.333,371.167 44.183,371.167 43.999 C 371.167 43.815,371.366 43.496,371.609 43.291 C 372.421 42.604,373.167 41.824,373.167 41.661 C 373.167 41.572,373.311 41.500,373.488 41.500 C 373.665 41.500,373.922 41.387,374.060 41.250 C 374.197 41.112,374.390 41.000,374.488 41.000 C 374.586 41.000,374.667 40.925,374.667 40.833 C 374.667 40.742,374.892 40.667,375.167 40.667 C 375.442 40.667,375.667 40.592,375.667 40.500 C 375.667 40.408,375.854 40.333,376.083 40.333 C 376.313 40.333,376.500 40.258,376.500 40.167 C 376.500 40.067,377.167 40.000,378.167 40.000 C 379.167 40.000,379.833 40.067,379.833 40.167 M67.333 49.833 C 67.333 49.925,67.483 50.000,67.667 50.000 C 67.850 50.000,68.000 50.075,68.000 50.167 C 68.000 50.258,68.077 50.333,68.172 50.333 C 68.881 50.333,69.575 51.570,69.579 52.840 L 69.583 54.117 68.833 54.804 C 68.421 55.182,67.990 55.493,67.875 55.496 C 67.760 55.498,67.667 55.575,67.667 55.667 C 67.667 55.775,65.583 55.833,61.750 55.833 C 57.917 55.833,55.833 55.775,55.833 55.667 C 55.833 55.575,55.683 55.500,55.500 55.500 C 55.317 55.500,55.167 55.425,55.167 55.333 C 55.167 55.242,55.086 55.167,54.988 55.167 C 54.757 55.167,54.333 54.743,54.333 54.512 C 54.333 54.414,54.258 54.333,54.167 54.333 C 54.075 54.333,54.000 54.183,54.000 54.000 C 54.000 53.817,53.925 53.667,53.833 53.667 C 53.742 53.667,53.667 53.254,53.667 52.750 C 53.667 52.246,53.742 51.833,53.833 51.833 C 53.925 51.833,54.000 51.756,54.000 51.662 C 54.000 51.400,55.025 50.333,55.277 50.333 C 55.400 50.333,55.500 50.258,55.500 50.167 C 55.500 50.075,55.650 50.000,55.833 50.000 C 56.017 50.000,56.167 49.925,56.167 49.833 C 56.167 49.726,58.139 49.667,61.750 49.667 C 65.361 49.667,67.333 49.726,67.333 49.833 M37.333 59.833 C 37.333 59.925,37.522 60.000,37.752 60.000 C 38.182 60.000,39.152 60.889,39.162 61.292 C 39.164 61.406,39.242 61.500,39.333 61.500 C 39.425 61.500,39.500 61.650,39.500 61.833 C 39.500 62.017,39.575 62.167,39.667 62.167 C 39.758 62.167,39.833 62.429,39.833 62.750 C 39.833 63.071,39.758 63.333,39.667 63.333 C 39.575 63.333,39.500 63.553,39.500 63.822 C 39.500 64.141,39.399 64.343,39.208 64.404 C 39.048 64.456,38.767 64.723,38.583 64.999 C 38.348 65.352,38.116 65.499,37.792 65.500 C 37.540 65.500,37.333 65.575,37.333 65.667 C 37.333 65.776,33.083 65.833,24.917 65.833 C 16.750 65.833,12.500 65.776,12.500 65.667 C 12.500 65.575,12.387 65.500,12.250 65.500 C 12.112 65.500,12.000 65.425,12.000 65.333 C 12.000 65.242,11.882 65.167,11.738 65.167 C 11.478 65.167,11.000 64.789,11.000 64.583 C 11.000 64.524,10.887 64.364,10.750 64.226 C 10.400 63.876,10.400 61.624,10.750 61.274 C 10.887 61.136,11.000 60.976,11.000 60.917 C 11.000 60.711,11.478 60.333,11.738 60.333 C 11.882 60.333,12.000 60.258,12.000 60.167 C 12.000 60.075,12.112 60.000,12.250 60.000 C 12.387 60.000,12.500 59.925,12.500 59.833 C 12.500 59.724,16.750 59.667,24.917 59.667 C 33.083 59.667,37.333 59.724,37.333 59.833 M17.667 73.167 C 17.667 73.258,17.782 73.333,17.922 73.333 C 18.245 73.333,19.167 74.263,19.167 74.589 C 19.167 74.723,19.242 74.833,19.333 74.833 C 19.425 74.833,19.500 74.983,19.500 75.167 C 19.500 75.350,19.575 75.500,19.667 75.500 C 19.758 75.500,19.833 75.688,19.833 75.917 C 19.833 76.146,19.758 76.333,19.667 76.333 C 19.575 76.333,19.500 76.558,19.500 76.833 C 19.500 77.108,19.425 77.333,19.333 77.333 C 19.242 77.333,19.167 77.446,19.167 77.583 C 19.167 77.721,19.097 77.833,19.011 77.833 C 18.926 77.833,18.808 77.983,18.750 78.167 C 18.692 78.350,18.506 78.500,18.336 78.500 C 18.166 78.500,17.997 78.594,17.958 78.708 C 17.906 78.864,17.176 78.917,15.065 78.917 L 12.241 78.917 11.412 78.087 L 10.583 77.258 10.583 75.768 C 10.583 74.689,10.643 74.258,10.801 74.205 C 10.921 74.165,11.199 73.953,11.419 73.733 C 11.638 73.513,11.934 73.333,12.076 73.333 C 12.217 73.333,12.333 73.258,12.333 73.167 C 12.333 73.063,13.333 73.000,15.000 73.000 C 16.667 73.000,17.667 73.063,17.667 73.167 M34.333 73.167 C 34.333 73.258,34.446 73.333,34.583 73.333 C 34.947 73.333,36.167 74.610,36.167 74.990 C 36.167 75.168,36.242 75.360,36.333 75.417 C 36.425 75.473,36.500 75.778,36.500 76.093 C 36.500 76.409,36.425 76.667,36.333 76.667 C 36.242 76.667,36.167 76.817,36.167 77.000 C 36.167 77.183,36.092 77.333,36.000 77.333 C 35.908 77.333,35.833 77.446,35.833 77.583 C 35.833 77.721,35.763 77.833,35.678 77.833 C 35.592 77.833,35.475 77.983,35.417 78.167 C 35.358 78.350,35.172 78.500,35.003 78.500 C 34.833 78.500,34.663 78.594,34.625 78.708 C 34.573 78.864,33.843 78.917,31.732 78.917 L 28.908 78.917 28.121 78.129 C 27.688 77.696,27.333 77.265,27.333 77.171 C 27.333 77.077,27.258 77.000,27.167 77.000 C 27.073 77.000,27.000 76.528,27.000 75.917 C 27.000 75.306,27.073 74.833,27.167 74.833 C 27.258 74.833,27.333 74.688,27.333 74.511 C 27.333 74.334,27.483 74.142,27.667 74.083 C 27.850 74.025,28.000 73.908,28.000 73.822 C 28.000 73.737,28.113 73.667,28.250 73.667 C 28.387 73.667,28.500 73.592,28.500 73.500 C 28.500 73.408,28.650 73.333,28.833 73.333 C 29.017 73.333,29.167 73.258,29.167 73.167 C 29.167 73.063,30.139 73.000,31.750 73.000 C 33.361 73.000,34.333 73.063,34.333 73.167 M51.000 73.167 C 51.000 73.258,51.103 73.333,51.230 73.333 C 51.544 73.333,52.833 74.606,52.833 74.916 C 52.833 75.054,52.908 75.167,53.000 75.167 C 53.092 75.167,53.167 75.504,53.167 75.917 C 53.167 76.329,53.092 76.667,53.000 76.667 C 52.908 76.667,52.833 76.817,52.833 77.000 C 52.833 77.183,52.758 77.333,52.667 77.333 C 52.575 77.333,52.500 77.412,52.500 77.508 C 52.500 77.726,51.737 78.500,51.521 78.500 C 51.433 78.500,51.330 78.594,51.292 78.708 C 51.145 79.149,45.391 78.989,45.073 78.535 C 44.926 78.326,44.624 77.973,44.403 77.751 C 44.181 77.530,44.000 77.270,44.000 77.174 C 44.000 77.078,43.925 77.000,43.833 77.000 C 43.742 77.000,43.667 76.587,43.667 76.083 C 43.667 75.579,43.742 75.167,43.833 75.167 C 43.925 75.167,44.000 75.017,44.000 74.833 C 44.000 74.650,44.075 74.500,44.167 74.500 C 44.258 74.500,44.333 74.420,44.333 74.321 C 44.333 74.223,44.440 74.036,44.571 73.905 C 44.702 73.774,44.890 73.667,44.988 73.667 C 45.086 73.667,45.167 73.592,45.167 73.500 C 45.167 73.408,45.317 73.333,45.500 73.333 C 45.683 73.333,45.833 73.258,45.833 73.167 C 45.833 73.063,46.806 73.000,48.417 73.000 C 50.028 73.000,51.000 73.063,51.000 73.167 M67.667 73.167 C 67.667 73.258,67.760 73.333,67.875 73.333 C 67.990 73.333,68.421 73.642,68.833 74.019 L 69.583 74.704 69.583 75.982 C 69.583 77.244,68.887 78.500,68.186 78.500 C 68.099 78.500,67.997 78.594,67.958 78.708 C 67.906 78.864,67.180 78.917,65.083 78.917 C 62.987 78.917,62.260 78.864,62.208 78.708 C 62.170 78.594,61.995 78.500,61.819 78.500 C 61.644 78.500,61.500 78.428,61.500 78.341 C 61.500 78.253,61.313 77.994,61.083 77.765 C 60.854 77.536,60.667 77.270,60.667 77.174 C 60.667 77.078,60.592 77.000,60.500 77.000 C 60.408 77.000,60.333 76.587,60.333 76.083 C 60.333 75.579,60.408 75.167,60.500 75.167 C 60.592 75.167,60.667 75.017,60.667 74.833 C 60.667 74.650,60.742 74.500,60.833 74.500 C 60.925 74.500,61.000 74.420,61.000 74.321 C 61.000 74.223,61.107 74.036,61.238 73.905 C 61.369 73.774,61.557 73.667,61.655 73.667 C 61.753 73.667,61.833 73.592,61.833 73.500 C 61.833 73.408,61.983 73.333,62.167 73.333 C 62.350 73.333,62.500 73.258,62.500 73.167 C 62.500 73.063,63.472 73.000,65.083 73.000 C 66.694 73.000,67.667 73.063,67.667 73.167 " stroke="none" fill="#042444" fill-rule="evenodd"></path><path id="path1" d="" stroke="none" fill="#082444" fill-rule="evenodd"></path><path id="path2" d="" stroke="none" fill="#082444" fill-rule="evenodd"></path><path id="path3" d="" stroke="none" fill="#082444" fill-rule="evenodd"></path><path id="path4" d="" stroke="none" fill="#082444" fill-rule="evenodd"></path></g></svg>