<svg enable-background="new 0 0 1466.9 270.5" viewBox="0 0 1466.9 270.5" xmlns="http://www.w3.org/2000/svg"><path clip-rule="evenodd" d="m148.6 109.2-21.5 59h-87.7l35.4-97.2h137.7c15.8 0 25.7-6.8 25.7-17.4 0-7.7-8.4-12.8-20.9-12.8h-131.5l13.4-36.6h377.4c30.4 0 34.3.2 47.9 2.6 21.6 3.7 37.8 18.4 39 35.3 1.6 22.1-19.7 45.1-53.5 57.7-18.9 7.1-37.1 9.4-72.9 9.4l-55.3-.1-7.6 22.5h168.6l22.1-60.6h137.7c15.8 0 25.7-6.8 25.7-17.4 0-7.7-8.4-12.8-20.9-12.8h-131.5l13.3-36.6h143.7c30.4 0 34.3.2 47.9 2.6 21.6 3.7 37.8 18.4 39 35.3 1.6 22.1-19.7 45.1-53.5 57.7-18.9 7.1-37.1 9.4-72.9 9.4h-54.8l-21.5 59h-343.9l13.9-38.2c20.9-57.6 63.5-59.4 119.3-59.4h46.2c12.1-1.6 19.4-7.9 19.4-17 0-7.7-8.4-12.8-21-12.8h-121.3c0 .4.1.8.1 1.2 1.6 22.1-19.8 45.1-53.5 57.8-18.9 7.1-37.1 9.4-72.9 9.4z" fill="#fff" fill-rule="evenodd"/><path clip-rule="evenodd" d="m5.6 263.6h747.2l27.4-69.9h-747.2z" fill="#fff" fill-rule="evenodd"/><path d="m82.5 247v-5.1c0-.3-.1-.6-.2-.8-.2-.2-.5-.3-.8-.3h-.2l-2.2.2c-.8.1-1.7.1-2.7.2s-1.9.1-2.8.1-1.7-.1-2.5-.4-1.5-.8-2.1-1.4c-.7-.8-1.1-1.7-1.4-2.7-.4-1.4-.5-2.9-.5-4.3v-6.6c0-1.5.1-2.9.5-4.3.3-1 .7-1.9 1.4-2.7.6-.7 1.3-1.2 2.1-1.5s1.7-.4 2.5-.4c1 0 1.9 0 2.8.1l2.7.2 2.2.2h.2c.3 0 .6-.1.8-.3s.3-.5.2-.8v-5.1c0-.3-.1-.6-.3-.8-.3-.2-.5-.3-.9-.4-.6-.2-1.1-.3-1.7-.4-.8-.1-1.7-.3-2.7-.4s-2.2-.1-3.4-.1c-1.6 0-3.2.2-4.7.5s-2.9.9-4.2 1.7-2.5 1.9-3.5 3.1c-1.1 1.4-1.8 3-2.3 4.7-.6 2.1-.9 4.3-.8 6.5v6.6c0 2.2.3 4.4.8 6.5.5 1.7 1.3 3.3 2.3 4.7.9 1.3 2.1 2.3 3.4 3.1s2.7 1.4 4.2 1.8 3.1.5 4.7.5c1.1 0 2.3 0 3.4-.1 1-.1 2-.2 2.7-.4.6-.1 1.1-.2 1.7-.4.3-.1.6-.2.9-.4.3 0 .4-.3.4-.6m41.2-14.8v-6.2c0-2.6-.4-5.3-1.2-7.8-.7-2-1.8-3.8-3.3-5.2-1.4-1.3-3.1-2.3-4.9-2.9-4-1.2-8.2-1.2-12.2 0-1.8.6-3.5 1.6-4.9 2.9-1.5 1.5-2.6 3.2-3.3 5.2-.8 2.5-1.3 5.1-1.2 7.8v6.2c-.1 2.6.4 5.3 1.2 7.8.7 2 1.8 3.8 3.3 5.2 1.4 1.3 3.1 2.3 4.9 2.9 4 1.2 8.2 1.2 12.2 0 1.8-.6 3.5-1.6 4.9-2.9 1.5-1.5 2.6-3.2 3.3-5.2.9-2.5 1.3-5.1 1.2-7.8zm-9 0c.1 1.7-.2 3.5-.7 5.1-.4 1.2-1.1 2.2-2.2 2.9s-2.4 1-3.7.9c-1.3.1-2.5-.3-3.6-.9-1-.7-1.8-1.7-2.1-2.9-.5-1.7-.7-3.4-.7-5.1v-6.2c-.1-1.7.2-3.5.7-5.1.4-1.2 1.1-2.2 2.1-2.9 1.1-.7 2.4-1 3.6-.9 1.3-.1 2.6.3 3.7.9 1 .7 1.8 1.7 2.2 2.9.5 1.7.8 3.4.7 5.1zm56.3 15.7v-36.4c0-.5-.2-1-.5-1.3-.4-.3-.9-.5-1.4-.5h-4.9c-.5 0-1 .1-1.4.4-.4.2-.7.6-.9 1l-8 15c-.1.2-.2.3-.3.5s-.3.2-.4.2c-.1 0-.1-.1-.1-.1-.1-.2-.2-.3-.3-.5l-8-15c-.2-.4-.5-.8-.9-1-.4-.3-.9-.4-1.4-.4h-4.9c-.5 0-1 .2-1.4.5s-.6.8-.5 1.3v36.5c0 .2.1.5.3.6s.4.2.6.1h6.9c.2 0 .5-.1.6-.3.2-.2.2-.5.2-.8v-21.9c0-.1 0-.2.1-.4.1-.1.1-.1.2-.1s.2 0 .2.1c.1.1.2.2.2.3l4.7 8.7c.2.3.4.5.7.7.3.1.6.2.9.2h4.2c.3 0 .6-.1.9-.2.3-.2.5-.4.7-.7l4.7-8.7c.1-.1.1-.2.2-.3s.1-.1.2-.1.1 0 .2.1.1.2.1.4v21.9c0 .3.1.5.2.8.1.2.4.3.6.3h6.8c.2 0 .4 0 .6-.1.1-.4.2-.6.3-.8zm41.4-25.7v-.5c0-1.7-.3-3.5-.9-5.1-.5-1.4-1.3-2.6-2.4-3.6-1-1-2.2-1.8-3.5-2.3-1.4-.6-2.8-1-4.3-1.2s-3.1-.4-4.7-.4c-1.3 0-2.6 0-3.9.1s-2.5.1-3.7.2-2.2.2-3.1.4c-.5.1-.9.2-1.4.4-.3.2-.6.4-.8.8s-.3.9-.3 1.4v35.3c0 .3.1.5.3.7s.5.3.7.3h6.8c.3 0 .5-.1.7-.3s.3-.5.3-.8v-12.8l1.4.1 1.5.1h1.4c1.6 0 3.1-.1 4.6-.4s2.9-.7 4.3-1.3c1.3-.6 2.5-1.4 3.5-2.4s1.9-2.3 2.4-3.6c.8-1.6 1.1-3.3 1.1-5.1zm-8.9 0c.1 1.5-.5 3-1.6 4-1.1.9-2.8 1.3-5.1 1.3h-4.2v-10.8c.3 0 .5 0 .8-.1h1.3 2.2c1.3 0 2.5.1 3.7.5.9.3 1.7.9 2.3 1.7.6.9.8 1.9.8 3v.4zm49.6 11.8v-23.4c0-.3-.1-.5-.3-.7s-.5-.3-.8-.3h-6.8c-.3 0-.5.1-.7.3s-.3.4-.3.7v23.4c0 1.5-.1 2.9-.6 4.4-.3 1-1 1.9-1.9 2.5-1.1.6-2.4.9-3.7.8-1.3.1-2.6-.2-3.7-.8-.9-.5-1.6-1.4-1.9-2.5-.4-1.4-.6-2.9-.5-4.4v-23.4c0-.3-.1-.5-.3-.7s-.5-.3-.7-.3h-6.9c-.3 0-.5.1-.7.3s-.3.4-.3.7v23.4c0 2.1.2 4.2.8 6.2.4 1.6 1.2 3 2.2 4.3.9 1.1 2 2 3.3 2.7s2.7 1.2 4.1 1.4c3.2.6 6.4.6 9.6 0 1.5-.3 2.9-.8 4.2-1.4 1.3-.7 2.4-1.6 3.3-2.8 1-1.3 1.7-2.8 2.2-4.3.2-2 .4-4 .4-6.1zm38.3-18v-5.4c0-.3-.1-.5-.3-.7s-.5-.3-.8-.3h-26.1c-.3 0-.5.1-.7.3s-.3.4-.3.7v5.4c0 .3.1.5.3.7s.5.3.7.3h8.6v30.6c0 .3.1.6.3.8s.5.3.7.3h6.9c.3 0 .5-.1.7-.3s.3-.5.3-.8v-30.6h8.5c.3 0 .6-.1.8-.3.3-.2.4-.4.4-.7zm34.1 31.3v-4.9c0-.3-.1-.5-.3-.7s-.5-.3-.8-.3h-10.7c-.7 0-1.4-.1-2-.3-.5-.2-.9-.6-1.1-1.1-.3-.7-.4-1.4-.3-2.1v-5.6h13.7c.3 0 .5-.1.8-.3.2-.2.3-.5.3-.8v-5c0-.3-.1-.5-.3-.8-.2-.2-.5-.3-.8-.3h-13.6v-4.8c0-.7.1-1.5.3-2.1.2-.5.6-.9 1.1-1.1.6-.2 1.3-.4 2-.3h10.7c.3 0 .5-.1.8-.3.2-.2.3-.5.3-.7v-4.9c0-.3-.1-.5-.2-.8-.2-.2-.5-.3-.8-.3l-2.2-.3c-.9-.1-1.9-.2-3.2-.3s-2.9-.1-4.7-.1c-1.3 0-2.6.1-3.9.2-1.2.2-2.4.5-3.5.9-1.1.5-2 1.2-2.8 2-.9.9-1.5 2-1.9 3.2-.5 1.6-.7 3.2-.7 4.8v17.4c0 1.6.2 3.3.7 4.8.4 1.2 1 2.3 1.8 3.3.8.9 1.7 1.5 2.8 2s2.3.8 3.5 1c1.3.2 2.6.3 3.9.2 1.9 0 3.5 0 4.8-.1s2.4-.2 3.2-.3 1.6-.2 2.2-.3c.3 0 .6-.1.8-.3 0 0 .1-.3.1-.6zm42 .7c0-.1 0-.2 0-.3s-.1-.2-.1-.3l-7.9-14.8c1.3-.5 2.5-1.2 3.5-2.2s1.9-2.1 2.4-3.4c.6-1.5.9-3.2.9-4.9v-.7c0-2-.4-4-1.2-5.8-.7-1.5-1.9-2.8-3.3-3.8-1.5-1-3.2-1.7-5-2.1-2.1-.4-4.1-.6-6.2-.6h-2.9c-1 0-2 .1-2.9.1s-1.8.1-2.7.2-1.5.2-2.1.3c-.5.1-.9.2-1.3.4-.3.2-.6.4-.8.8s-.3.9-.2 1.4v35.2c0 .3.1.5.3.8.2.2.5.3.8.3h6.8c.3 0 .5-.1.7-.3s.3-.5.3-.8v-13.3h1.2l1.3.1h1.2l.6-.1 7 13.3c.1.3.2.5.4.7.1.2.4.3.6.3h8c.2 0 .4 0 .6-.2-.1 0-.1-.2 0-.3zm-10.3-25.9c.1 1-.2 2-.7 2.9-.5.8-1.3 1.4-2.2 1.6-1.4.4-2.9.5-4.3.5h-3.7v-10.2h.8 1.2 2.1c1.8-.1 3.5.3 5.1 1.1 1.2.8 1.9 2.1 1.8 3.5zm76.9 15.5c0-1.4-.2-2.7-.6-4-.5-1.3-1.2-2.5-2.2-3.5-1.2-1.3-2.7-2.3-4.3-3.1l-6.7-3.6c-.7-.4-1.5-.8-2.2-1.3-.4-.3-.8-.7-1.1-1.1-.4-.9-.4-2 .1-2.8.3-.4.8-.8 1.3-.9.8-.2 1.6-.3 2.4-.3h2.4l2.7.2 2.6.1 2.1.1 1.4.1h.1c.3 0 .5-.1.7-.3.1-.2.2-.4.2-.6v-5.3c0-.2-.1-.5-.2-.6-.2-.2-.3-.3-.6-.3-.5-.1-1.2-.3-2-.4s-1.8-.3-2.8-.4-2.1-.2-3.2-.3-2.1-.1-3.1-.1c-2.2 0-4.3.2-6.4.8-1.5.4-2.9 1.1-4.1 2.2-1 .9-1.8 2-2.2 3.2-.8 2.5-.9 5.2-.1 7.7.4 1.2 1 2.4 1.9 3.3 1.1 1.2 2.4 2.2 3.8 3l7.2 4.3c.7.4 1.4.9 2.1 1.4.4.3.8.7 1.1 1.2.2.4.3.9.3 1.4 0 .7-.1 1.4-.4 2.1-.3.6-.8 1-1.5 1.2-.9.3-1.9.4-2.8.4h-1.6l-2.2-.1-2.3-.1-2.2-.2-1.7-.1h-.1c-.2 0-.5.1-.7.2-.2.2-.3.5-.3.8v5.1c0 .3.1.5.3.7s.5.3.7.4c1.5.4 2.9.6 4.4.8 1.8.2 3.7.3 5.5.3 1.9 0 3.8-.2 5.6-.7 1.4-.4 2.8-1 4.1-1.8 2-1.4 3.5-3.4 4.2-5.7.3-1.2.5-2.3.4-3.4zm41.4-5.4v-6.2c.1-2.6-.4-5.3-1.2-7.8-.7-2-1.8-3.8-3.3-5.2-1.4-1.4-3.1-2.4-5-3-4-1.2-8.2-1.2-12.2 0-1.8.6-3.5 1.6-4.9 2.9-1.5 1.5-2.6 3.2-3.3 5.2-.8 2.5-1.2 5.1-1.2 7.8v6.2c0 2.6.4 5.3 1.2 7.8.7 2 1.8 3.8 3.3 5.2 1.4 1.3 3.1 2.3 4.9 2.9 4 1.2 8.2 1.2 12.2 0 1.8-.6 3.5-1.6 4.9-2.9 1.5-1.5 2.6-3.2 3.3-5.2.9-2.4 1.3-5.1 1.3-7.7zm-9 0c0 1.7-.2 3.5-.7 5.1-.4 1.2-1.1 2.2-2.2 2.9-2.3 1.2-5 1.2-7.3 0-1-.7-1.8-1.7-2.1-2.9-.5-1.7-.7-3.4-.7-5.1v-6.2c-.1-1.7.2-3.5.7-5.1.4-1.2 1.1-2.2 2.1-2.9 2.3-1.2 5-1.2 7.3 0 1 .7 1.8 1.7 2.2 2.9.5 1.7.7 3.4.7 5.1zm43.1 15.1v-4.9c0-.3-.1-.5-.3-.7s-.5-.3-.7-.3h-9c-.7 0-1.4-.1-2-.3-.5-.2-.9-.6-1.1-1.1-.2-.7-.4-1.4-.3-2.1v-27.1c0-.6-.4-1-1-1h-6.9c-.6 0-1 .4-1 1v27.1c0 1.6.2 3.3.7 4.8.4 1.2 1 2.3 1.9 3.3.8.8 1.7 1.5 2.8 2s2.3.8 3.5 1c1.3.2 2.6.3 3.9.2h2.3c.8 0 1.6-.1 2.4-.1s1.5-.1 2.2-.2 1.2-.2 1.7-.3c.3 0 .6-.2.8-.4.1-.3.2-.6.1-.9zm40.2-13.3v-23.4c0-.3-.1-.5-.3-.7s-.5-.3-.8-.3h-6.8c-.3 0-.5.1-.8.3-.2.2-.3.4-.3.7v23.4c0 1.5-.1 2.9-.5 4.4-.3 1-1 1.9-1.9 2.5-2.4 1.1-5 1.1-7.4 0-.9-.5-1.6-1.4-1.9-2.5-.4-1.4-.6-2.9-.5-4.4v-23.4c0-.3-.1-.5-.3-.7s-.5-.3-.7-.3h-6.9c-.3 0-.5.1-.7.3s-.3.4-.3.7v23.4c0 2.1.2 4.2.8 6.2.4 1.6 1.2 3 2.2 4.3.9 1.1 2 2.1 3.3 2.8s2.7 1.2 4.1 1.4c3.2.6 6.4.6 9.6 0 1.4-.3 2.8-.8 4.2-1.4 1.3-.7 2.4-1.6 3.3-2.8 1-1.3 1.7-2.8 2.2-4.3.2-2 .5-4.1.4-6.2zm38.3-18v-5.4c0-.3-.1-.5-.3-.7s-.5-.3-.8-.3h-26c-.3 0-.5.1-.8.3-.2.2-.3.4-.3.7v5.4c0 .3.1.5.3.7s.5.3.8.3h8.5v30.6c0 .3.1.5.3.8.2.2.5.3.7.3h6.9c.3 0 .5-.1.7-.3s.3-.5.3-.8v-30.6h8.5c.3 0 .6-.1.8-.3.3-.2.4-.4.4-.7zm19.2 31.6v-37c0-.6-.4-1-1-1h-7c-.3 0-.5.1-.7.3s-.3.5-.2.7v37c0 .3.1.5.2.8.2.2.4.3.7.3h7c.3 0 .5-.1.7-.3.2-.3.3-.6.3-.8zm42.8-15.4v-6.2c0-2.6-.4-5.3-1.2-7.8-.7-2-1.8-3.8-3.3-5.2-1.4-1.3-3.1-2.3-4.9-2.9-4-1.2-8.2-1.2-12.2 0-1.8.6-3.5 1.6-4.9 2.9-1.5 1.5-2.6 3.2-3.3 5.2-.9 2.5-1.3 5.1-1.2 7.8v6.2c0 2.6.4 5.3 1.2 7.8.7 2 1.8 3.8 3.3 5.2 1.4 1.3 3.1 2.3 4.9 2.9 4 1.2 8.2 1.2 12.2 0 1.8-.6 3.5-1.6 4.9-2.9 1.5-1.5 2.6-3.2 3.3-5.2.8-2.5 1.3-5.1 1.2-7.8zm-9 0c.1 1.7-.2 3.5-.7 5.1-.4 1.2-1.1 2.2-2.2 2.9-2.3 1.2-5 1.2-7.3 0-1-.7-1.8-1.7-2.1-2.9-.5-1.7-.7-3.4-.7-5.1v-6.2c-.1-1.7.2-3.5.7-5.1.4-1.2 1.1-2.2 2.1-2.9 2.3-1.2 5-1.2 7.3 0 1 .7 1.8 1.7 2.2 2.9.5 1.7.8 3.4.7 5.1zm51.7 14.4v-36c0-.3-.1-.5-.3-.7s-.5-.3-.7-.3h-6.2c-.3 0-.5.1-.7.3s-.3.4-.3.7v22.2c0 .1 0 .3-.1.4 0 .1-.1.1-.2.1s-.1 0-.2-.1l-.2-.3-12.5-21.6c-.3-.5-.6-.9-1-1.2s-.8-.4-1.3-.4h-5.3c-.5 0-1 .2-1.4.6s-.6.9-.6 1.4v36c0 .3.1.6.3.8s.5.3.7.3h6.2c.3 0 .5-.1.7-.3s.3-.5.3-.8v-21.3c0-.1 0-.2.1-.3s.1-.1.2-.1.2 0 .2.1c.1.1.2.2.3.3l12 20.7c.2.4.5.7.8 1.1.3.2.6.4.9.5s.7.1 1 .1h5.2c.7 0 1.4-.4 1.7-1 .3-.5.4-.8.4-1.2zm37.6-9c0-1.4-.2-2.7-.6-4-.5-1.3-1.2-2.5-2.2-3.5-1.2-1.3-2.7-2.3-4.3-3.1l-6.7-3.6c-.8-.4-1.5-.8-2.2-1.3-.4-.3-.8-.7-1.1-1.1-.2-.4-.3-.8-.3-1.3s.1-1.1.4-1.6c.3-.4.8-.8 1.3-.9.8-.2 1.6-.3 2.4-.3h2.4l2.7.1 2.6.1 2.2.1 1.4.1h.1c.3 0 .5-.1.7-.3.1-.2.2-.4.2-.6v-5.3c0-.5-.3-.9-.8-1s-1.2-.3-2-.4-1.8-.3-2.8-.4-2.1-.2-3.2-.3-2.1-.1-3.1-.1c-2.2 0-4.3.2-6.4.8-1.5.4-2.9 1.1-4.2 2.2-1 .9-1.8 2-2.2 3.2-.4 1.3-.7 2.6-.7 4 0 1.2.2 2.5.5 3.7.4 1.2 1 2.4 1.9 3.3 1.1 1.2 2.4 2.2 3.8 3l7.2 4.3c.7.4 1.4.9 2.1 1.4.4.3.8.7 1.1 1.2.2.4.3.9.3 1.4 0 .7-.1 1.4-.4 2.1-.3.6-.8 1.1-1.5 1.3-.9.3-1.9.4-2.8.4h-1.6l-2.2-.1-2.4-.1-2.2-.2-1.7-.1h-.1c-.2 0-.5.1-.7.2-.2.2-.3.5-.3.8v5.1c0 .3.1.5.3.7s.5.3.7.4c1.5.4 2.9.6 4.4.8 1.8.2 3.7.3 5.5.3 1.9 0 3.8-.2 5.6-.7 1.4-.4 2.8-1 4.1-1.8 2-1.4 3.5-3.4 4.2-5.7.4-1 .5-2.1.6-3.2z" fill="#58ba76" stroke="#010000" stroke-miterlimit="10" stroke-width=".25"/><g fill="#fff"><path d="m987.9 213.6c-2.7 8.5-6.7 16.6-11.7 24-7.1 10.3-14.4 20.6-25.9 20.8s-15-6.7-27.9-6.7-17 6.5-27.7 6.9c-11.1.4-19.6-11.2-26.7-21.4-14.5-21-25.6-59.4-10.7-85.3 7.1-12.8 20.4-20.8 35-21.2 10.9-.2 21.3 7.4 27.9 7.4 6.7 0 19.2-9.1 32.4-7.8 5.5.2 21 2.2 31 16.8-.8.5-18.5 10.8-18.3 32.2.1 25.6 22.4 34.1 22.6 34.3m-44.1-97.2c6-7.2 9.9-17.1 8.8-27-8.5.3-18.8 5.7-25 12.8-5.5 6.3-10.3 16.5-9 26.2 9.6.7 19.3-4.8 25.2-12z"/><path d="m1089.5 180.3h-7.2l-3.9-12.3h-13.7l-3.7 12.3h-6.9l13.5-42h8.4zm-12.3-17.5-3.6-11c-.4-1.1-1.1-3.8-2.1-7.9h-.1c-.4 1.8-1.1 4.5-2 7.9l-3.5 11z"/><path d="m1118.6 180.3h-5.9l-.4-4.6h-.1c-2 3.4-5.7 5.5-9.6 5.3-2.7.1-5.3-.9-7.2-2.8-2.1-2.3-3.2-5.7-3.2-10.3v-17.9h6.7v16.7c0 5.8 2 8.7 6 8.7 2.8.1 5.4-1.7 6.3-4.4.3-.8.5-1.7.4-2.6v-18.4h6.7v21.6c0 2.8.1 5.8.3 8.7z"/><path d="m1142.1 155h-7.4v14.7c0 3.8 1.3 5.6 3.9 5.6 1 0 2-.1 3-.3l.2 5.1c-1.7.6-3.5.8-5.2.8-2.3.1-4.6-.8-6.2-2.4-1.5-1.6-2.3-4.3-2.3-8.2v-15.3h-4.5v-5h4.5v-5.5l6.6-2v7.5h7.4z"/><path d="m1174.7 180.3h-6.7v-17.2c0-5.4-2-8.1-6.1-8.1-3-.1-5.6 1.8-6.4 4.7-.2.8-.3 1.6-.3 2.4v18.2h-6.7v-44.2h6.7v18.2h.1c1.9-3.2 5.4-5 9.1-4.9 2.6-.1 5.1.9 6.9 2.7 2.3 2.3 3.4 5.7 3.4 10.1z"/><path d="m1210 164.9c.2 4.2-1.3 8.3-4 11.4-2.8 3.1-6.9 4.8-11.1 4.6-4 .2-7.9-1.4-10.6-4.4-2.7-3.1-4.1-7.1-4-11.1-.2-4.2 1.3-8.3 4.1-11.5 2.8-3 6.8-4.7 11-4.5 4.1-.1 8 1.5 10.7 4.5 2.7 3.1 4.1 7 3.9 11zm-7 .2c.1-2.5-.6-5-1.8-7.1-1.2-2.2-3.5-3.6-6-3.6-2.6-.1-5 1.3-6.2 3.6-1.3 2.2-1.9 4.7-1.8 7.3-.1 2.5.6 5 1.8 7.1 1.2 2.2 3.6 3.6 6.1 3.6s4.8-1.4 6-3.7c1.3-2.2 2-4.7 1.9-7.2z"/><path d="m1231.7 155.9c-.7-.1-1.4-.2-2.1-.2-2.2-.1-4.2.9-5.5 2.7-1.2 1.8-1.8 3.9-1.7 6v15.9h-6.7v-20.8c0-3.5-.1-6.7-.2-9.5h5.9l.2 5.8h.2c.6-1.9 1.8-3.5 3.4-4.8 1.4-1 3.1-1.6 4.9-1.6.6 0 1.1 0 1.7.1v6.4z"/><path d="m1244.9 140.9c.1 1.1-.4 2.2-1.2 3-.8.7-1.9 1.1-3 1.1s-2.1-.4-2.8-1.1c-.8-.8-1.2-1.8-1.2-2.9s.4-2.1 1.2-2.9c1.7-1.5 4.2-1.5 5.9 0 .7.8 1.1 1.8 1.1 2.8zm-.8 39.4h-6.7v-30.3h6.7z"/><path d="m1274.9 180.3h-24.7v-3.9l12.1-16c.8-1 2.1-2.6 4.1-4.9h-15v-5.5h23.2v4.1l-11.9 15.7c-1.3 1.7-2.7 3.4-4.1 5h16.3z"/><path d="m1305.5 163.7c0 1-.1 2-.3 3h-20.2c-.1 2.6 1 5.1 2.9 6.9 1.9 1.5 4.2 2.2 6.6 2.1 2.8 0 5.6-.5 8.2-1.5l1.1 4.7c-3.2 1.3-6.7 2-10.2 1.9-4.1.2-8.1-1.3-11.1-4.2-2.8-3-4.2-7-4-11.1-.2-4.1 1.2-8.2 3.8-11.4s6.5-5 10.6-4.9c3.9-.2 7.7 1.6 9.9 4.9 1.9 2.8 2.9 6.2 2.7 9.6zm-6.4-1.7c.1-1.8-.4-3.6-1.3-5.2-1.1-1.9-3.2-2.9-5.4-2.8-2.1 0-4.1 1-5.4 2.7-1.1 1.5-1.8 3.3-2 5.2z"/><path d="m1327.4 180.3h-6l-.3-4.9h-.2c-1.8 3.6-5.7 5.8-9.7 5.5-3.5.1-6.9-1.5-9.1-4.3-2.5-3.2-3.8-7.1-3.6-11.1-.2-4.3 1.2-8.6 4-11.9 2.3-2.7 5.8-4.3 9.4-4.2 4.1 0 6.9 1.4 8.6 4.1v-17.4h6.7v36c-.1 3 0 5.7.2 8.2zm-7-12.8v-5c0-.7 0-1.4-.2-2.1-.3-1.6-1.2-3-2.4-4.1s-2.8-1.7-4.5-1.7c-2.3-.1-4.6 1.1-5.9 3-1.5 2.2-2.3 4.9-2.2 7.6-.1 2.6.6 5.1 2.1 7.3 1.3 1.9 3.5 3.1 5.9 3 2.1.1 4-.9 5.3-2.5 1.2-1.5 1.9-3.5 1.9-5.5z"/><path d="m1081.2 240.2c.1 3.3-1.3 6.5-3.7 8.7-2.8 2.4-6.6 3.7-11.5 3.7-3.8.2-7.6-.7-10.9-2.6l1.5-5.6c3 1.7 6.3 2.6 9.7 2.6 2.1.1 4.2-.5 5.9-1.7 1.4-1.1 2.2-2.8 2.1-4.6 0-1.6-.6-3.2-1.7-4.3-1.7-1.5-3.7-2.6-5.8-3.2-7.4-2.7-11.1-6.7-11-12-.1-3.3 1.4-6.4 3.9-8.5 2.9-2.3 6.6-3.5 10.3-3.3 3.3-.1 6.6.6 9.5 2l-1.7 5.5c-2.5-1.3-5.2-2-8-1.9-2-.1-4 .5-5.6 1.7-1.1 1-1.7 2.4-1.7 3.8 0 1.6.7 3.1 1.9 4.1 1.8 1.4 3.9 2.5 6.1 3.2 3 1.1 5.8 2.8 8 5.1 1.9 2 2.8 4.6 2.7 7.3z"/><path d="m1113.4 235.4c0 1-.1 2-.2 3h-20.3c-.1 2.6 1 5.1 3 6.9 1.9 1.5 4.2 2.2 6.6 2.1 2.8 0 5.6-.4 8.2-1.4l1.1 4.7c-3.2 1.3-6.7 1.9-10.2 1.9-4.1.2-8.1-1.3-11.1-4.1-2.8-3-4.2-7-4-11.1-.1-4.1 1.2-8.2 3.7-11.4 2.6-3.2 6.5-5 10.6-4.9 3.9-.2 7.7 1.6 9.9 4.9 1.9 2.7 2.8 6 2.7 9.4zm-6.5-1.7c.1-1.8-.4-3.6-1.3-5.2-1.1-1.8-3.2-2.9-5.4-2.8-2.1 0-4.1 1-5.4 2.7-1.2 1.5-1.8 3.3-2 5.2z"/><path d="m1134.9 227.7c-.7-.1-1.4-.2-2.1-.2-2.2-.1-4.2.9-5.5 2.7-1.2 1.8-1.8 3.9-1.7 6v15.8h-6.7v-20.8c0-3.5-.1-6.7-.2-9.5h5.9l.2 5.8h.2c.6-1.9 1.8-3.5 3.4-4.8 1.4-1 3.1-1.6 4.9-1.6.6 0 1.1 0 1.7.1z"/><path d="m1167.9 221.7-11.5 30.3h-6.6l-11.1-30.3h7.2l5.2 16c.9 2.7 1.6 5.2 2.2 7.7h.2c.5-2.2 1.2-4.8 2.2-7.7l5.1-16z"/><path d="m1180.1 212.7c.1 1.1-.4 2.2-1.2 3-.8.7-1.9 1.1-3 1.1s-2.1-.4-2.8-1.1c-.8-.8-1.2-1.8-1.1-2.9 0-1.1.4-2.1 1.2-2.9 1.7-1.5 4.2-1.5 5.9 0 .6.7 1 1.7 1 2.8zm-.7 39.3h-6.7v-30.4h6.7z"/><path d="m1208.8 222.5-1.3 5.1c-1.8-.9-3.8-1.3-5.9-1.2-2.7-.1-5.3 1-7 3-1.8 2.1-2.7 4.8-2.6 7.5-.2 2.8.8 5.5 2.7 7.6 1.8 1.9 4.3 2.9 6.9 2.8 2.1 0 4.2-.4 6.1-1.2l.9 5c-2.6 1.1-5.5 1.6-8.4 1.5-4.1.2-8.1-1.3-11-4.2-2.8-3-4.3-7.1-4.1-11.2-.4-8.5 6.1-15.7 14.6-16.1h1.7c2.6-.1 5.1.4 7.4 1.4z"/><path d="m1239 235.4c0 1-.1 2-.2 3h-20.3c-.1 2.6 1 5.1 3 6.9 1.9 1.5 4.2 2.2 6.6 2.1 2.8 0 5.6-.5 8.2-1.4l1.1 4.7c-3.2 1.3-6.7 1.9-10.2 1.9-4.1.2-8.1-1.3-11.1-4.1-2.8-3-4.2-7-4-11.1-.1-4.1 1.2-8.2 3.8-11.4s6.5-5 10.6-4.9c3.9-.2 7.7 1.6 9.9 4.9 1.9 2.7 2.8 6 2.6 9.4zm-6.4-1.7c.1-1.8-.4-3.6-1.3-5.2-1.1-1.9-3.2-2.9-5.4-2.8-2.1 0-4.1 1-5.4 2.7-1.2 1.5-1.8 3.3-2 5.2z"/><path d="m1287 222.2c.2 3.4-1.1 6.8-3.4 9.3-3 3-7.3 4.5-12.9 4.5-1.3 0-2.6-.1-3.9-.3v16.3h-6.7v-41.5c3.6-.6 7.3-.9 11-.9 5.3 0 9.3 1.1 12 3.4s4.1 5.7 3.9 9.2zm-6.6.3c.1-2.1-.7-4.2-2.4-5.6-1.9-1.4-4.2-2.1-6.6-2-1.5 0-3 .1-4.5.4v15c1.3.3 2.6.4 3.9.4 2.5.1 5-.6 7-2.2 1.8-1.5 2.7-3.7 2.6-6z"/><path d="m1297 227.7c-.7-.1-1.4-.2-2.1-.2-2.2-.1-4.2.9-5.5 2.7-1.2 1.8-1.8 3.9-1.7 6v15.8h-6.7v-20.8c0-3.5 0-6.7-.2-9.5h5.9l.2 5.8h.2c.6-1.9 1.8-3.5 3.4-4.8 1.4-1 3.1-1.6 4.9-1.6.6 0 1.1 0 1.7.1v6.5z"/><path d="m1329.2 236.7c.2 4.2-1.3 8.3-4 11.4-2.8 3.1-6.9 4.8-11.1 4.6-4 .2-7.9-1.4-10.6-4.4-2.7-3.1-4.1-7.1-3.9-11.1-.2-4.2 1.3-8.3 4.1-11.5 2.8-3 6.8-4.7 11-4.5 4-.2 8 1.5 10.7 4.4 2.6 3 4 7 3.8 11.1zm-7 .1c.1-2.5-.6-5-1.8-7.1-1.2-2.2-3.5-3.6-6-3.6-2.6-.1-5 1.3-6.2 3.6-1.3 2.2-1.9 4.7-1.8 7.3-.1 2.5.6 5 1.8 7.1 1.8 3.4 6 4.6 9.4 2.8 1.2-.6 2.2-1.6 2.8-2.8 1.3-2.2 1.9-4.8 1.8-7.3z"/><path d="m1359.6 221.7-11.4 30.3h-6.6l-11.1-30.3h7.2l5.2 16c.9 2.7 1.6 5.2 2.2 7.7h.2c.5-2.2 1.2-4.8 2.2-7.7l5.1-16z"/><path d="m1371.8 212.7c.1 1.1-.4 2.2-1.2 3-.8.7-1.9 1.1-3 1.1s-2.1-.4-2.8-1.1c-.8-.8-1.2-1.8-1.1-2.9 0-1.1.4-2.1 1.2-2.9 1.7-1.5 4.2-1.5 5.9 0 .6.7 1.1 1.7 1 2.8zm-.7 39.3h-6.7v-30.4h6.7z"/><path d="m1405.8 252h-6l-.3-4.8h-.2c-1.8 3.6-5.7 5.8-9.7 5.5-3.5.1-6.9-1.5-9.1-4.3-2.5-3.2-3.8-7.1-3.6-11.1-.2-4.3 1.2-8.5 3.9-11.9 2.4-2.7 5.8-4.3 9.4-4.2 4.1 0 6.9 1.4 8.6 4.1v-17.4h6.7v36c0 2.9.1 5.6.3 8.1zm-7-12.8v-5c0-.7 0-1.4-.2-2.1-.3-1.6-1.2-3-2.4-4.1s-2.8-1.7-4.5-1.7c-2.3-.1-4.6 1.1-5.9 3-1.5 2.2-2.3 4.9-2.1 7.6-.1 2.5.6 5.1 2 7.2 1.3 1.9 3.5 3.1 5.9 3 2.1.1 4-.9 5.3-2.5 1.3-1.4 2-3.4 1.9-5.4z"/><path d="m1438.2 235.4c0 1-.1 2-.3 3h-20.3c-.1 2.6 1 5.1 3 6.9 1.9 1.5 4.2 2.2 6.6 2.1 2.8 0 5.6-.4 8.2-1.4l1.1 4.7c-3.2 1.3-6.7 1.9-10.2 1.9-4.1.2-8.1-1.3-11.1-4.1-2.8-3-4.2-7-4-11.1-.1-4.1 1.2-8.2 3.8-11.4s6.5-5 10.6-4.9c3.9-.2 7.7 1.6 9.9 4.9 1.9 2.7 2.8 6 2.7 9.4zm-6.4-1.7c.1-1.8-.4-3.6-1.3-5.2-1.1-1.8-3.2-2.9-5.4-2.8-2.1 0-4.2 1-5.4 2.7-1.1 1.5-1.8 3.3-2 5.2z"/><path d="m1460.2 227.7c-.7-.1-1.4-.2-2.1-.2-2.2-.1-4.2.9-5.5 2.7-1.2 1.8-1.8 3.9-1.7 6v15.8h-6.6v-20.8c0-3.5 0-6.7-.2-9.5h5.9l.2 5.8h.2c.6-1.9 1.8-3.5 3.4-4.8 1.4-1 3.1-1.6 4.9-1.6.6 0 1.1 0 1.7.1z"/></g></svg>